<?xml version="1.0" standalone="no"?>
<!DOCTYPE svg PUBLIC "-//W3C//DTD SVG 1.1//EN" "http://www.w3.org/Graphics/SVG/1.1/DTD/svg11.dtd" >
<svg xmlns="http://www.w3.org/2000/svg">
<metadata>
Created by FontPrep 20130207 at Thu May  1 16:35:15 2014
 By Mike Guppy
2006 Lukasz Dziedzic published by FSI FontShop International GmbH
</metadata>
<defs>
<font id="7e66693cc6e46fa79a991140151a9f11" horiz-adv-x='1024' >
  <font-face 
    font-family="ClanPro-NarrUltra"
    font-weight="950"
    font-stretch="semi-condensed"
    units-per-em="2048"
    panose-1="2 11 11 6 2 1 1 2 1 2"
    ascent="1612"
    descent="-436"
    x-height="1262"
    cap-height="1536"
    bbox="-268 -481 2560 1944"
    underline-thickness="204"
    underline-position="0"
    unicode-range="U+000D-FB02"
  />
<missing-glyph horiz-adv-x="1220" 
d="M319 250h582v1036h-582v-1036zM70 0v1536h1081v-1536h-1081z" />
    <glyph glyph-name="f_i" unicode="fi" horiz-adv-x="1392" 
d="M842 1487q0 168 234 168t235 -167q0 -167 -234 -167q-121 0 -178 39t-57 127zM575 0h-444v946h-117v316h115v55q0 135 111 228t315 93q119 0 190 -22l-12 -283q-45 8 -78 8q-80 0 -80 -38v-41h725v-1262h-454v946h-271v-946z" />
    <glyph glyph-name="f_j" unicode="fj" horiz-adv-x="1392" 
d="M842 1487q0 168 234 168t235 -167q0 -167 -234 -167q-121 0 -178 39t-57 127zM575 0h-444v946h-117v316h115v55q0 135 111 228t315 93q119 0 190 -22l-12 -283q-45 8 -78 8q-80 0 -80 -38v-41h721v-1215q0 -205 -114 -294t-299 -89q-104 0 -195 29l21 291q31 -6 59 -7
q84 0 84 78v891h-277v-946z" />
    <glyph glyph-name="f_l" unicode="fl" horiz-adv-x="1327" 
d="M1251 0h-448v1341q-168 23 -205 -7q-23 -17 -23 -54v-18h119v-316h-119v-946h-444v946h-117v316h115v38q0 150 130 244t439 94q102 0 282 -19t271 -24v-1595z" />
    <glyph glyph-name=".notdef" horiz-adv-x="1220" 
d="M319 250h582v1036h-582v-1036zM70 0v1536h1081v-1536h-1081z" />
    <glyph glyph-name=".null" horiz-adv-x="0" 
 />
    <glyph glyph-name=".null" horiz-adv-x="0" 
 />
    <glyph glyph-name="nonmarkingreturn" horiz-adv-x="681" 
 />
    <glyph glyph-name="CR" unicode="&#xd;" horiz-adv-x="421" 
 />
    <glyph glyph-name="space" unicode=" " horiz-adv-x="421" 
 />
    <glyph glyph-name="exclam" unicode="!" horiz-adv-x="581" 
d="M532 174q0 -92 -58 -145t-177 -53t-174 46q-55 48 -55 152q0 203 232 203t232 -203zM467 477h-348l-70 1059h483z" />
    <glyph glyph-name="quotedbl" unicode="&#x22;" horiz-adv-x="933" 
d="M57 1569h414l-70 -617h-284zM510 1569h414l-70 -617h-285z" />
    <glyph glyph-name="numbersign" unicode="#" horiz-adv-x="1206" 
d="M582 866l-27 -225h96l27 225h-96zM78 641h129l24 225h-153v322h186l37 348h348l-37 -348h97l34 348h344l-38 -348h86v-322h-115l-27 -225h142v-330h-172l-33 -311h-342l33 311h-99l-33 -311h-348l35 311h-98v330z" />
    <glyph glyph-name="dollar" unicode="$" horiz-adv-x="1206" 
d="M498 1094q0 -37 59 -68l25 139q-84 -10 -84 -71zM776 418q0 41 -69 74l-31 -158q100 12 100 84zM100 1075q0 471 551 484l25 129l256 -19l-25 -131q82 -12 146 -39l-23 -375q-74 18 -196 33l-41 -211q151 -60 245 -166t95 -303q0 -252 -125 -375t-400 -129l-24 -131
l-234 19l23 129q-162 20 -264 76l55 389q125 -66 274 -101l39 226q-152 64 -254 161q-123 119 -123 334z" />
    <glyph glyph-name="percent" unicode="%" horiz-adv-x="1495" 
d="M1182 332q0 84 -43 84t-43 -84q0 -50 9 -68t33 -18t34 16t10 70zM1475 332q1 -172 -89 -263t-251 -92q-332 0 -332 355q0 182 81 270t253 88q338 0 338 -358zM1042 1409l248 -197l-860 -1110l-250 197zM397 1196q0 90 -43 90q-24 0 -32 -18t-9 -72q0 -90 41 -90
q25 0 34 18t9 72zM354 1548q336 0 336 -348q0 -178 -88 -269t-250 -91q-332 0 -332 354q0 182 81 268t253 86z" />
    <glyph glyph-name="ampersand" unicode="&#x26;" horiz-adv-x="1443" 
d="M543 1163q0 -41 28 -102q84 63 84 115q0 31 -15 45t-34 14q-63 0 -63 -72zM569 373q53 0 88 10q-78 59 -168 154q-18 -33 -18 -70q0 -94 98 -94zM506 -29q-254 0 -375 132t-121 321q0 229 236 420q-117 184 -117 315q0 180 115 290t372 110q206 -1 344 -95t138 -252
q0 -121 -83 -218t-233 -203q57 -59 146 -132q41 80 69 187l379 -2q-18 -176 -137 -387q105 -53 197 -82l-164 -391q-145 53 -303 153q-209 -166 -463 -166z" />
    <glyph glyph-name="quotesingle" unicode="'" horiz-adv-x="483" 
d="M35 1569h414l-70 -617h-285z" />
    <glyph glyph-name="parenleft" unicode="(" horiz-adv-x="765" 
d="M545 660q0 -566 215 -922l-328 -27q-158 172 -239 420q-82 247 -82 527t80 528q81 248 241 420l328 -27q-215 -353 -215 -919z" />
    <glyph glyph-name="parenright" unicode=")" horiz-adv-x="765" 
d="M653 658q0 -280 -81 -528t-238 -419l-330 27q217 360 217 922t-217 919l330 27q158 -172 238 -420t81 -528z" />
    <glyph glyph-name="asterisk" unicode="*" horiz-adv-x="796" 
d="M303 1589h201l33 -192l180 41l71 -193l-174 -94l95 -170l-150 -113l-153 140l-156 -140l-158 105l90 178l-174 92l76 195l184 -41z" />
    <glyph glyph-name="plus" unicode="+" horiz-adv-x="1169" 
d="M1075 481h-295v-299h-393v299h-295v383h295v297h393v-297h295v-383z" />
    <glyph glyph-name="comma" unicode="," horiz-adv-x="546" 
d="M271 410q118 0 176 -64q59 -64 59 -168t-68 -240t-153 -233l-158 37l49 238q-53 29 -94 85q-41 55 -41 137t56 145t174 63z" />
    <glyph glyph-name="hyphen" unicode="-" horiz-adv-x="710" 
d="M55 856h600v-307h-600v307z" />
    <glyph glyph-name="period" unicode="." horiz-adv-x="559" 
d="M518 195q0 -103 -58 -161t-182 -58t-180 50q-56 52 -57 169q1 223 239 223t238 -223z" />
    <glyph glyph-name="slash" unicode="/" horiz-adv-x="925" 
d="M580 1591h381l-642 -1822h-368z" />
    <glyph glyph-name="zero" unicode="0" horiz-adv-x="1206" 
d="M658 385q40 54 40 376t-40 371q-17 22 -55 22t-56 -25q-41 -55 -41 -303q0 -400 41 -443q18 -21 56 -21t55 23zM1159 770q0 -416 -136 -604t-426 -188t-419 186t-129 606t129 600t424 180t426 -182t131 -598z" />
    <glyph glyph-name="one" unicode="1" horiz-adv-x="1206" 
d="M268 0v317h158v684l-207 -108l-49 360l459 279h278v-1215h160v-317h-799z" />
    <glyph glyph-name="two" unicode="2" horiz-adv-x="1206" 
d="M1128 1085q0 -163 -108 -317t-328 -360l2 -7h420l-10 -401h-989v289q37 43 97 111q298 335 354 434q56 100 65 139q10 39 10 67q0 109 -133 109t-309 -117l-107 369q213 152 514 151q256 0 389 -126t133 -341z" />
    <glyph glyph-name="three" unicode="3" horiz-adv-x="1206" 
d="M1137 462q0 -228 -151 -356t-454 -126q-250 0 -430 102l78 352q168 -78 332 -78t164 119q0 66 -58 105t-229 38v320q174 0 228 30t55 99q0 96 -148 96q-180 0 -338 -116l-102 356q201 149 469 149t413 -120q144 -121 144 -330t-170 -314v-4q197 -94 197 -322z" />
    <glyph glyph-name="four" unicode="4" horiz-adv-x="1206" 
d="M662 629l12 260l12 166l-4 2l-201 -428h181zM1081 252v-252h-434v252h-592l-39 291l506 993h559v-907h107l-8 -377h-99z" />
    <glyph glyph-name="five" unicode="5" horiz-adv-x="1206" 
d="M1143 535q-1 -263 -143 -409t-422 -146t-476 102l76 352q170 -76 334 -76q98 0 130 32t32 104t-40 100t-144 27q-104 0 -209 -27l-152 172l55 770h865l18 -395h-502l-10 -160q49 6 109 6q227 1 353 -115t126 -337z" />
    <glyph glyph-name="six" unicode="6" horiz-adv-x="1206" 
d="M707 561q0 121 -95 121q-22 0 -54 -13t-38 -32q2 -172 24 -225t81 -54q82 0 82 203zM1165 553q0 -293 -141 -433t-395 -140q-291 0 -438 178q-146 178 -146 577t173 611t507 210q209 0 346 -55l-33 -383q-123 41 -255 41t-192 -43t-81 -133l4 -4q86 45 195 45
q221 0 339 -120t117 -351z" />
    <glyph glyph-name="seven" unicode="7" horiz-adv-x="1206" 
d="M1143 1532v-369l-453 -1163h-520l518 1106h-633l21 426h1067z" />
    <glyph glyph-name="eight" unicode="8" horiz-adv-x="1206" 
d="M524 1106q0 -92 131 -141q49 55 49 119t-23 90q-24 25 -77 24q-80 0 -80 -92zM496 458q0 -132 113 -130q54 0 79 22t25 82q0 59 -42 95t-126 73q-49 -70 -49 -142zM47 473q0 88 39 177t115 151q-109 123 -109 327t129 316t388 112t384 -114t125 -302q0 -190 -121 -317
q162 -119 162 -359t-140 -363q-140 -124 -413 -124q-559 0 -559 496z" />
    <glyph glyph-name="nine" unicode="9" horiz-adv-x="1206" 
d="M588 1178q-53 0 -75 -33q-21 -33 -21 -115t20 -114t72 -32q100 1 108 66q0 137 -25 183q-26 45 -79 45zM1159 811q0 -432 -162 -632t-493 -199q-231 0 -391 71l61 367q144 -56 272 -56t181 50t67 153q-84 -33 -198 -33q-217 0 -335 127t-118 370t137 384t410 141
q569 0 569 -743z" />
    <glyph glyph-name="colon" unicode=":" horiz-adv-x="559" 
d="M518 195q0 -103 -58 -161t-182 -58t-180 50q-56 52 -57 169q1 223 239 223t238 -223zM518 948q0 -102 -58 -160t-182 -59q-124 0 -181 51q-56 51 -56 168q1 223 239 223t238 -223z" />
    <glyph glyph-name="semicolon" unicode=";" horiz-adv-x="559" 
d="M53 202q1 82 57 145t174 63t176 -64t58 -168t-68 -240t-153 -233l-158 37l49 238q-53 29 -94 85q-41 55 -41 137zM518 948q0 -102 -58 -160t-182 -59q-124 0 -181 51q-56 51 -56 168q1 223 239 223t238 -223z" />
    <glyph glyph-name="less" unicode="&#x3c;" horiz-adv-x="1169" 
d="M1014 819l-197 -90l-151 -65v-7l149 -69l201 -101v-409l-862 475v217l858 477z" />
    <glyph glyph-name="equal" unicode="=" horiz-adv-x="1169" 
d="M1026 264h-883v324h883v-324zM1026 709h-883v321h883v-321z" />
    <glyph glyph-name="greater" unicode="&#x3e;" horiz-adv-x="1169" 
d="M154 78v409l198 99l152 71v7l-152 65l-194 90v428l858 -477v-217z" />
    <glyph glyph-name="question" unicode="?" horiz-adv-x="954" 
d="M676 174q0 -92 -58 -145t-176 -53q-119 0 -174 46q-55 48 -55 152q-1 203 231 203t232 -203zM934 1149q0 -297 -301 -477l-15 -195h-339l-25 350q227 117 227 244q0 37 -28 61q-29 24 -82 23q-133 0 -217 -78l-152 346q74 57 194 93t248 34q238 0 364 -108t126 -293z" />
    <glyph glyph-name="at" unicode="@" horiz-adv-x="1804" 
d="M760 611q0 -126 61 -126q37 0 66 46t37 126l32 269q-12 27 -41 26q-71 0 -113 -108t-42 -233zM889 1245q113 0 178 -71l35 61l227 -14l-82 -568q-8 -49 -8 -86q0 -109 84 -108q84 0 137 91t53 294q0 256 -141 412t-411 155q-330 0 -499 -190t-169 -515t169 -518
q169 -192 508 -192t595 190l96 -206q-111 -90 -297 -152t-399 -64q-428 0 -675 243t-247 704q0 258 104 467q103 209 317 338t503 129q360 1 578 -225t218 -568t-140 -506q-141 -164 -331 -164t-276 125q-115 -125 -299 -125q-135 0 -223 110t-88 304q0 264 139 456t344 193
z" />
    <glyph glyph-name="A" unicode="A" horiz-adv-x="1435" 
d="M705 1112l-97 -491h193l-64 325l-26 166h-6zM920 0l-46 233h-344l-45 -233h-503l436 1536h588l446 -1536h-532z" />
    <glyph glyph-name="B" unicode="B" horiz-adv-x="1323" 
d="M782 1049q0 59 -17 78t-67 20h-159v-199h159q51 0 68 21q16 21 16 80zM711 381q57 1 75 21t17 86t-19 90q-18 23 -79 22h-166v-219h172zM1288 457q0 -213 -145 -335t-441 -122h-626v1536h639q256 0 392 -110t136 -293q0 -223 -186 -316v-4q231 -84 231 -356z" />
    <glyph glyph-name="C" unicode="C" horiz-adv-x="1105" 
d="M774 1149q-139 0 -183 -75q-44 -76 -44 -308t46 -310q45 -78 189 -79q144 0 250 47l43 -381q-160 -70 -356 -70q-340 0 -508 196t-168 605q0 788 702 789q181 -1 326 -54l-43 -395q-115 35 -254 35z" />
    <glyph glyph-name="D" unicode="D" horiz-adv-x="1376" 
d="M657 408q76 0 109 22t48 100t15 274t-31 259q-32 61 -141 61h-102v-716h102zM1333 772q0 -408 -165 -590t-504 -182h-588v1536h577q362 0 522 -177q158 -179 158 -587z" />
    <glyph glyph-name="E" unicode="E" horiz-adv-x="1153" 
d="M555 403h561l-8 -403h-1032v1536h1007l9 -410h-537v-159h434v-371h-434v-193z" />
    <glyph glyph-name="F" unicode="F" horiz-adv-x="1105" 
d="M555 1118v-196h440l-4 -396h-436v-526h-479v1536h1005l6 -418h-532z" />
    <glyph glyph-name="G" unicode="G" horiz-adv-x="1271" 
d="M1210 844v-789q-182 -84 -452 -84q-385 0 -550 199t-165 600t177 597t558 196q236 0 414 -66l-43 -397q-160 55 -335 55t-221 -73q-46 -72 -46 -312t38 -312t158 -73q27 0 39 2v457h428z" />
    <glyph glyph-name="H" unicode="H" horiz-adv-x="1378" 
d="M1303 0h-480v569h-268v-569h-479v1536h479v-553h268v553h480v-1536z" />
    <glyph glyph-name="I" unicode="I" horiz-adv-x="671" 
d="M90 0v1536h492v-1536h-492z" />
    <glyph glyph-name="J" unicode="J" horiz-adv-x="1032" 
d="M956 1536v-946q0 -342 -160 -480t-470 -139q-158 0 -281 45l23 390q59 -27 176 -27t170 49t53 172v936h489z" />
    <glyph glyph-name="K" unicode="K" horiz-adv-x="1398" 
d="M555 594v-594h-479v1536h477v-573h68l235 573h535l-332 -735l346 -801h-559l-234 594h-57z" />
    <glyph glyph-name="L" unicode="L" horiz-adv-x="1056" 
d="M559 414h477l-10 -414h-950v1536h483v-1122z" />
    <glyph glyph-name="M" unicode="M" horiz-adv-x="1765" 
d="M76 1536h522l279 -817h6l49 158l231 659h527v-1536h-439v506l4 166l-6 2l-223 -674h-307l-172 516l-49 160l-4 -2l2 -166v-508h-420v1536z" />
    <glyph glyph-name="N" unicode="N" horiz-adv-x="1388" 
d="M1315 0h-340l-387 586l-88 141l-4 -2l2 -166v-559h-422v1536h395l420 -668l4 2l-4 164l2 502h422v-1536z" />
    <glyph glyph-name="O" unicode="O" horiz-adv-x="1429" 
d="M717 385q69 0 103 30q34 29 48 109t15 282q0 202 -33 270t-137 69q-70 0 -103 -28q-33 -29 -48 -107t-15 -279t34 -273t136 -73zM1386 763q0 -421 -160 -605t-507 -184q-348 0 -512 190t-164 605t161 603t511 188q351 0 511 -188t160 -609z" />
    <glyph glyph-name="P" unicode="P" horiz-adv-x="1290" 
d="M631 809q81 0 109 30q28 29 28 137t-26 140t-113 33h-76v-340h78zM631 1536q337 0 485 -135t148 -413t-150 -412q-150 -136 -483 -136h-76v-440h-479v1536h555z" />
    <glyph glyph-name="Q" unicode="Q" horiz-adv-x="1429" 
d="M717 385q69 0 103 30q34 29 48 109t15 282q0 202 -33 270t-137 69q-70 0 -103 -28q-33 -29 -48 -107t-15 -279t34 -273t136 -73zM1386 768q0 -301 -76 -477t-241 -254l231 -199l-497 -139l-137 276q-319 11 -471 203t-152 599t161 595t511 188q351 0 511 -188t160 -604z
" />
    <glyph glyph-name="R" unicode="R" horiz-adv-x="1331" 
d="M643 860q73 0 97 26t24 118t-24 120t-97 27h-88v-291h88zM1264 1024q0 -145 -50 -254t-137 -160l277 -610h-551l-170 512h-78v-512h-479v1536h559q317 0 473 -123t156 -389z" />
    <glyph glyph-name="S" unicode="S" horiz-adv-x="1112" 
d="M1087 477q-1 -233 -155 -368t-421 -135t-464 104l59 393q213 -98 390 -98q74 0 104 18q30 19 29 55q0 67 -145 111t-289 152q-66 49 -109 140t-43 210q0 223 144 362q145 139 409 139t442 -71l-51 -389q-193 51 -311 51t-145 -16q-27 -15 -27 -55t60 -72t146 -64
q86 -33 171 -82q86 -48 146 -148t60 -237z" />
    <glyph glyph-name="T" unicode="T" horiz-adv-x="1165" 
d="M825 1118v-1118h-487v1118h-324l9 418h1118l10 -418h-326z" />
    <glyph glyph-name="U" unicode="U" horiz-adv-x="1353" 
d="M1290 1536v-1012q0 -551 -610 -551q-307 1 -462 141t-155 410v1012h482v-1004q-1 -76 29 -108t106 -33q76 0 104 31t27 110v1004h479z" />
    <glyph glyph-name="V" unicode="V" horiz-adv-x="1380" 
d="M909 1536h494l-440 -1536h-547l-439 1536h527l198 -1014h7l28 162z" />
    <glyph glyph-name="W" unicode="W" horiz-adv-x="2019" 
d="M766 1536h506l127 -864l22 -164h6l17 164l104 864h477l-317 -1536h-571l-107 803l-16 166h-6l-19 -166l-104 -803h-572l-317 1536h498l102 -870l16 -164h6l21 164z" />
    <glyph glyph-name="X" unicode="X" horiz-adv-x="1378" 
d="M1380 1536l-354 -731l356 -805h-534l-152 444h-6l-51 -159l-98 -285h-545l348 795l-346 741h557l86 -236l53 -155h6l54 155l88 236h538z" />
    <glyph glyph-name="Y" unicode="Y" horiz-adv-x="1374" 
d="M938 0h-489v449l-472 1087h533l143 -465l45 -158h7l40 160l134 463h518l-459 -1087v-449z" />
    <glyph glyph-name="Z" unicode="Z" horiz-adv-x="1167" 
d="M35 0v303l434 678l90 133l-2 4h-512l10 418h1065v-334l-415 -651l-91 -131l2 -6h508l-4 -414h-1085z" />
    <glyph glyph-name="bracketleft" unicode="[" horiz-adv-x="743" 
d="M111 -279v1872h626v-297h-221v-1282h221v-293h-626z" />
    <glyph glyph-name="backslash" unicode="\" horiz-adv-x="710" 
d="M-78 1591h357l548 -1822h-354z" />
    <glyph glyph-name="bracketright" unicode="]" horiz-adv-x="741" 
d="M631 1593v-1872h-627v293h221v1282h-221v297h627z" />
    <glyph glyph-name="asciicircum" unicode="^" horiz-adv-x="1206" 
d="M797 956l-113 201l-76 148h-6l-188 -349h-351l396 693h295l387 -693h-344z" />
    <glyph glyph-name="underscore" unicode="_" horiz-adv-x="780" 
d="M0 -61h780v-250h-780v250z" />
    <glyph glyph-name="grave" unicode="`" horiz-adv-x="813" 
d="M688 1331h-330l-260 299h494z" />
    <glyph glyph-name="a" unicode="a" horiz-adv-x="1132" 
d="M629 401v111q-41 10 -84 10q-92 0 -92 -102t79 -103q41 -1 69 21t28 63zM35 394q0 194 117 308t307 113q82 0 170 -18v18q0 109 -160 109t-324 -60l-34 340q187 78 455 78t386 -125t117 -403v-754h-340l-29 90q-116 -110 -290 -110t-275 110q-100 110 -100 304z" />
    <glyph glyph-name="b" unicode="b" horiz-adv-x="1222" 
d="M684 342q45 45 45 284t-43 273q-20 16 -76 16t-90 -61v-469q36 -63 90 -63t74 20zM1190 639q0 -338 -130 -500t-364 -162q-168 0 -278 105l-43 -82h-299v1579l444 20v-221l-4 -164l6 -4q98 72 230 72q438 0 438 -643z" />
    <glyph glyph-name="c" unicode="c" horiz-adv-x="929" 
d="M719 899q-133 0 -179 -59t-46 -211q0 -151 57 -221t147 -70t176 24l29 -329q-104 -57 -291 -58q-280 0 -430 163t-149 478q0 664 585 664q164 0 273 -43l-23 -358q-82 20 -149 20z" />
    <glyph glyph-name="d" unicode="d" horiz-adv-x="1222" 
d="M604 907q-62 0 -86 -56t-24 -235t21 -235q22 -55 90 -55t97 59v477q-36 45 -98 45zM1147 0h-346l-35 86q-113 -109 -283 -109q-451 0 -450 664q0 311 114 478q115 167 324 167q131 0 231 -80l5 4l-5 164v205l445 20v-1599z" />
    <glyph glyph-name="e" unicode="e" horiz-adv-x="1144" 
d="M596 930q-57 0 -79 -29t-30 -125h215q-2 86 -25 120q-24 34 -81 34zM678 -20q-645 0 -645 651t561 651q518 0 518 -584q0 -115 -12 -206h-606q14 -78 70 -112t192 -34t282 43l47 -342q-176 -67 -407 -67z" />
    <glyph glyph-name="f" unicode="f" 
d="M575 0h-444v946h-117v316h115v55q0 135 111 228t315 93q109 0 211 -26l-23 -281q-47 10 -88 10q-80 0 -80 -38v-41h187v-316h-187v-946z" />
    <glyph glyph-name="g" unicode="g" horiz-adv-x="1163" 
d="M561 967q-37 1 -51 -19t-14 -74t12 -74q12 -22 50 -22t52 18t14 75q0 56 -12 76q-14 20 -51 20zM426 36q0 -54 126 -54t167 10t41 37q0 19 -16 27t-58 10l-250 16q-10 -20 -10 -46zM559 489q-37 0 -98 5q-8 -10 -8 -25q0 -31 51 -33l262 -12q201 -10 297 -93t96 -243
q0 -200 -147 -312t-425 -112t-407 88t-129 234q0 100 76 174q-88 74 -88 188q0 156 149 240q-131 102 -131 288t122 298q122 111 376 110q184 0 301 -57l209 57l96 -203l-119 -102q10 -51 11 -96q0 -394 -494 -394z" />
    <glyph glyph-name="h" unicode="h" horiz-adv-x="1226" 
d="M717 795q0 118 -94 116q-68 0 -103 -45v-866h-444v1579l444 20v-219l-4 -163l6 -5q104 74 248 74q180 0 286 -131t107 -360v-795h-446v795z" />
    <glyph glyph-name="i" unicode="i" horiz-adv-x="630" 
d="M80 1487q0 168 234 168t235 -167q0 -167 -234 -167q-121 0 -178 39t-57 127zM543 0h-455v1251l455 19v-1270z" />
    <glyph glyph-name="j" unicode="j" horiz-adv-x="632" 
d="M82 1487q0 168 234 168t235 -167q0 -167 -234 -167q-121 0 -178 39t-57 127zM547 47q0 -205 -113 -294t-299 -89q-106 0 -196 29l20 291q33 -6 61 -7q82 0 82 78v1198l445 17v-1223z" />
    <glyph glyph-name="k" unicode="k" horiz-adv-x="1243" 
d="M520 842h98l144 420h471l-234 -572l238 -690h-481l-140 498h-96v-498h-444v1579l444 20v-757z" />
    <glyph glyph-name="l" unicode="l" horiz-adv-x="600" 
d="M524 0h-448v1579l448 20v-1599z" />
    <glyph glyph-name="m" unicode="m" horiz-adv-x="1843" 
d="M1780 0h-445v795q0 117 -94 116q-94 0 -94 -116v-795h-445v795q0 61 -22 89q-23 28 -77 28t-89 -46v-866h-444v1253l321 19l62 -98q135 115 292 114q201 0 302 -145q123 143 316 143t305 -126t112 -359v-801z" />
    <glyph glyph-name="n" unicode="n" horiz-adv-x="1220" 
d="M1157 0h-444v795q0 117 -95 116q-66 0 -104 -45v-866h-444v1255l321 17l55 -88q130 102 310 102t291 -129t110 -362v-795z" />
    <glyph glyph-name="o" unicode="o" horiz-adv-x="1216" 
d="M494 626q0 -196 24 -253t92 -57t90 56q22 58 23 223q0 165 -11 231t-34 88q-22 22 -80 22t-81 -57t-23 -253zM1182 625q0 -352 -136 -503t-438 -151t-438 151q-137 151 -137 502q0 350 138 506t438 156t437 -154q136 -155 136 -507z" />
    <glyph glyph-name="p" unicode="p" horiz-adv-x="1216" 
d="M610 334q59 0 86 60t27 238q-1 177 -21 227t-88 50t-100 -57v-455q37 -63 96 -63zM735 1282q225 0 337 -148t112 -480q0 -330 -122 -500t-331 -170q-135 0 -215 61l-6 -2l4 -166v-190h-444v1566l307 19l76 -88q125 98 282 98z" />
    <glyph glyph-name="q" unicode="q" horiz-adv-x="1218" 
d="M601 903q-69 0 -88 -47t-19 -222t24 -236q26 -60 90 -60t97 43v487q-35 35 -104 35zM1149 -315h-444v342q-90 -45 -213 -45q-209 0 -334 162t-125 480t118 488t359 170q195 0 307 -108l45 90l287 -2v-1577z" />
    <glyph glyph-name="r" unicode="r" horiz-adv-x="907" 
d="M516 0h-446v1253l356 15l33 -150h6q102 166 283 166q88 0 139 -18l-25 -424q-82 20 -141 20q-97 0 -151 -55t-54 -164v-643z" />
    <glyph glyph-name="s" unicode="s" horiz-adv-x="956" 
d="M926 416q0 -440 -498 -441q-217 0 -371 68l39 352q141 -68 324 -67q96 0 96 51q0 33 -49 53t-120 43t-141 59t-120 120q-49 84 -49 208q0 184 125 302t368 118q180 0 347 -65l-31 -347q-147 53 -316 54q-72 0 -71 -43q0 -48 122 -80t224 -105q51 -38 86 -110t35 -170z
" />
    <glyph glyph-name="t" unicode="t" horiz-adv-x="792" 
d="M776 944h-223v-536q0 -47 22 -68q23 -20 78 -20t84 12l21 -314q-82 -39 -242 -38q-203 0 -305 110t-102 305v549h-95v318h117l72 258l350 30v-288h223v-318z" />
    <glyph glyph-name="u" unicode="u" horiz-adv-x="1212" 
d="M1149 1262v-799q0 -246 -134 -365t-409 -118q-543 0 -543 483v799h445v-797q0 -57 22 -84t77 -27q54 0 77 26t23 85v797h442z" />
    <glyph glyph-name="v" unicode="v" horiz-adv-x="1273" 
d="M801 1262h479l-383 -1262h-526l-377 1262h479l160 -811h6l29 161z" />
    <glyph glyph-name="w" unicode="w" horiz-adv-x="1753" 
d="M651 1262h463l109 -813h6l12 165l70 648h432l-238 -1262h-542l-56 545l-12 168h-6l-72 -713h-543l-264 1262h445l77 -650l17 -163h6l16 163z" />
    <glyph glyph-name="x" unicode="x" horiz-adv-x="1241" 
d="M739 0l-82 240l-49 159h-6l-121 -399h-483l313 635l-307 627h508l119 -375h6l45 157l70 218h485l-291 -619l295 -643h-502z" />
    <glyph glyph-name="y" unicode="y" horiz-adv-x="1280" 
d="M326 -35q123 0 153 80l4 12l-489 1205h502l190 -721h6l25 164l102 557h469l-370 -1209q-121 -397 -510 -397q-131 0 -226 37l33 293q60 -21 111 -21z" />
    <glyph glyph-name="z" unicode="z" horiz-adv-x="1009" 
d="M35 0v303l325 467l97 131l-2 4h-410l14 357h895v-297l-331 -478l-97 -129l2 -6h451l-10 -352h-934z" />
    <glyph glyph-name="braceleft" unicode="{" horiz-adv-x="800" 
d="M727 29h68v-314h-45q-307 0 -437 109q-129 109 -129 313l23 297q0 100 -96 152v153q96 51 96 152l-23 297q0 206 129 314t437 108h45v-314h-68q-65 0 -105 -49t-40 -112l14 -244q0 -147 -111 -229q111 -78 111 -228l-14 -244q0 -63 40 -112t105 -49z" />
    <glyph glyph-name="bar" unicode="|" horiz-adv-x="598" 
d="M129 -362v2013h342v-2013h-342z" />
    <glyph glyph-name="braceright" unicode="}" horiz-adv-x="800" 
d="M74 1296h-70v314h47q307 0 436 -109t129 -313l-22 -297q0 -100 94 -152v-153q-94 -51 -94 -152l22 -297q0 -205 -129 -313t-436 -109h-47v314h70q63 0 103 49t40 112l-14 244q0 150 110 228q-111 82 -110 229l14 244q0 63 -40 112t-103 49z" />
    <glyph glyph-name="asciitilde" unicode="~" horiz-adv-x="1206" 
d="M403 1628q89 0 219 -58t170 -58t64 27q24 28 25 56l243 2q0 -225 -82 -343t-237 -117q-90 0 -216 58t-167 58t-68 -26q-26 -27 -28 -60h-244q2 461 321 461z" />
    <glyph glyph-name="uni00A0" unicode="&#xa0;" horiz-adv-x="421" 
 />
    <glyph glyph-name="exclamdown" unicode="&#xa1;" horiz-adv-x="577" 
d="M51 1147q-1 92 57 145q58 54 177 54t174 -48t55 -151q0 -203 -232 -203t-231 203zM113 868h352l53 -1134h-459z" />
    <glyph glyph-name="cent" unicode="&#xa2;" horiz-adv-x="1206" 
d="M817 899q-133 0 -179 -59t-46 -211q0 -151 57 -221t147 -70t177 24l28 -329q-76 -41 -194 -53l-14 -207h-334l18 237q-346 119 -346 606q0 559 416 648l18 219h332l-20 -217q77 -15 112 -29l-22 -358q-82 20 -150 20z" />
    <glyph glyph-name="sterling" unicode="&#xa3;" horiz-adv-x="1206" 
d="M133 1110q1 199 149 329t461 130q172 0 334 -51l-49 -388q-121 35 -225 35q-193 0 -193 -127q0 -57 21 -123h413v-329h-333q-4 -125 -103 -193l4 -6q117 31 255 31t263 -21l-18 -413q-425 58 -993 4l-27 403q74 3 127 59t53 123v13h-166l-18 329h90q-45 109 -45 195z" />
    <glyph glyph-name="currency" unicode="&#xa4;" horiz-adv-x="1206" 
d="M473 737q0 -53 37 -90t90 -37t91 37t38 90t-38 91t-91 38t-90 -38t-37 -91zM195 743q0 80 32 152l-143 145l227 228l152 -154q63 25 138 25t138 -25l154 154l227 -228l-145 -145q35 -76 35 -152t-25 -149l133 -135l-227 -226l-127 125q-157 -67 -328 0l-127 -127
l-227 228l135 137q-22 67 -22 147z" />
    <glyph glyph-name="yen" unicode="&#xa5;" horiz-adv-x="1206" 
d="M127 766h139l-268 770h518l64 -485l20 -164h6l19 164l65 485h512l-260 -770h160v-254h-242v-57h242v-254h-242v-201h-508v201h-225v254h225v57h-225v254z" />
    <glyph glyph-name="brokenbar" unicode="&#xa6;" horiz-adv-x="598" 
d="M129 -313v856h342v-856h-342zM129 778v873h342v-873h-342z" />
    <glyph glyph-name="section" unicode="&#xa7;" horiz-adv-x="1097" 
d="M633 614q0 59 -133 136q-31 -29 -31 -70q0 -59 133 -133q31 30 31 67zM41 637q0 188 145 309q-111 106 -110 240q0 193 133 293t377 100t397 -68l-29 -319q-184 53 -333 53q-88 0 -89 -45q0 -32 54 -60t132 -62q76 -34 154 -81t132 -135t55 -205q0 -186 -146 -307
q113 -109 113 -239q0 -195 -132 -295t-380 -100t-395 69l26 319q180 -55 336 -55q86 0 86 47t-137 99t-253 141q-58 45 -97 124t-39 177z" />
    <glyph glyph-name="dieresis" unicode="&#xa8;" horiz-adv-x="813" 
d="M436 1487q0 168 178 168t177 -167q0 -167 -179 -167q-90 0 -133 39t-43 127zM25 1487q0 168 177 168t177 -167t-176 -167q-92 0 -135 39t-43 127z" />
    <glyph glyph-name="copyright" unicode="&#xa9;" horiz-adv-x="1693" 
d="M978 909q-194 0 -194 -141q0 -74 46 -108t152 -34t192 44l40 -293q-61 -55 -162 -95t-204 -40q-223 0 -372 152q-148 153 -148 370t146 371q146 153 368 153t366 -123l-30 -305q-98 49 -200 49zM268 767q0 -239 169 -411t410 -172t411 173t169 411q0 238 -170 408
q-171 170 -411 170t-409 -170t-169 -409zM848 -29q-332 -1 -568 235t-235 567q0 331 236 567q235 236 567 235q332 0 566 -236q234 -237 234 -567t-234 -566t-566 -235z" />
    <glyph glyph-name="ordfeminine" unicode="&#xaa;" horiz-adv-x="915" 
d="M494 942v90q-18 6 -54 6q-63 0 -63 -79t55 -78q62 0 62 61zM328 588q-141 0 -224 92q-82 92 -82 257t96 261q95 96 247 96q74 0 129 -16v16q0 76 -130 76t-251 -49l-25 297q170 66 344 65q240 0 338 -105t98 -343v-633h-290l-27 70q-82 -84 -223 -84z" />
    <glyph glyph-name="guillemotleft" unicode="&#xab;" horiz-adv-x="1333" 
d="M700 801l-251 -166l251 -166v-319l-671 473v24l671 473v-319zM1276 801l-252 -166l252 -166v-319l-672 473v24l672 473v-319z" />
    <glyph glyph-name="logicalnot" unicode="&#xac;" horiz-adv-x="1206" 
d="M709 502h-566v352h922v-631h-356v279z" />
    <glyph glyph-name="uni00AD" unicode="&#xad;" horiz-adv-x="710" 
d="M55 856h600v-307h-600v307z" />
    <glyph glyph-name="registered" unicode="&#xae;" horiz-adv-x="854" 
d="M463 1346q0 25 -27 26h-22v-51h22q27 0 27 25zM633 1358q0 -76 -53 -111l53 -151h-182l-31 125h-6v-125h-178v409h198q199 0 199 -147zM135 1293q0 -120 86 -206t207 -86t207 86t86 206t-86 206t-207 86t-207 -86t-86 -206zM836 1292q0 -168 -119 -286t-288 -119
q-169 1 -289 119t-120 287t120 288t289 119t288 -120t119 -288z" />
    <glyph glyph-name="macron" unicode="&#xaf;" horiz-adv-x="813" 
d="M762 1610v-254h-707v254h707z" />
    <glyph glyph-name="degree" unicode="&#xb0;" horiz-adv-x="673" 
d="M217 1368q0 -53 34 -87t87 -34t86 34t33 87t-33 86t-86 33t-87 -33t-34 -86zM27 1367q0 130 90 220t220 90t220 -90t90 -220t-90 -220t-220 -90t-220 90t-90 220z" />
    <glyph glyph-name="plusminus" unicode="&#xb1;" horiz-adv-x="1206" 
d="M1073 8h-942v311h942v-311zM1075 637h-278v-260h-391v260h-277v356h277v264h391v-264h278v-356z" />
    <glyph glyph-name="twosuperior" unicode="&#xb2;" horiz-adv-x="763" 
d="M366 1800q180 0 263 -72q84 -72 84 -176q-1 -104 -61 -171t-193 -152v-6h243l-4 -240h-632v182q49 43 112 99t124 108q95 83 95 137q0 47 -79 47t-205 -65l-70 227q143 82 323 82z" />
    <glyph glyph-name="threesuperior" unicode="&#xb3;" horiz-adv-x="763" 
d="M725 1225q0 -254 -379 -254q-170 0 -289 65l60 213q119 -51 217 -51t98 39q0 53 -178 53v193q140 0 166 23q10 9 10 26q0 35 -108 35t-209 -64l-66 215q135 82 306 82t263 -66t92 -176q0 -108 -100 -163v-4q117 -51 117 -166z" />
    <glyph glyph-name="acute" unicode="&#xb4;" horiz-adv-x="813" 
d="M340 1630h494l-254 -299h-326z" />
    <glyph glyph-name="mu" unicode="&#xb5;" horiz-adv-x="1218" 
d="M620 -16q-106 0 -163 84l-4 -2q20 -250 36 -369l-419 -29v1594h444v-801q0 -45 27 -73t71 -28q100 0 101 101v801h442v-1252l-309 -22l-47 63q-73 -67 -179 -67z" />
    <glyph glyph-name="paragraph" unicode="&#xb6;" horiz-adv-x="1433" 
d="M711 -328h-383v1246q-147 6 -239 89q-91 83 -91 224t94 223t252 82h1049l-17 -332h-135v-1532h-385v1532h-145v-1532z" />
    <glyph glyph-name="periodcentered" unicode="&#xb7;" horiz-adv-x="600" 
d="M537 705q-1 -103 -59 -161t-182 -58t-180 50q-56 52 -57 169q0 223 239 223t239 -223z" />
    <glyph glyph-name="cedilla" unicode="&#xb8;" horiz-adv-x="813" 
d="M168 -375l162 422l286 2l-63 -424h-385z" />
    <glyph glyph-name="onesuperior" unicode="&#xb9;" horiz-adv-x="583" 
d="M508 1790v-807h-303v485l-139 -67l-27 229l280 160h189z" />
    <glyph glyph-name="ordmasculine" unicode="&#xba;" horiz-adv-x="1005" 
d="M438 1302q-8 -52 -8 -210t29 -188q14 -15 51 -15t52 44t16 204q0 159 -16 203t-53 44q-38 0 -51 -15q-12 -15 -20 -67zM965 1137q0 -297 -110 -421q-109 -124 -351 -124t-352 124t-111 421q0 297 111 424q110 127 352 127t352 -127t109 -424z" />
    <glyph glyph-name="guillemotright" unicode="&#xbb;" horiz-adv-x="1333" 
d="M59 150v319l252 166l-252 166v319l674 -473v-24zM633 150v319l252 166l-252 166v319l674 -473v-24z" />
    <glyph glyph-name="onequarter" unicode="&#xbc;" horiz-adv-x="1763" 
d="M1243 1536h307l-964 -1536h-305zM1434 350l14 185l-12 2l-107 -181l6 -10zM1702 121v-121h-279v121h-387l-24 170l331 516h359v-457h63l-6 -229h-57zM600 1536v-807h-303v485l-139 -67l-27 229l281 160h188z" />
    <glyph glyph-name="onehalf" unicode="&#xbd;" horiz-adv-x="1763" 
d="M604 1536v-807h-303v485l-139 -67l-27 229l281 160h188zM1720 553q0 -86 -61 -154t-193 -153v-6h244l-4 -240h-633v182q49 43 144 126t142 129q46 46 46 91t-82 45t-203 -65l-69 227q139 82 320 82q181 1 265 -71t84 -193zM1188 1536h307l-965 -1536h-305z" />
    <glyph glyph-name="threequarters" unicode="&#xbe;" horiz-adv-x="1763" 
d="M748 973q0 -254 -379 -254q-176 0 -289 65l59 213q117 -53 217 -53t99 41q0 53 -179 53v193q143 0 166 21q10 9 11 26q1 35 -107 35t-211 -62l-65 213q133 84 305 84t264 -66t92 -176t-100 -165v-4q117 -51 117 -164zM1214 1536h308l-965 -1536h-305zM1305 350l14 185
l-12 2l-107 -181l6 -10zM1573 121v-121h-279v121h-387l-24 170l331 516h359v-457h63l-6 -229h-57z" />
    <glyph glyph-name="questiondown" unicode="&#xbf;" horiz-adv-x="929" 
d="M272 1174q0 92 58 145t176 53q119 0 174 -47t55 -151q1 -203 -231 -203t-232 203zM14 199q0 297 299 477l17 194h340l24 -350q-227 -117 -227 -244q0 -36 29 -60t82 -23q133 0 217 77l151 -344q-76 -57 -194 -93t-248 -36q-238 0 -364 109t-126 293z" />
    <glyph glyph-name="Agrave" unicode="&#xc0;" horiz-adv-x="1435" 
d="M911 1614h-356l-274 244h514zM705 1112l-97 -491h193l-64 325l-26 166h-6zM920 0l-46 233h-344l-45 -233h-503l436 1536h588l446 -1536h-532z" />
    <glyph glyph-name="Aacute" unicode="&#xc1;" horiz-adv-x="1435" 
d="M606 1855h549l-289 -245h-350zM705 1112l-97 -491h193l-64 325l-26 166h-6zM920 0l-46 233h-344l-45 -233h-503l436 1536h588l446 -1536h-532z" />
    <glyph glyph-name="Acircumflex" unicode="&#xc2;" horiz-adv-x="1435" 
d="M469 1855h469l192 -245h-378l-45 96h-5l-45 -96h-372zM705 1112l-97 -491h193l-64 325l-26 166h-6zM920 0l-46 233h-344l-45 -233h-503l436 1536h588l446 -1536h-532z" />
    <glyph glyph-name="Atilde" unicode="&#xc3;" horiz-adv-x="1435" 
d="M555 1882q97 0 197 -22t116 -23q39 0 41 25h195q-2 -123 -70 -195t-166 -72t-188 23t-107 22q-43 1 -47 -26h-204q2 120 68 194t165 74zM705 1112l-97 -491h193l-64 325l-26 166h-6zM920 0l-46 233h-344l-45 -233h-503l436 1536h588l446 -1536h-532z" />
    <glyph glyph-name="Adieresis" unicode="&#xc4;" horiz-adv-x="1435" 
d="M735 1753q0 156 175 156t175 -155t-176 -155q-90 0 -132 36t-42 118zM506 1909q174 0 174 -155t-174 -155q-90 0 -132 36t-42 118q0 156 174 156zM705 1112l-97 -491h193l-64 325l-26 166h-6zM920 0l-46 233h-344l-45 -233h-503l436 1536h588l446 -1536h-532z" />
    <glyph glyph-name="Aring" unicode="&#xc5;" horiz-adv-x="1435" 
d="M598 1626q0 -35 19 -48t87 -13t89 12q20 12 20 47t-20 50q-20 16 -87 16q-68 0 -88 -14t-20 -50zM705 1112l-97 -491h193l-64 325l-26 166h-6zM369 1648q0 108 72 167q73 59 257 59q338 0 338 -236q0 -74 -24 -122l440 -1516h-532l-46 233h-344l-45 -233h-503l424 1491
q-37 49 -37 157z" />
    <glyph glyph-name="AE" unicode="&#xc6;" horiz-adv-x="2009" 
d="M948 1178l-194 -560h200l-2 392l2 166zM1845 967v-371h-409l2 -193h536l-8 -403h-1005l-3 238h-337l-84 -238h-555l696 1536h1261l9 -408h-518l2 -161h413z" />
    <glyph glyph-name="Ccedilla" unicode="&#xc7;" horiz-adv-x="1105" 
d="M43 774q0 788 702 789q180 0 326 -54l-43 -395q-115 35 -254 35t-183 -75q-44 -76 -44 -308t46 -310q45 -78 189 -79q144 0 250 47l43 -381q-94 -43 -225 -59l-53 -359h-385l139 363q-256 42 -382 236t-126 550z" />
    <glyph glyph-name="Egrave" unicode="&#xc8;" horiz-adv-x="1153" 
d="M797 1614h-357l-274 244h514zM555 403h561l-8 -403h-1032v1536h1007l9 -410h-537v-159h434v-371h-434v-193z" />
    <glyph glyph-name="Eacute" unicode="&#xc9;" horiz-adv-x="1153" 
d="M492 1855h548l-288 -245h-351zM555 403h561l-8 -403h-1032v1536h1007l9 -410h-537v-159h434v-371h-434v-193z" />
    <glyph glyph-name="Ecircumflex" unicode="&#xca;" horiz-adv-x="1153" 
d="M354 1855h469l193 -245h-379l-45 96h-4l-45 -96h-373zM555 403h561l-8 -403h-1032v1536h1007l9 -410h-537v-159h434v-371h-434v-193z" />
    <glyph glyph-name="Edieresis" unicode="&#xcb;" horiz-adv-x="1153" 
d="M621 1753q0 156 175 156t175 -155t-176 -155q-90 0 -132 36t-42 118zM391 1909q174 0 174 -155t-174 -155q-90 0 -132 36t-42 118q0 156 174 156zM555 403h561l-8 -403h-1032v1536h1007l9 -410h-537v-159h434v-371h-434v-193z" />
    <glyph glyph-name="Igrave" unicode="&#xcc;" horiz-adv-x="671" 
d="M537 1614h-357l-274 244h514zM90 0v1536h492v-1536h-492z" />
    <glyph glyph-name="Iacute" unicode="&#xcd;" horiz-adv-x="671" 
d="M233 1855h549l-288 -245h-351zM90 0v1536h492v-1536h-492z" />
    <glyph glyph-name="Icircumflex" unicode="&#xce;" horiz-adv-x="671" 
d="M96 1855h469l193 -245h-379l-45 96h-4l-45 -96h-373zM90 0v1536h492v-1536h-492z" />
    <glyph glyph-name="Idieresis" unicode="&#xcf;" horiz-adv-x="671" 
d="M362 1753q0 156 176 156t175 -155q0 -155 -176 -155q-90 0 -133 36q-42 36 -42 118zM133 1909q174 0 174 -155t-174 -155q-90 0 -132 36t-42 118q0 156 174 156zM90 0v1536h492v-1536h-492z" />
    <glyph glyph-name="Eth" unicode="&#xd0;" horiz-adv-x="1402" 
d="M684 408q76 0 109 22t48 100t15 274t-32 258t-140 62h-102v-196h108v-271h-108v-249h102zM680 1536q362 0 521 -178t159 -586t-165 -590t-505 -182h-588v657h-84v271h84v608h578z" />
    <glyph glyph-name="Ntilde" unicode="&#xd1;" horiz-adv-x="1388" 
d="M543 1882q98 0 197 -22t127 -23q28 0 30 25h195q-2 -123 -70 -195t-166 -72t-188 23t-107 22q-43 1 -47 -26h-205q2 120 69 194t165 74zM1315 0h-340l-387 586l-88 141l-4 -2l2 -166v-559h-422v1536h395l420 -668l4 2l-4 164l2 502h422v-1536z" />
    <glyph glyph-name="Ograve" unicode="&#xd2;" horiz-adv-x="1429" 
d="M936 1614h-356l-275 244h514zM717 385q69 0 103 30q34 29 48 109t15 282q0 202 -33 270t-137 69q-70 0 -103 -28q-33 -29 -48 -107t-15 -279t34 -273t136 -73zM1386 763q0 -421 -160 -605t-507 -184q-348 0 -512 190t-164 605t161 603t511 188q351 0 511 -188t160 -609z
" />
    <glyph glyph-name="Oacute" unicode="&#xd3;" horiz-adv-x="1429" 
d="M614 1855h549l-289 -245h-350zM717 385q69 0 103 30q34 29 48 109t15 282q0 202 -33 270t-137 69q-70 0 -103 -28q-33 -29 -48 -107t-15 -279t34 -273t136 -73zM1386 763q0 -421 -160 -605t-507 -184q-348 0 -512 190t-164 605t161 603t511 188q351 0 511 -188t160 -609z
" />
    <glyph glyph-name="Ocircumflex" unicode="&#xd4;" horiz-adv-x="1429" 
d="M477 1855h469l193 -245h-379l-45 96h-4l-45 -96h-373zM717 385q69 0 103 30q34 29 48 109t15 282q0 202 -33 270t-137 69q-70 0 -103 -28q-33 -29 -48 -107t-15 -279t34 -273t136 -73zM1386 763q0 -421 -160 -605t-507 -184q-348 0 -512 190t-164 605t161 603t511 188
q351 0 511 -188t160 -609z" />
    <glyph glyph-name="Otilde" unicode="&#xd5;" horiz-adv-x="1429" 
d="M890 1843q28 0 30 25h194q-2 -123 -70 -195q-68 -71 -165 -71t-187 22t-120 23q-30 0 -35 -27h-205q2 121 68 195q68 73 166 73t197 -22t127 -23zM717 385q69 0 103 30q34 29 48 109t15 282q0 202 -33 270t-137 69q-70 0 -103 -28q-33 -29 -48 -107t-15 -279t34 -273
t136 -73zM1386 763q0 -421 -160 -605t-507 -184q-348 0 -512 190t-164 605t161 603t511 188q351 0 511 -188t160 -609z" />
    <glyph glyph-name="Odieresis" unicode="&#xd6;" horiz-adv-x="1429" 
d="M743 1753q-1 156 175 156t176 -155t-176 -155q-90 0 -133 36q-42 36 -42 118zM514 1909q174 0 174 -155t-174 -155q-90 0 -132 36t-42 118q0 156 174 156zM717 385q69 0 103 30q34 29 48 109t15 282q0 202 -33 270t-137 69q-70 0 -103 -28q-33 -29 -48 -107t-15 -279
t34 -273t136 -73zM1386 763q0 -421 -160 -605t-507 -184q-348 0 -512 190t-164 605t161 603t511 188q351 0 511 -188t160 -609z" />
    <glyph glyph-name="multiply" unicode="&#xd7;" horiz-adv-x="1169" 
d="M1067 428l-256 -258l-227 225l-224 -227l-256 258l224 227l-232 230l256 260l234 -234l233 234l256 -256l-235 -234z" />
    <glyph glyph-name="Oslash" unicode="&#xd8;" horiz-adv-x="1429" 
d="M547 768v-31l293 357q-33 51 -115 51t-115 -28q-33 -29 -48 -107t-15 -242zM885 768v25l-295 -357q33 -51 131 -51q98 1 131 73t33 310zM43 768q0 416 161 604t511 189q246 0 395 -91l76 97l223 -187l-104 -135q82 -178 81 -477q0 -426 -160 -610t-511 -185
q-242 0 -389 90l-80 -100l-228 178l111 144q-86 184 -86 483z" />
    <glyph glyph-name="Ugrave" unicode="&#xd9;" horiz-adv-x="1353" 
d="M883 1614h-357l-274 244h514zM1290 1536v-1012q0 -551 -610 -551q-307 1 -462 141t-155 410v1012h482v-1004q-1 -76 29 -108t106 -33q76 0 104 31t27 110v1004h479z" />
    <glyph glyph-name="Uacute" unicode="&#xda;" horiz-adv-x="1353" 
d="M578 1855h548l-288 -245h-351zM1290 1536v-1012q0 -551 -610 -551q-307 1 -462 141t-155 410v1012h482v-1004q-1 -76 29 -108t106 -33q76 0 104 31t27 110v1004h479z" />
    <glyph glyph-name="Ucircumflex" unicode="&#xdb;" horiz-adv-x="1353" 
d="M440 1855h469l193 -245h-379l-45 96h-4l-45 -96h-373zM1290 1536v-1012q0 -551 -610 -551q-307 1 -462 141t-155 410v1012h482v-1004q-1 -76 29 -108t106 -33q76 0 104 31t27 110v1004h479z" />
    <glyph glyph-name="Udieresis" unicode="&#xdc;" horiz-adv-x="1353" 
d="M707 1753q0 156 175 156t175 -155t-176 -155q-90 0 -132 36t-42 118zM477 1909q174 0 174 -155t-174 -155q-90 0 -132 36t-42 118q0 156 174 156zM1290 1536v-1012q0 -551 -610 -551q-307 1 -462 141t-155 410v1012h482v-1004q-1 -76 29 -108t106 -33q76 0 104 31t27 110
v1004h479z" />
    <glyph glyph-name="Yacute" unicode="&#xdd;" horiz-adv-x="1374" 
d="M594 1855h549l-289 -245h-350zM938 0h-489v449l-472 1087h533l143 -465l45 -158h7l40 160l134 463h518l-459 -1087v-449z" />
    <glyph glyph-name="Thorn" unicode="&#xde;" horiz-adv-x="1296" 
d="M768 762q0 108 -26 140t-113 32h-76v-340h78q81 0 109 30t28 138zM631 1321q337 0 485 -134q148 -135 148 -413t-150 -414t-483 -135h-76v-225h-479v1536h479v-215h76z" />
    <glyph glyph-name="germandbls" unicode="&#xdf;" horiz-adv-x="1312" 
d="M76 0v983q0 578 549 578q223 0 360 -113t137 -283q0 -80 -45 -163t-45 -102t40 -55t87 -76t87 -125t40 -189q0 -217 -136 -346t-353 -129q-150 0 -234 49l19 362q43 -29 133 -29q119 0 119 78t-138 176q-51 38 -94 98t-43 133t67 176t66 130q0 57 -78 57q-55 0 -74 -38
t-20 -152v-1020h-444z" />
    <glyph glyph-name="agrave" unicode="&#xe0;" horiz-adv-x="1132" 
d="M764 1331h-330l-260 299h494zM629 401v111q-41 10 -84 10q-92 0 -92 -102t79 -103q41 -1 69 21t28 63zM35 394q0 194 117 308t307 113q82 0 170 -18v18q0 109 -160 109t-324 -60l-34 340q187 78 455 78t386 -125t117 -403v-754h-340l-29 90q-116 -110 -290 -110t-275 110
q-100 110 -100 304z" />
    <glyph glyph-name="aacute" unicode="&#xe1;" horiz-adv-x="1132" 
d="M446 1630h494l-254 -299h-326zM629 401v111q-41 10 -84 10q-92 0 -92 -102t79 -103q41 -1 69 21t28 63zM35 394q0 194 117 308t307 113q82 0 170 -18v18q0 109 -160 109t-324 -60l-34 340q187 78 455 78t386 -125t117 -403v-754h-340l-29 90q-116 -110 -290 -110
t-275 110q-100 110 -100 304z" />
    <glyph glyph-name="acircumflex" unicode="&#xe2;" horiz-adv-x="1132" 
d="M373 1630h372l189 -299h-320l-47 111h-12l-47 -111h-320zM629 401v111q-41 10 -84 10q-92 0 -92 -102t79 -103q41 -1 69 21t28 63zM35 394q0 194 117 308t307 113q82 0 170 -18v18q0 109 -160 109t-324 -60l-34 340q187 78 455 78t386 -125t117 -403v-754h-340l-29 90
q-116 -110 -290 -110t-275 110q-100 110 -100 304z" />
    <glyph glyph-name="atilde" unicode="&#xe3;" horiz-adv-x="1132" 
d="M422 1647q94 0 173 -37t112 -37q41 0 55 53l192 -2q0 -135 -66 -218t-159 -83q-92 0 -172 37t-113 37q-45 -1 -53 -56l-194 2q2 133 66 219q65 85 159 85zM629 401v111q-41 10 -84 10q-92 0 -92 -102t79 -103q41 -1 69 21t28 63zM35 394q0 194 117 308t307 113
q82 0 170 -18v18q0 109 -160 109t-324 -60l-34 340q187 78 455 78t386 -125t117 -403v-754h-340l-29 90q-116 -110 -290 -110t-275 110q-100 110 -100 304z" />
    <glyph glyph-name="adieresis" unicode="&#xe4;" horiz-adv-x="1132" 
d="M596 1487q0 168 177 168t177 -167t-178 -167q-90 0 -133 39t-43 127zM184 1487q0 168 178 168t177 -167q0 -167 -177 -167q-92 0 -135 39t-43 127zM629 401v111q-41 10 -84 10q-92 0 -92 -102t79 -103q41 -1 69 21t28 63zM35 394q0 194 117 308t307 113q82 0 170 -18v18
q0 109 -160 109t-324 -60l-34 340q187 78 455 78t386 -125t117 -403v-754h-340l-29 90q-116 -110 -290 -110t-275 110q-100 110 -100 304z" />
    <glyph glyph-name="aring" unicode="&#xe5;" horiz-adv-x="1132" 
d="M471 1511q0 -25 18 -35q19 -10 75 -10t76 10t22 36q0 24 -18 35t-76 11t-78 -10q-20 -12 -19 -37zM864 1513q0 -104 -70 -151t-230 -47q-158 1 -230 45t-72 148t69 154q69 52 230 52q303 0 303 -201zM629 401v111q-41 10 -84 10q-92 0 -92 -102t79 -103q41 -1 69 21
t28 63zM35 394q0 194 117 308t307 113q82 0 170 -18v18q0 109 -160 109t-324 -60l-34 340q187 78 455 78t386 -125t117 -403v-754h-340l-29 90q-116 -110 -290 -110t-275 110q-100 110 -100 304z" />
    <glyph glyph-name="ae" unicode="&#xe6;" horiz-adv-x="1705" 
d="M1156 930q-58 0 -80 -29t-29 -125h217q-2 86 -26 120t-82 34zM629 401v111q-41 10 -84 10q-92 0 -92 -102t79 -103q41 -1 69 21t28 63zM542 1282q230 0 335 -92q125 92 309 92q229 0 358 -145t129 -439q0 -84 -12 -206h-606q14 -78 69 -112q56 -34 194 -34t281 51
l48 -350q-176 -67 -426 -67t-404 139q-133 -139 -360 -139q-422 0 -422 430q0 178 117 292t307 113q82 0 170 -18v18q0 109 -160 109t-324 -60l-34 340q201 78 431 78z" />
    <glyph glyph-name="ccedilla" unicode="&#xe7;" horiz-adv-x="929" 
d="M618 1280q164 0 273 -43l-23 -358q-82 20 -149 20q-133 0 -179 -59t-46 -211q0 -151 57 -221t147 -70t176 24l29 -329q-57 -33 -164 -49l-53 -359h-385l141 369q-410 88 -409 622q0 664 585 664z" />
    <glyph glyph-name="egrave" unicode="&#xe8;" horiz-adv-x="1144" 
d="M795 1331h-330l-260 299h493zM596 930q-57 0 -79 -29t-30 -125h215q-2 86 -25 120q-24 34 -81 34zM678 -20q-645 0 -645 651t561 651q518 0 518 -584q0 -115 -12 -206h-606q14 -78 70 -112t192 -34t282 43l47 -342q-176 -67 -407 -67z" />
    <glyph glyph-name="eacute" unicode="&#xe9;" horiz-adv-x="1144" 
d="M479 1630h494l-254 -299h-326zM596 930q-57 0 -79 -29t-30 -125h215q-2 86 -25 120q-24 34 -81 34zM678 -20q-645 0 -645 651t561 651q518 0 518 -584q0 -115 -12 -206h-606q14 -78 70 -112t192 -34t282 43l47 -342q-176 -67 -407 -67z" />
    <glyph glyph-name="ecircumflex" unicode="&#xea;" horiz-adv-x="1144" 
d="M406 1630h372l189 -299h-320l-47 111h-12l-47 -111h-320zM596 930q-57 0 -79 -29t-30 -125h215q-2 86 -25 120q-24 34 -81 34zM678 -20q-645 0 -645 651t561 651q518 0 518 -584q0 -115 -12 -206h-606q14 -78 70 -112t192 -34t282 43l47 -342q-176 -67 -407 -67z" />
    <glyph glyph-name="edieresis" unicode="&#xeb;" horiz-adv-x="1144" 
d="M604 1487q0 168 177 168t177 -167t-178 -167q-90 0 -133 39t-43 127zM193 1487q0 168 177 168t177 -167t-176 -167q-92 0 -135 39t-43 127zM596 930q-57 0 -79 -29t-30 -125h215q-2 86 -25 120q-24 34 -81 34zM678 -20q-645 0 -645 651t561 651q518 0 518 -584
q0 -115 -12 -206h-606q14 -78 70 -112t192 -34t282 43l47 -342q-176 -67 -407 -67z" />
    <glyph glyph-name="igrave" unicode="&#xec;" horiz-adv-x="630" 
d="M526 1331h-329l-260 299h493zM543 0h-455v1251l455 19v-1270z" />
    <glyph glyph-name="iacute" unicode="&#xed;" horiz-adv-x="630" 
d="M211 1630h494l-254 -299h-326zM543 0h-455v1251l455 19v-1270z" />
    <glyph glyph-name="icircumflex" unicode="&#xee;" horiz-adv-x="630" 
d="M137 1630h373l188 -299h-319l-47 111h-13l-47 -111h-319zM543 0h-455v1251l455 19v-1270z" />
    <glyph glyph-name="idieresis" unicode="&#xef;" horiz-adv-x="630" 
d="M354 1487q0 168 178 168t177 -167q0 -167 -179 -167q-90 0 -133 39t-43 127zM-57 1487q0 168 177 168t177 -167t-176 -167q-92 0 -135 39t-43 127zM543 0h-455v1251l455 19v-1270z" />
    <glyph glyph-name="eth" unicode="&#xf0;" horiz-adv-x="1218" 
d="M496 544q0 -124 22 -169t86 -45q62 0 90 55t27 174q0 119 -30 152t-91 33t-83 -38q-21 -38 -21 -162zM1186 690q0 -379 -139 -545t-443 -165q-252 0 -402 120q-169 138 -169 486q0 252 125 382t334 130q98 0 172 -27l4 4q-49 70 -101 123l-159 -82l-148 170l127 68
q-61 45 -137 86l325 182q80 -47 138 -94l161 88l146 -186l-131 -68q135 -152 216 -327t81 -345z" />
    <glyph glyph-name="ntilde" unicode="&#xf1;" horiz-adv-x="1220" 
d="M486 1647q94 0 172 -37t112 -37q41 0 55 53l193 -2q0 -135 -67 -218t-159 -83t-172 37t-112 37q-45 -1 -53 -56l-195 2q2 133 67 219t159 85zM1157 0h-444v795q0 117 -95 116q-66 0 -104 -45v-866h-444v1255l321 17l55 -88q130 102 310 102t291 -129t110 -362v-795z" />
    <glyph glyph-name="ograve" unicode="&#xf2;" horiz-adv-x="1216" 
d="M809 1331h-330l-260 299h494zM494 626q0 -196 24 -253t92 -57t90 56q22 58 23 223q0 165 -11 231t-34 88q-22 22 -80 22t-81 -57t-23 -253zM1182 625q0 -352 -136 -503t-438 -151t-438 151q-137 151 -137 502q0 350 138 506t438 156t437 -154q136 -155 136 -507z" />
    <glyph glyph-name="oacute" unicode="&#xf3;" horiz-adv-x="1216" 
d="M494 1630h493l-254 -299h-325zM494 626q0 -196 24 -253t92 -57t90 56q22 58 23 223q0 165 -11 231t-34 88q-22 22 -80 22t-81 -57t-23 -253zM1182 625q0 -352 -136 -503t-438 -151t-438 151q-137 151 -137 502q0 350 138 506t438 156t437 -154q136 -155 136 -507z" />
    <glyph glyph-name="ocircumflex" unicode="&#xf4;" horiz-adv-x="1216" 
d="M420 1630h373l188 -299h-319l-48 111h-12l-47 -111h-319zM494 626q0 -196 24 -253t92 -57t90 56q22 58 23 223q0 165 -11 231t-34 88q-22 22 -80 22t-81 -57t-23 -253zM1182 625q0 -352 -136 -503t-438 -151t-438 151q-137 151 -137 502q0 350 138 506t438 156t437 -154
q136 -155 136 -507z" />
    <glyph glyph-name="otilde" unicode="&#xf5;" horiz-adv-x="1216" 
d="M469 1647q94 0 173 -37t112 -37q41 0 55 53l192 -2q-1 -135 -67 -218t-158 -83t-172 37t-112 37q-46 -1 -54 -56l-194 2q2 133 66 219q65 85 159 85zM494 626q0 -196 24 -253t92 -57t90 56q22 58 23 223q0 165 -11 231t-34 88q-22 22 -80 22t-81 -57t-23 -253zM1182 625
q0 -352 -136 -503t-438 -151t-438 151q-137 151 -137 502q0 350 138 506t438 156t437 -154q136 -155 136 -507z" />
    <glyph glyph-name="odieresis" unicode="&#xf6;" horiz-adv-x="1216" 
d="M637 1487q0 168 177 168t177 -167t-178 -167q-90 0 -133 39t-43 127zM225 1487q-1 168 177 168t178 -167t-177 -167q-92 0 -135 39t-43 127zM494 626q0 -196 24 -253t92 -57t90 56q22 58 23 223q0 165 -11 231t-34 88q-22 22 -80 22t-81 -57t-23 -253zM1182 625
q0 -352 -136 -503t-438 -151t-438 151q-137 151 -137 502q0 350 138 506t438 156t437 -154q136 -155 136 -507z" />
    <glyph glyph-name="divide" unicode="&#xf7;" horiz-adv-x="1169" 
d="M1075 481h-981v383h981v-383zM850 238q0 -98 -69 -148t-197 -51q-128 0 -192 44q-65 44 -64 155q0 203 261 203t261 -203zM850 1108q0 -98 -69 -150t-197 -51q-128 0 -192 45q-65 45 -64 156q0 203 261 203t261 -203z" />
    <glyph glyph-name="oslash" unicode="&#xf8;" horiz-adv-x="1216" 
d="M607 936q-67 0 -91 -52t-24 -233l204 234q-22 51 -89 51zM604 315q68 -1 94 57q25 58 29 246l-213 -239q22 -64 90 -64zM33 625q0 352 138 507t437 154q197 0 320 -65l63 79l183 -149l-76 -96q84 -150 84 -430q0 -352 -136 -503t-438 -151q-201 0 -327 64l-64 -80
l-184 149l80 101q-80 145 -80 420z" />
    <glyph glyph-name="ugrave" unicode="&#xf9;" horiz-adv-x="1212" 
d="M809 1331h-330l-260 299h494zM1149 1262v-799q0 -246 -134 -365t-409 -118q-543 0 -543 483v799h445v-797q0 -57 22 -84t77 -27q54 0 77 26t23 85v797h442z" />
    <glyph glyph-name="uacute" unicode="&#xfa;" horiz-adv-x="1212" 
d="M494 1630h493l-254 -299h-325zM1149 1262v-799q0 -246 -134 -365t-409 -118q-543 0 -543 483v799h445v-797q0 -57 22 -84t77 -27q54 0 77 26t23 85v797h442z" />
    <glyph glyph-name="ucircumflex" unicode="&#xfb;" horiz-adv-x="1212" 
d="M420 1630h373l188 -299h-319l-48 111h-12l-47 -111h-319zM1149 1262v-799q0 -246 -134 -365t-409 -118q-543 0 -543 483v799h445v-797q0 -57 22 -84t77 -27q54 0 77 26t23 85v797h442z" />
    <glyph glyph-name="udieresis" unicode="&#xfc;" horiz-adv-x="1212" 
d="M635 1487q0 168 177 168t177 -167t-178 -167q-90 0 -133 39t-43 127zM223 1487q-1 168 177 168t178 -167t-177 -167q-92 0 -135 39t-43 127zM1149 1262v-799q0 -246 -134 -365t-409 -118q-543 0 -543 483v799h445v-797q0 -57 22 -84t77 -27q54 0 77 26t23 85v797h442z
" />
    <glyph glyph-name="yacute" unicode="&#xfd;" horiz-adv-x="1280" 
d="M547 1630h493l-254 -299h-325zM326 -35q123 0 153 80l4 12l-489 1205h502l190 -721h6l25 164l102 557h469l-370 -1209q-121 -397 -510 -397q-131 0 -226 37l33 293q60 -21 111 -21z" />
    <glyph glyph-name="thorn" unicode="&#xfe;" horiz-adv-x="1222" 
d="M616 334q59 0 86 60t27 238q0 177 -20 227q-21 50 -89 50t-100 -57v-455q37 -63 96 -63zM770 1282q204 0 312 -150t108 -480q0 -328 -122 -498t-331 -170q-127 0 -217 51v-348h-444v1892l442 20v-237l-4 -164l6 -4q111 88 250 88z" />
    <glyph glyph-name="ydieresis" unicode="&#xff;" horiz-adv-x="1280" 
d="M674 1487q0 168 177 168t177 -167t-178 -167q-90 0 -133 39t-43 127zM262 1487q0 168 177 168t177 -167t-176 -167q-92 0 -135 39t-43 127zM326 -35q123 0 153 80l4 12l-489 1205h502l190 -721h6l25 164l102 557h469l-370 -1209q-121 -397 -510 -397q-131 0 -226 37
l33 293q60 -21 111 -21z" />
    <glyph glyph-name="Amacron" unicode="&#x100;" horiz-adv-x="1435" 
d="M1065 1833v-207h-709v207h709zM705 1112l-97 -491h193l-64 325l-26 166h-6zM920 0l-46 233h-344l-45 -233h-503l436 1536h588l446 -1536h-532z" />
    <glyph glyph-name="amacron" unicode="&#x101;" horiz-adv-x="1132" 
d="M913 1610v-254h-706v254h706zM629 401v111q-41 10 -84 10q-92 0 -92 -102t79 -103q41 -1 69 21t28 63zM35 394q0 194 117 308t307 113q82 0 170 -18v18q0 109 -160 109t-324 -60l-34 340q187 78 455 78t386 -125t117 -403v-754h-340l-29 90q-116 -110 -290 -110t-275 110
q-100 110 -100 304z" />
    <glyph glyph-name="Abreve" unicode="&#x102;" horiz-adv-x="1435" 
d="M758 1855h325q0 -258 -376 -258q-199 0 -285 67t-86 191h323q-1 -47 49 -47t50 47zM705 1112l-97 -491h193l-64 325l-26 166h-6zM920 0l-46 233h-344l-45 -233h-503l436 1536h588l446 -1536h-532z" />
    <glyph glyph-name="abreve" unicode="&#x103;" horiz-adv-x="1132" 
d="M614 1630h293q0 -317 -352 -317q-188 0 -267 81t-79 236h285q2 -102 61 -102t59 102zM629 401v111q-41 10 -84 10q-92 0 -92 -102t79 -103q41 -1 69 21t28 63zM35 394q0 194 117 308t307 113q82 0 170 -18v18q0 109 -160 109t-324 -60l-34 340q187 78 455 78t386 -125
t117 -403v-754h-340l-29 90q-116 -110 -290 -110t-275 110q-100 110 -100 304z" />
    <glyph glyph-name="Aogonek" unicode="&#x104;" horiz-adv-x="1435" 
d="M705 1112l-97 -491h193l-64 325l-26 166h-6zM1296 -76q0 -53 80 -53q41 0 72 14l35 -221q-101 -49 -237 -49t-208 53t-71 144q0 123 102 188h-149l-46 233h-344l-45 -233h-503l436 1536h588l446 -1536h-59q-39 -2 -68 -25t-29 -51z" />
    <glyph glyph-name="aogonek" unicode="&#x105;" horiz-adv-x="1132" 
d="M629 401v111q-41 10 -84 10q-92 0 -92 -102t79 -103q41 -1 69 21t28 63zM35 394q0 194 117 308t307 113q82 0 170 -18v18q0 109 -160 109t-324 -60l-34 340q187 78 455 78t386 -125t117 -403v-754q-82 -14 -82 -76q0 -53 80 -53q41 0 72 14l35 -221q-102 -49 -238 -49
t-207 53q-72 53 -72 144q0 123 103 188h-31l-29 90q-116 -110 -290 -110t-275 110q-100 110 -100 304z" />
    <glyph glyph-name="Cacute" unicode="&#x106;" horiz-adv-x="1105" 
d="M575 1855h549l-288 -245h-351zM774 1149q-139 0 -183 -75q-44 -76 -44 -308t46 -310q45 -78 189 -79q144 0 250 47l43 -381q-160 -70 -356 -70q-340 0 -508 196t-168 605q0 788 702 789q181 -1 326 -54l-43 -395q-115 35 -254 35z" />
    <glyph glyph-name="cacute" unicode="&#x107;" horiz-adv-x="929" 
d="M465 1630h493l-253 -299h-326zM719 899q-133 0 -179 -59t-46 -211q0 -151 57 -221t147 -70t176 24l29 -329q-104 -57 -291 -58q-280 0 -430 163t-149 478q0 664 585 664q164 0 273 -43l-23 -358q-82 20 -149 20z" />
    <glyph glyph-name="Ccircumflex" unicode="&#x108;" horiz-adv-x="1105" 
d="M438 1855h469l193 -245h-379l-45 96h-4l-45 -96h-373zM774 1149q-139 0 -183 -75q-44 -76 -44 -308t46 -310q45 -78 189 -79q144 0 250 47l43 -381q-160 -70 -356 -70q-340 0 -508 196t-168 605q0 788 702 789q181 -1 326 -54l-43 -395q-115 35 -254 35z" />
    <glyph glyph-name="ccircumflex" unicode="&#x109;" horiz-adv-x="929" 
d="M377 1630h373l188 -299h-320l-47 111h-12l-47 -111h-319zM719 899q-133 0 -179 -59t-46 -211q0 -151 57 -221t147 -70t176 24l29 -329q-104 -57 -291 -58q-280 0 -430 163t-149 478q0 664 585 664q164 0 273 -43l-23 -358q-82 20 -149 20z" />
    <glyph glyph-name="Cdotaccent" unicode="&#x10a;" horiz-adv-x="1105" 
d="M926 1737q0 -76 -56 -111t-193 -35q-138 0 -194 33q-55 33 -55 111q0 77 57 113t193 36t192 -36t56 -111zM774 1149q-139 0 -183 -75q-44 -76 -44 -308t46 -310q45 -78 189 -79q144 0 250 47l43 -381q-160 -70 -356 -70q-340 0 -508 196t-168 605q0 788 702 789
q181 -1 326 -54l-43 -395q-115 35 -254 35z" />
    <glyph glyph-name="cdotaccent" unicode="&#x10b;" horiz-adv-x="929" 
d="M344 1487q0 168 234 168t235 -167q0 -167 -233 -167q-121 0 -179 39q-57 39 -57 127zM719 899q-133 0 -179 -59t-46 -211q0 -151 57 -221t147 -70t176 24l29 -329q-104 -57 -291 -58q-280 0 -430 163t-149 478q0 664 585 664q164 0 273 -43l-23 -358q-82 20 -149 20z" />
    <glyph glyph-name="Ccaron" unicode="&#x10c;" horiz-adv-x="1105" 
d="M909 1610h-469l-184 245h375l45 -100h4l45 100h375zM774 1149q-139 0 -183 -75q-44 -76 -44 -308t46 -310q45 -78 189 -79q144 0 250 47l43 -381q-160 -70 -356 -70q-340 0 -508 196t-168 605q0 788 702 789q181 -1 326 -54l-43 -395q-115 35 -254 35z" />
    <glyph glyph-name="ccaron" unicode="&#x10d;" horiz-adv-x="929" 
d="M756 1331h-375l-182 299h319l45 -123h12l46 123h323zM719 899q-133 0 -179 -59t-46 -211q0 -151 57 -221t147 -70t176 24l29 -329q-104 -57 -291 -58q-280 0 -430 163t-149 478q0 664 585 664q164 0 273 -43l-23 -358q-82 20 -149 20z" />
    <glyph glyph-name="Dcaron" unicode="&#x10e;" horiz-adv-x="1376" 
d="M817 1610h-469l-184 245h375l45 -100h4l45 100h375zM657 408q76 0 109 22t48 100t15 274t-31 259q-32 61 -141 61h-102v-716h102zM1333 772q0 -408 -165 -590t-504 -182h-588v1536h577q362 0 522 -177q158 -179 158 -587z" />
    <glyph glyph-name="dcaron" unicode="&#x10f;" horiz-adv-x="1222" 
d="M1180 1421q0 127 172 127t172 -153q0 -109 -189 -224l-102 43l33 89q-86 27 -86 118zM604 907q-62 0 -86 -56t-24 -235t21 -235q22 -55 90 -55t97 59v477q-36 45 -98 45zM1147 0h-346l-35 86q-113 -109 -283 -109q-451 0 -450 664q0 311 114 478q115 167 324 167
q131 0 231 -80l5 4l-5 164v205l445 20v-1599z" />
    <glyph glyph-name="Dcroat" unicode="&#x110;" horiz-adv-x="1406" 
d="M688 408q76 0 109 22t48 100t15 274t-32 258t-140 62h-102v-198h104v-283h-104v-235h102zM684 1536q362 0 521 -178t159 -586t-165 -590t-505 -182h-588v643h-88v283h88v610h578z" />
    <glyph glyph-name="dcroat" unicode="&#x111;" horiz-adv-x="1253" 
d="M604 907q-62 0 -86 -56t-24 -235t21 -235q22 -55 90 -55t97 59v477q-36 45 -98 45zM1147 0h-346l-35 86q-113 -109 -283 -109q-451 0 -450 664q0 311 114 478q115 167 324 167q131 0 227 -78l4 2v84h-71v226h71v59l445 20v-79h88v-226h-88v-1294z" />
    <glyph glyph-name="Emacron" unicode="&#x112;" horiz-adv-x="1153" 
d="M950 1833v-207h-708v207h708zM555 403h561l-8 -403h-1032v1536h1007l9 -410h-537v-159h434v-371h-434v-193z" />
    <glyph glyph-name="emacron" unicode="&#x113;" horiz-adv-x="1144" 
d="M946 1610v-254h-706v254h706zM596 930q-57 0 -79 -29t-30 -125h215q-2 86 -25 120q-24 34 -81 34zM678 -20q-645 0 -645 651t561 651q518 0 518 -584q0 -115 -12 -206h-606q14 -78 70 -112t192 -34t282 43l47 -342q-176 -67 -407 -67z" />
    <glyph glyph-name="Ebreve" unicode="&#x114;" horiz-adv-x="1153" 
d="M645 1855h326q0 -258 -377 -258q-199 0 -285 67t-86 191h324q0 -47 49 -47t49 47zM555 403h561l-8 -403h-1032v1536h1007l9 -410h-537v-159h434v-371h-434v-193z" />
    <glyph glyph-name="ebreve" unicode="&#x115;" horiz-adv-x="1144" 
d="M647 1630h293q0 -317 -352 -317q-188 0 -267 81t-79 236h284q2 -102 62 -102t59 102zM596 930q-57 0 -79 -29t-30 -125h215q-2 86 -25 120q-24 34 -81 34zM678 -20q-645 0 -645 651t561 651q518 0 518 -584q0 -115 -12 -206h-606q14 -78 70 -112t192 -34t282 43l47 -342
q-176 -67 -407 -67z" />
    <glyph glyph-name="Edotaccent" unicode="&#x116;" horiz-adv-x="1153" 
d="M842 1737q0 -76 -56 -111t-193 -35q-138 0 -194 33q-55 33 -55 111q0 77 57 113t193 36t192 -36t56 -111zM555 403h561l-8 -403h-1032v1536h1007l9 -410h-537v-159h434v-371h-434v-193z" />
    <glyph glyph-name="edotaccent" unicode="&#x117;" horiz-adv-x="1144" 
d="M592 1655q234 0 235 -167q0 -167 -233 -167q-121 0 -178 39t-58 127q0 168 234 168zM596 930q-57 0 -79 -29t-30 -125h215q-2 86 -25 120q-24 34 -81 34zM678 -20q-645 0 -645 651t561 651q518 0 518 -584q0 -115 -12 -206h-606q14 -78 70 -112t192 -34t282 43l47 -342
q-176 -67 -407 -67z" />
    <glyph glyph-name="Eogonek" unicode="&#x118;" horiz-adv-x="1153" 
d="M555 403h561l-8 -403h-64q-40 -2 -68 -25t-28 -51q0 -53 80 -53q41 0 72 14l35 -221q-101 -49 -237 -49t-208 53t-72 144q0 123 103 188h-645v1536h1007l9 -410h-537v-159h434v-371h-434v-193z" />
    <glyph glyph-name="eogonek" unicode="&#x119;" horiz-adv-x="1144" 
d="M596 930q-57 0 -79 -29t-30 -125h215q-2 86 -25 120q-24 34 -81 34zM674 -399q-135 0 -207 53t-72 143q0 125 115 201q-477 72 -477 635q0 649 561 649q518 0 518 -584q0 -115 -12 -206h-606q14 -78 70 -112t192 -34t282 43l47 -342q-111 -43 -278 -61q-82 -14 -82 -76
q0 -53 80 -53q41 0 72 14l34 -221q-102 -49 -237 -49z" />
    <glyph glyph-name="Ecaron" unicode="&#x11a;" horiz-adv-x="1153" 
d="M825 1610h-469l-184 245h375l45 -100h4l45 100h375zM555 403h561l-8 -403h-1032v1536h1007l9 -410h-537v-159h434v-371h-434v-193z" />
    <glyph glyph-name="ecaron" unicode="&#x11b;" horiz-adv-x="1144" 
d="M780 1331h-374l-183 299h320l45 -123h12l45 123h324zM596 930q-57 0 -79 -29t-30 -125h215q-2 86 -25 120q-24 34 -81 34zM678 -20q-645 0 -645 651t561 651q518 0 518 -584q0 -115 -12 -206h-606q14 -78 70 -112t192 -34t282 43l47 -342q-176 -67 -407 -67z" />
    <glyph glyph-name="Gcircumflex" unicode="&#x11c;" horiz-adv-x="1271" 
d="M487 1855h469l193 -245h-379l-45 96h-4l-45 -96h-373zM1210 844v-789q-182 -84 -452 -84q-385 0 -550 199t-165 600t177 597t558 196q236 0 414 -66l-43 -397q-160 55 -335 55t-221 -73q-46 -72 -46 -312t38 -312t158 -73q27 0 39 2v457h428z" />
    <glyph glyph-name="gcircumflex" unicode="&#x11d;" horiz-adv-x="1163" 
d="M399 1630h373l189 -299h-320l-47 111h-12l-47 -111h-320zM561 967q-37 1 -51 -19t-14 -74t12 -74q12 -22 50 -22t52 18t14 75q0 56 -12 76q-14 20 -51 20zM426 36q0 -54 126 -54t167 10t41 37q0 19 -16 27t-58 10l-250 16q-10 -20 -10 -46zM559 489q-37 0 -98 5
q-8 -10 -8 -25q0 -31 51 -33l262 -12q201 -10 297 -93t96 -243q0 -200 -147 -312t-425 -112t-407 88t-129 234q0 100 76 174q-88 74 -88 188q0 156 149 240q-131 102 -131 288t122 298q122 111 376 110q184 0 301 -57l209 57l96 -203l-119 -102q10 -51 11 -96
q0 -394 -494 -394z" />
    <glyph glyph-name="Gbreve" unicode="&#x11e;" horiz-adv-x="1271" 
d="M778 1855h326q0 -258 -377 -258q-199 0 -285 67t-86 191h324q0 -47 49 -47t49 47zM1210 844v-789q-182 -84 -452 -84q-385 0 -550 199t-165 600t177 597t558 196q236 0 414 -66l-43 -397q-160 55 -335 55t-221 -73q-46 -72 -46 -312t38 -312t158 -73q27 0 39 2v457h428z
" />
    <glyph glyph-name="gbreve" unicode="&#x11f;" horiz-adv-x="1163" 
d="M645 1630h293q0 -317 -352 -317q-188 0 -268 81q-79 81 -78 236h284q2 -102 62 -102t59 102zM561 967q-37 1 -51 -19t-14 -74t12 -74q12 -22 50 -22t52 18t14 75q0 56 -12 76q-14 20 -51 20zM426 36q0 -54 126 -54t167 10t41 37q0 19 -16 27t-58 10l-250 16
q-10 -20 -10 -46zM559 489q-37 0 -98 5q-8 -10 -8 -25q0 -31 51 -33l262 -12q201 -10 297 -93t96 -243q0 -200 -147 -312t-425 -112t-407 88t-129 234q0 100 76 174q-88 74 -88 188q0 156 149 240q-131 102 -131 288t122 298q122 111 376 110q184 0 301 -57l209 57l96 -203
l-119 -102q10 -51 11 -96q0 -394 -494 -394z" />
    <glyph glyph-name="Gdotaccent" unicode="&#x120;" horiz-adv-x="1271" 
d="M1006 1737q0 -76 -56 -111t-193 -35q-138 0 -194 33q-55 33 -55 111q0 77 57 113t193 36t192 -36t56 -111zM1210 844v-789q-182 -84 -452 -84q-385 0 -550 199t-165 600t177 597t558 196q236 0 414 -66l-43 -397q-160 55 -335 55t-221 -73q-46 -72 -46 -312t38 -312
t158 -73q27 0 39 2v457h428z" />
    <glyph glyph-name="gdotaccent" unicode="&#x121;" horiz-adv-x="1163" 
d="M586 1655q234 0 235 -167q0 -167 -233 -167q-121 0 -178 39t-58 127q0 168 234 168zM561 967q-37 1 -51 -19t-14 -74t12 -74q12 -22 50 -22t52 18t14 75q0 56 -12 76q-14 20 -51 20zM426 36q0 -54 126 -54t167 10t41 37q0 19 -16 27t-58 10l-250 16q-10 -20 -10 -46z
M559 489q-37 0 -98 5q-8 -10 -8 -25q0 -31 51 -33l262 -12q201 -10 297 -93t96 -243q0 -200 -147 -312t-425 -112t-407 88t-129 234q0 100 76 174q-88 74 -88 188q0 156 149 240q-131 102 -131 288t122 298q122 111 376 110q184 0 301 -57l209 57l96 -203l-119 -102
q10 -51 11 -96q0 -394 -494 -394z" />
    <glyph glyph-name="Gcommaaccent" unicode="&#x122;" horiz-adv-x="1271" 
d="M769 -53q228 0 228 -150q0 -104 -249 -215l-136 41l41 86q-113 27 -112 115q0 123 228 123zM1210 844v-789q-182 -84 -452 -84q-385 0 -550 199t-165 600t177 597t558 196q236 0 414 -66l-43 -397q-160 55 -335 55t-221 -73q-46 -72 -46 -312t38 -312t158 -73q27 0 39 2
v457h428z" />
    <glyph glyph-name="gcommaaccent" unicode="&#x123;" horiz-adv-x="1163" 
d="M756 1485q0 -125 -172 -125t-172 151q0 111 188 226l102 -43l-32 -88q86 -31 86 -121zM561 967q-37 1 -51 -19t-14 -74t12 -74q12 -22 50 -22t52 18t14 75q0 56 -12 76q-14 20 -51 20zM426 36q0 -54 126 -54t167 10t41 37q0 19 -16 27t-58 10l-250 16q-10 -20 -10 -46z
M559 489q-37 0 -98 5q-8 -10 -8 -25q0 -31 51 -33l262 -12q201 -10 297 -93t96 -243q0 -200 -147 -312t-425 -112t-407 88t-129 234q0 100 76 174q-88 74 -88 188q0 156 149 240q-131 102 -131 288t122 298q122 111 376 110q184 0 301 -57l209 57l96 -203l-119 -102
q10 -51 11 -96q0 -394 -494 -394z" />
    <glyph glyph-name="Hcircumflex" unicode="&#x124;" horiz-adv-x="1378" 
d="M451 1855h469l192 -245h-379l-45 96h-4l-45 -96h-373zM1303 0h-480v569h-268v-569h-479v1536h479v-553h268v553h480v-1536z" />
    <glyph glyph-name="hcircumflex" unicode="&#x125;" horiz-adv-x="1226" 
d="M78 1894h469l192 -245h-379l-45 96h-4l-45 -96h-372zM717 795q0 118 -94 116q-68 0 -103 -45v-866h-444v1579l444 20v-219l-4 -163l6 -5q104 74 248 74q180 0 286 -131t107 -360v-795h-446v795z" />
    <glyph glyph-name="Hbar" unicode="&#x126;" horiz-adv-x="1402" 
d="M565 983h269v137h-269v-137zM1313 0h-479v569h-269v-569h-479v1120h-51v244h51v172h479v-172h269v172h479v-172h88v-244h-88v-1120z" />
    <glyph glyph-name="hbar" unicode="&#x127;" horiz-adv-x="1243" 
d="M1180 0h-447v795q0 61 -22 89q-23 28 -81 28t-93 -46v-866h-445v1294h-82v209h82v76l445 20v-96h79v-209h-79v-77l6 -3q100 72 243 72q180 0 286 -131t108 -360v-795z" />
    <glyph glyph-name="Itilde" unicode="&#x128;" horiz-adv-x="671" 
d="M182 1882q98 0 198 -22q99 -22 127 -23q28 0 30 25h194q-1 -123 -69 -195t-166 -72t-189 23q-90 23 -106 22q-43 1 -47 -26h-205q3 120 69 194t164 74zM90 0v1536h492v-1536h-492z" />
    <glyph glyph-name="itilde" unicode="&#x129;" horiz-adv-x="630" 
d="M176 1647q94 0 173 -37t112 -37q41 0 55 53l193 -2q0 -135 -67 -218t-159 -83t-172 37t-112 37q-46 -1 -54 -56l-194 2q2 133 66 219q65 85 159 85zM543 0h-455v1251l455 19v-1270z" />
    <glyph glyph-name="Imacron" unicode="&#x12a;" horiz-adv-x="671" 
d="M692 1833v-207h-708v207h708zM90 0v1536h492v-1536h-492z" />
    <glyph glyph-name="imacron" unicode="&#x12b;" horiz-adv-x="630" 
d="M680 1610v-254h-707v254h707zM543 0h-455v1251l455 19v-1270z" />
    <glyph glyph-name="Ibreve" unicode="&#x12c;" horiz-adv-x="671" 
d="M385 1855h326q0 -258 -377 -258q-199 0 -285 67t-86 191h324q0 -47 49 -47t49 47zM90 0v1536h492v-1536h-492z" />
    <glyph glyph-name="ibreve" unicode="&#x12d;" horiz-adv-x="630" 
d="M379 1630h293q0 -317 -353 -317q-188 0 -267 81t-79 236h285q2 -102 62 -102t59 102zM543 0h-455v1251l455 19v-1270z" />
    <glyph glyph-name="Iogonek" unicode="&#x12e;" horiz-adv-x="671" 
d="M90 0v1536h492v-1536h-41q-43 0 -74 -24t-31 -52q0 -53 80 -53q41 0 72 14l35 -221q-101 -49 -237 -49t-208 53t-72 144q0 123 103 188h-119z" />
    <glyph glyph-name="iogonek" unicode="&#x12f;" horiz-adv-x="630" 
d="M80 1487q0 168 234 168t235 -167q0 -167 -234 -167q-121 0 -178 39t-57 127zM363 -385q-135 0 -207 53t-72 144q0 123 102 188h-98v1251l455 19v-1270h-47q-82 -14 -82 -76q0 -53 80 -53q41 0 71 14l35 -221q-102 -49 -237 -49z" />
    <glyph glyph-name="Idotaccent" unicode="&#x130;" horiz-adv-x="671" 
d="M584 1737q0 -76 -56 -111t-193 -35q-138 0 -194 33q-55 33 -55 111q0 77 57 113t193 36t192 -36t56 -111zM90 0v1536h492v-1536h-492z" />
    <glyph glyph-name="dotlessi" unicode="&#x131;" horiz-adv-x="630" 
d="M543 0h-455v1251l455 19v-1270z" />
    <glyph glyph-name="IJ" unicode="&#x132;" horiz-adv-x="1691" 
d="M1618 1536v-946q0 -342 -161 -480t-470 -139q-158 0 -280 45l22 390q59 -27 176 -27t170 49t53 172v936h490zM90 0v1536h492v-1536h-492z" />
    <glyph glyph-name="ij" unicode="&#x133;" horiz-adv-x="1298" 
d="M752 1487q0 168 234 168t235 -167q0 -167 -234 -167q-121 0 -178 39t-57 127zM1217 47q0 -205 -113 -294t-299 -89q-106 0 -197 29l21 291q35 -6 61 -7q82 0 82 78v1198l445 17v-1223zM328 1655q234 0 235 -167q0 -167 -233 -167q-121 0 -178 39t-58 127q0 168 234 168z
M557 0h-455v1251l455 19v-1270z" />
    <glyph glyph-name="Jcircumflex" unicode="&#x134;" horiz-adv-x="1032" 
d="M469 1855h469l192 -245h-378l-45 96h-5l-45 -96h-372zM956 1536v-946q0 -342 -160 -480t-470 -139q-158 0 -281 45l23 390q59 -27 176 -27t170 49t53 172v936h489z" />
    <glyph glyph-name="jcircumflex" unicode="&#x135;" horiz-adv-x="632" 
d="M131 1630h373l188 -299h-319l-47 111h-13l-47 -111h-319zM547 47q0 -205 -113 -294t-299 -89q-106 0 -196 29l20 291q33 -6 61 -7q82 0 82 78v1198l445 17v-1223z" />
    <glyph glyph-name="Kcommaaccent" unicode="&#x136;" horiz-adv-x="1398" 
d="M691 -53q228 0 229 -150q0 -104 -250 -215l-135 41l40 86q-113 27 -112 115q0 123 228 123zM555 594v-594h-479v1536h477v-573h68l235 573h535l-332 -735l346 -801h-559l-234 594h-57z" />
    <glyph glyph-name="kcommaaccent" unicode="&#x137;" horiz-adv-x="1243" 
d="M624 -53q228 0 228 -150q0 -104 -250 -215l-135 41l41 86q-113 27 -113 115q1 123 229 123zM520 842h98l144 420h471l-234 -572l238 -690h-481l-140 498h-96v-498h-444v1579l444 20v-757z" />
    <glyph glyph-name="kgreenlandic" unicode="&#x138;" horiz-adv-x="1243" 
d="M520 842h98l144 420h471l-234 -572l238 -690h-481l-140 498h-96v-498h-444v1251l444 21v-430z" />
    <glyph glyph-name="Lacute" unicode="&#x139;" horiz-adv-x="1056" 
d="M299 1855h549l-289 -245h-350zM559 414h477l-10 -414h-950v1536h483v-1122z" />
    <glyph glyph-name="lacute" unicode="&#x13a;" horiz-adv-x="600" 
d="M182 1890h549l-289 -245h-350zM524 0h-448v1579l448 20v-1599z" />
    <glyph glyph-name="Lcommaaccent" unicode="&#x13b;" horiz-adv-x="1056" 
d="M552 -53q228 0 228 -150q0 -104 -250 -215l-135 41l41 86q-113 27 -112 115q0 123 228 123zM559 414h477l-10 -414h-950v1536h483v-1122z" />
    <glyph glyph-name="lcommaaccent" unicode="&#x13c;" horiz-adv-x="600" 
d="M298 -53q228 0 228 -150q0 -104 -250 -215l-135 41l41 86q-113 27 -112 115q0 123 228 123zM524 0h-448v1579l448 20v-1599z" />
    <glyph glyph-name="Lcaron" unicode="&#x13d;" horiz-adv-x="1056" 
d="M651 1423q0 127 172 127t172 -153q0 -109 -188 -223l-102 43l32 88q-86 27 -86 118zM559 414h477l-10 -414h-950v1536h483v-1122z" />
    <glyph glyph-name="lcaron" unicode="&#x13e;" horiz-adv-x="606" 
d="M559 1421q0 127 172 127t172 -153q0 -109 -188 -224l-103 43l33 89q-86 27 -86 118zM530 0h-448v1579l448 20v-1599z" />
    <glyph glyph-name="Ldot" unicode="&#x13f;" horiz-adv-x="1056" 
d="M559 414h477l-10 -414h-950v1536h483v-1122zM1040 850q0 -84 -48 -131t-149 -47t-149 42q-47 42 -47 136q1 182 197 182t196 -182z" />
    <glyph glyph-name="ldot" unicode="&#x140;" horiz-adv-x="925" 
d="M524 0h-448v1579l448 20v-1599zM586 836q0 166 177 166t177 -165t-176 -165q-94 0 -136 38t-42 126z" />
    <glyph glyph-name="Lslash" unicode="&#x141;" horiz-adv-x="1142" 
d="M645 414h477l-10 -414h-950v541l-113 -47l-33 366l146 60v616h483v-438l279 108l37 -381l-316 -116v-295z" />
    <glyph glyph-name="lslash" unicode="&#x142;" horiz-adv-x="749" 
d="M598 0h-448v633l-125 -55l-2 364l127 53v584l448 20v-430l133 60v-352l-133 -62v-815z" />
    <glyph glyph-name="Nacute" unicode="&#x143;" horiz-adv-x="1388" 
d="M594 1855h549l-289 -245h-350zM1315 0h-340l-387 586l-88 141l-4 -2l2 -166v-559h-422v1536h395l420 -668l4 2l-4 164l2 502h422v-1536z" />
    <glyph glyph-name="nacute" unicode="&#x144;" horiz-adv-x="1220" 
d="M510 1630h494l-254 -299h-326zM1157 0h-444v795q0 117 -95 116q-66 0 -104 -45v-866h-444v1255l321 17l55 -88q130 102 310 102t291 -129t110 -362v-795z" />
    <glyph glyph-name="Ncommaaccent" unicode="&#x145;" horiz-adv-x="1388" 
d="M465 -176q0 123 228 123t229 -150q0 -104 -250 -215l-135 41l41 86q-113 27 -113 115zM1315 0h-340l-387 586l-88 141l-4 -2l2 -166v-559h-422v1536h395l420 -668l4 2l-4 164l2 502h422v-1536z" />
    <glyph glyph-name="ncommaaccent" unicode="&#x146;" horiz-adv-x="1220" 
d="M379 -176q0 123 228 123t229 -150q0 -104 -250 -215l-135 41l41 86q-113 27 -113 115zM1157 0h-444v795q0 117 -95 116q-66 0 -104 -45v-866h-444v1255l321 17l55 -88q130 102 310 102t291 -129t110 -362v-795z" />
    <glyph glyph-name="Ncaron" unicode="&#x147;" horiz-adv-x="1388" 
d="M932 1610h-469l-184 245h374l45 -100h4l46 100h374zM1315 0h-340l-387 586l-88 141l-4 -2l2 -166v-559h-422v1536h395l420 -668l4 2l-4 164l2 502h422v-1536z" />
    <glyph glyph-name="ncaron" unicode="&#x148;" horiz-adv-x="1220" 
d="M793 1331h-375l-182 299h319l45 -123h12l45 123h324zM1157 0h-444v795q0 117 -95 116q-66 0 -104 -45v-866h-444v1255l321 17l55 -88q130 102 310 102t291 -129t110 -362v-795z" />
    <glyph glyph-name="napostrophe" unicode="&#x149;" horiz-adv-x="1304" 
d="M-78 1534q0 127 172 127t172 -154q0 -109 -188 -223l-103 43l33 88q-86 27 -86 119zM1241 0h-444v795q0 117 -95 116q-66 0 -104 -45v-866h-444v1255l321 17l55 -88q130 102 310 102t290 -129t111 -362v-795z" />
    <glyph glyph-name="Eng" unicode="&#x14a;" horiz-adv-x="1388" 
d="M1315 190q0 -496 -414 -495q-123 0 -201 37l17 280q35 -22 82 -22t69 24t27 86l-313 518l-82 146l-4 -2l2 -166v-596h-422v1536h395l420 -725l4 2l-4 164l2 559h422v-1346z" />
    <glyph glyph-name="eng" unicode="&#x14b;" horiz-adv-x="1220" 
d="M713 86v709q0 117 -95 116q-66 0 -104 -45v-866h-444v1255l321 17l55 -88q130 102 310 102t291 -129t110 -362v-678q0 -395 -381 -396q-111 0 -182 33l18 291q16 -12 50 -12q51 0 51 53z" />
    <glyph glyph-name="Omacron" unicode="&#x14c;" horiz-adv-x="1429" 
d="M1073 1833v-207h-708v207h708zM717 385q69 0 103 30q34 29 48 109t15 282q0 202 -33 270t-137 69q-70 0 -103 -28q-33 -29 -48 -107t-15 -279t34 -273t136 -73zM1386 763q0 -421 -160 -605t-507 -184q-348 0 -512 190t-164 605t161 603t511 188q351 0 511 -188t160 -609z
" />
    <glyph glyph-name="omacron" unicode="&#x14d;" horiz-adv-x="1216" 
d="M961 1610v-254h-707v254h707zM494 626q0 -196 24 -253t92 -57t90 56q22 58 23 223q0 165 -11 231t-34 88q-22 22 -80 22t-81 -57t-23 -253zM1182 625q0 -352 -136 -503t-438 -151t-438 151q-137 151 -137 502q0 350 138 506t438 156t437 -154q136 -155 136 -507z" />
    <glyph glyph-name="Obreve" unicode="&#x14e;" horiz-adv-x="1429" 
d="M768 1855h326q0 -258 -377 -258q-199 0 -285 67t-86 191h324q0 -47 49 -47t49 47zM717 385q69 0 103 30q34 29 48 109t15 282q0 202 -33 270t-137 69q-70 0 -103 -28q-33 -29 -48 -107t-15 -279t34 -273t136 -73zM1386 763q0 -421 -160 -605t-507 -184q-348 0 -512 190
t-164 605t161 603t511 188q351 0 511 -188t160 -609z" />
    <glyph glyph-name="obreve" unicode="&#x14f;" horiz-adv-x="1216" 
d="M662 1630h292q0 -317 -352 -317q-188 0 -267 81t-79 236h285q1 -102 61 -102t60 102zM494 626q0 -196 24 -253t92 -57t90 56q22 58 23 223q0 165 -11 231t-34 88q-22 22 -80 22t-81 -57t-23 -253zM1182 625q0 -352 -136 -503t-438 -151t-438 151q-137 151 -137 502
q0 350 138 506t438 156t437 -154q136 -155 136 -507z" />
    <glyph glyph-name="Ohungarumlaut" unicode="&#x150;" horiz-adv-x="1429" 
d="M866 1855h441l-230 -245h-307zM408 1855h428l-166 -245h-275zM717 385q69 0 103 30q34 29 48 109t15 282q0 202 -33 270t-137 69q-70 0 -103 -28q-33 -29 -48 -107t-15 -279t34 -273t136 -73zM1386 763q0 -421 -160 -605t-507 -184q-348 0 -512 190t-164 605t161 603
t511 188q351 0 511 -188t160 -609z" />
    <glyph glyph-name="ohungarumlaut" unicode="&#x151;" horiz-adv-x="1216" 
d="M791 1630h442l-258 -299h-311zM326 1630h432l-213 -299h-279zM494 626q0 -196 24 -253t92 -57t90 56q22 58 23 223q0 165 -11 231t-34 88q-22 22 -80 22t-81 -57t-23 -253zM1182 625q0 -352 -136 -503t-438 -151t-438 151q-137 151 -137 502q0 350 138 506t438 156
t437 -154q136 -155 136 -507z" />
    <glyph glyph-name="OE" unicode="&#x152;" horiz-adv-x="1951" 
d="M717 385q69 0 103 30q34 29 48 109t15 282q0 202 -33 270t-137 69q-70 0 -103 -28q-33 -29 -48 -107t-15 -279t34 -273t136 -73zM920 0v66l-5 2q-113 -94 -299 -95q-276 0 -425 195q-148 194 -148 602t147 599t435 192q168 0 290 -84l5 2v57h964l6 -410h-536v-159h436
v-371h-436v-193h561l-8 -403h-987z" />
    <glyph glyph-name="oe" unicode="&#x153;" horiz-adv-x="1830" 
d="M1280 930q-57 0 -79 -29t-30 -125h218q-2 86 -27 120t-82 34zM492 626q0 -196 24 -253t92 -57t90 56q22 58 23 223q0 165 -11 231t-34 88q-24 22 -82 22t-80 -57t-22 -253zM1378 -20q-281 0 -413 124q-119 -133 -395 -133t-408 152q-131 152 -131 501q0 350 133 506
t398 156t388 -123q119 119 344 119q504 0 504 -584q0 -84 -12 -206h-606q14 -78 69 -112t193 -34t282 51l48 -350q-177 -67 -394 -67z" />
    <glyph glyph-name="Racute" unicode="&#x154;" horiz-adv-x="1331" 
d="M502 1855h549l-289 -245h-350zM643 860q73 0 97 26t24 118t-24 120t-97 27h-88v-291h88zM1264 1024q0 -145 -50 -254t-137 -160l277 -610h-551l-170 512h-78v-512h-479v1536h559q317 0 473 -123t156 -389z" />
    <glyph glyph-name="racute" unicode="&#x155;" horiz-adv-x="907" 
d="M326 1630h493l-254 -299h-325zM516 0h-446v1253l356 15l33 -150h6q102 166 283 166q88 0 139 -18l-25 -424q-82 20 -141 20q-97 0 -151 -55t-54 -164v-643z" />
    <glyph glyph-name="Rcommaaccent" unicode="&#x156;" horiz-adv-x="1331" 
d="M426 -176q0 123 228 123t229 -150q0 -104 -250 -215l-135 41l41 86q-113 27 -113 115zM643 860q73 0 97 26t24 118t-24 120t-97 27h-88v-291h88zM1264 1024q0 -145 -50 -254t-137 -160l277 -610h-551l-170 512h-78v-512h-479v1536h559q317 0 473 -123t156 -389z" />
    <glyph glyph-name="rcommaaccent" unicode="&#x157;" horiz-adv-x="907" 
d="M296 -53q228 0 228 -150q0 -104 -250 -215l-135 41l41 86q-113 27 -112 115q0 123 228 123zM516 0h-446v1253l356 15l33 -150h6q102 166 283 166q88 0 139 -18l-25 -424q-82 20 -141 20q-97 0 -151 -55t-54 -164v-643z" />
    <glyph glyph-name="Rcaron" unicode="&#x158;" horiz-adv-x="1331" 
d="M817 1610h-469l-184 245h375l45 -100h4l45 100h375zM643 860q73 0 97 26t24 118t-24 120t-97 27h-88v-291h88zM1264 1024q0 -145 -50 -254t-137 -160l277 -610h-551l-170 512h-78v-512h-479v1536h559q317 0 473 -123t156 -389z" />
    <glyph glyph-name="rcaron" unicode="&#x159;" horiz-adv-x="907" 
d="M662 1331h-375l-183 299h320l45 -123h12l45 123h324zM516 0h-446v1253l356 15l33 -150h6q102 166 283 166q88 0 139 -18l-25 -424q-82 20 -141 20q-97 0 -151 -55t-54 -164v-643z" />
    <glyph glyph-name="Sacute" unicode="&#x15a;" horiz-adv-x="1112" 
d="M500 1855h549l-289 -245h-350zM1087 477q-1 -233 -155 -368t-421 -135t-464 104l59 393q213 -98 390 -98q74 0 104 18q30 19 29 55q0 67 -145 111t-289 152q-66 49 -109 140t-43 210q0 223 144 362q145 139 409 139t442 -71l-51 -389q-193 51 -311 51t-145 -16
q-27 -15 -27 -55t60 -72t146 -64q86 -33 171 -82q86 -48 146 -148t60 -237z" />
    <glyph glyph-name="sacute" unicode="&#x15b;" horiz-adv-x="956" 
d="M385 1630h494l-254 -299h-326zM926 416q0 -440 -498 -441q-217 0 -371 68l39 352q141 -68 324 -67q96 0 96 51q0 33 -49 53t-120 43t-141 59t-120 120q-49 84 -49 208q0 184 125 302t368 118q180 0 347 -65l-31 -347q-147 53 -316 54q-72 0 -71 -43q0 -48 122 -80
t224 -105q51 -38 86 -110t35 -170z" />
    <glyph glyph-name="Scircumflex" unicode="&#x15c;" horiz-adv-x="1112" 
d="M362 1855h469l193 -245h-379l-45 96h-4l-45 -96h-373zM1087 477q-1 -233 -155 -368t-421 -135t-464 104l59 393q213 -98 390 -98q74 0 104 18q30 19 29 55q0 67 -145 111t-289 152q-66 49 -109 140t-43 210q0 223 144 362q145 139 409 139t442 -71l-51 -389
q-193 51 -311 51t-145 -16q-27 -15 -27 -55t60 -72t146 -64q86 -33 171 -82q86 -48 146 -148t60 -237z" />
    <glyph glyph-name="scircumflex" unicode="&#x15d;" horiz-adv-x="956" 
d="M311 1630h373l188 -299h-319l-47 111h-12l-48 -111h-319zM926 416q0 -440 -498 -441q-217 0 -371 68l39 352q141 -68 324 -67q96 0 96 51q0 33 -49 53t-120 43t-141 59t-120 120q-49 84 -49 208q0 184 125 302t368 118q180 0 347 -65l-31 -347q-147 53 -316 54
q-72 0 -71 -43q0 -48 122 -80t224 -105q51 -38 86 -110t35 -170z" />
    <glyph glyph-name="Scedilla" unicode="&#x15e;" horiz-adv-x="1112" 
d="M496 373q74 0 104 18q30 19 29 55q0 67 -145 111t-289 152q-66 49 -109 140t-43 210q0 223 144 362q145 139 409 139t442 -71l-51 -389q-193 51 -311 51t-145 -16q-27 -15 -27 -55t60 -72t146 -64q86 -33 171 -82q86 -49 146 -148t60 -237q1 -193 -107 -319t-300 -166
l-53 -367h-385l135 357q-184 18 -330 96l59 393q213 -98 390 -98z" />
    <glyph glyph-name="scedilla" unicode="&#x15f;" horiz-adv-x="956" 
d="M516 379q0 33 -49 53t-120 43t-141 59t-120 120q-49 84 -49 208q0 184 125 302t368 118q180 0 347 -65l-31 -347q-147 53 -316 54q-72 0 -71 -43q0 -48 122 -80t224 -105q51 -38 86 -110t35 -170q0 -360 -334 -424l-53 -367h-385l137 359q-135 16 -234 59l39 352
q141 -68 324 -67q96 0 96 51z" />
    <glyph glyph-name="Scaron" unicode="&#x160;" horiz-adv-x="1112" 
d="M842 1610h-469l-185 245h375l45 -100h4l45 100h375zM1087 477q-1 -233 -155 -368t-421 -135t-464 104l59 393q213 -98 390 -98q74 0 104 18q30 19 29 55q0 67 -145 111t-289 152q-66 49 -109 140t-43 210q0 223 144 362q145 139 409 139t442 -71l-51 -389
q-193 51 -311 51t-145 -16q-27 -15 -27 -55t60 -72t146 -64q86 -33 171 -82q86 -48 146 -148t60 -237z" />
    <glyph glyph-name="scaron" unicode="&#x161;" horiz-adv-x="956" 
d="M686 1331h-375l-182 299h320l45 -123h12l45 123h323zM926 416q0 -440 -498 -441q-217 0 -371 68l39 352q141 -68 324 -67q96 0 96 51q0 33 -49 53t-120 43t-141 59t-120 120q-49 84 -49 208q0 184 125 302t368 118q180 0 347 -65l-31 -347q-147 53 -316 54q-72 0 -71 -43
q0 -48 122 -80t224 -105q51 -38 86 -110t35 -170z" />
    <glyph glyph-name="Tcommaaccent" unicode="&#x162;" horiz-adv-x="1165" 
d="M338 0v1118h-324l9 418h1118l10 -418h-326v-1118h-98l-55 -375h-385l143 375h-92z" />
    <glyph glyph-name="tcommaaccent" unicode="&#x163;" horiz-adv-x="792" 
d="M109 944h-95v318h117l72 258l350 30v-288h223v-318h-223v-536q0 -47 22 -68q23 -20 78 -20t84 12l21 -314q-29 -12 -80 -22l-55 -371h-385l141 371q-135 33 -203 137t-67 262v549z" />
    <glyph glyph-name="Tcaron" unicode="&#x164;" horiz-adv-x="1165" 
d="M813 1610h-469l-184 245h375l45 -100h4l45 100h375zM825 1118v-1118h-487v1118h-324l9 418h1118l10 -418h-326z" />
    <glyph glyph-name="tcaron" unicode="&#x165;" horiz-adv-x="792" 
d="M592 1534q0 127 172 127t172 -154q0 -109 -188 -223l-103 43l33 88q-86 27 -86 119zM776 944h-223v-536q0 -47 22 -68q23 -20 78 -20t84 12l21 -314q-82 -39 -242 -38q-203 0 -305 110t-102 305v549h-95v318h117l72 258l350 30v-288h223v-318z" />
    <glyph glyph-name="Tbar" unicode="&#x166;" horiz-adv-x="1165" 
d="M825 1118v-147h203v-293h-203v-678h-487v678h-201v293h201v147h-324l9 418h1118l10 -418h-326z" />
    <glyph glyph-name="tbar" unicode="&#x167;" horiz-adv-x="792" 
d="M776 944h-223v-84h223v-307h-223v-145q0 -47 22 -68q23 -20 78 -20t84 12l21 -314q-82 -39 -242 -38q-203 0 -305 110t-102 305v158h-93v307h93v84h-95v318h117l72 258l350 30v-288h223v-318z" />
    <glyph glyph-name="Utilde" unicode="&#x168;" horiz-adv-x="1353" 
d="M526 1882q98 0 198 -22q99 -22 127 -23q28 0 30 25h194q-1 -123 -69 -195t-166 -72t-189 23q-90 23 -106 22q-43 1 -47 -26h-205q3 120 69 194t164 74zM1290 1536v-1012q0 -551 -610 -551q-307 1 -462 141t-155 410v1012h482v-1004q-1 -76 29 -108t106 -33q76 0 104 31
t27 110v1004h479z" />
    <glyph glyph-name="utilde" unicode="&#x169;" horiz-adv-x="1212" 
d="M469 1647q94 0 173 -37t112 -37q41 0 55 53l192 -2q-1 -135 -67 -218t-158 -83t-172 37t-112 37q-46 -1 -54 -56l-194 2q2 133 66 219q65 85 159 85zM1149 1262v-799q0 -246 -134 -365t-409 -118q-543 0 -543 483v799h445v-797q0 -57 22 -84t77 -27q54 0 77 26t23 85v797
h442z" />
    <glyph glyph-name="Umacron" unicode="&#x16a;" horiz-adv-x="1353" 
d="M1036 1833v-207h-708v207h708zM1290 1536v-1012q0 -551 -610 -551q-307 1 -462 141t-155 410v1012h482v-1004q-1 -76 29 -108t106 -33q76 0 104 31t27 110v1004h479z" />
    <glyph glyph-name="umacron" unicode="&#x16b;" horiz-adv-x="1212" 
d="M961 1610v-254h-707v254h707zM1149 1262v-799q0 -246 -134 -365t-409 -118q-543 0 -543 483v799h445v-797q0 -57 22 -84t77 -27q54 0 77 26t23 85v797h442z" />
    <glyph glyph-name="Ubreve" unicode="&#x16c;" horiz-adv-x="1353" 
d="M729 1855h326q0 -258 -377 -258q-199 0 -285 67t-86 191h324q0 -47 49 -47t49 47zM1290 1536v-1012q0 -551 -610 -551q-307 1 -462 141t-155 410v1012h482v-1004q-1 -76 29 -108t106 -33q76 0 104 31t27 110v1004h479z" />
    <glyph glyph-name="ubreve" unicode="&#x16d;" horiz-adv-x="1212" 
d="M662 1630h292q0 -317 -352 -317q-188 0 -267 81t-79 236h285q1 -102 61 -102t60 102zM1149 1262v-799q0 -246 -134 -365t-409 -118q-543 0 -543 483v799h445v-797q0 -57 22 -84t77 -27q54 0 77 26t23 85v797h442z" />
    <glyph glyph-name="Uring" unicode="&#x16e;" horiz-adv-x="1353" 
d="M677 1677q-67 0 -87 -14t-21 -49t19 -48q20 -14 88 -14t88 12t20 48q0 35 -20 50t-87 15zM680 391q76 0 104 31t27 110v867q-51 -10 -132 -10t-134 6v-863q-1 -76 29 -108t106 -33zM340 1626q0 117 73 176t257 60q338 0 338 -236q0 -49 -13 -90h295v-1012
q0 -551 -610 -551q-307 1 -462 141t-155 410v1012h287q-10 31 -10 90z" />
    <glyph glyph-name="uring" unicode="&#x16f;" horiz-adv-x="1212" 
d="M520 1511q0 -25 18 -35t75 -10t77 10t20 36q0 24 -18 35t-76 11t-76 -10q-20 -12 -20 -37zM913 1513q-1 -104 -71 -151t-229 -47q-159 1 -231 45t-71 148q0 104 69 154q69 52 230 52q303 0 303 -201zM1149 1262v-799q0 -246 -134 -365t-409 -118q-543 0 -543 483v799h445
v-797q0 -57 22 -84t77 -27q54 0 77 26t23 85v797h442z" />
    <glyph glyph-name="Uhungarumlaut" unicode="&#x170;" horiz-adv-x="1353" 
d="M823 1855h441l-230 -245h-307zM365 1855h428l-166 -245h-275zM1290 1536v-1012q0 -551 -610 -551q-307 1 -462 141t-155 410v1012h482v-1004q-1 -76 29 -108t106 -33q76 0 104 31t27 110v1004h479z" />
    <glyph glyph-name="uhungarumlaut" unicode="&#x171;" horiz-adv-x="1212" 
d="M786 1630h443l-258 -299h-312zM322 1630h432l-213 -299h-279zM1149 1262v-799q0 -246 -134 -365t-409 -118q-543 0 -543 483v799h445v-797q0 -57 22 -84t77 -27q54 0 77 26t23 85v797h442z" />
    <glyph glyph-name="Uogonek" unicode="&#x172;" horiz-adv-x="1353" 
d="M782 -385q-135 0 -207 53q-71 52 -71 150t76 164q-516 39 -517 542v1012h482v-1004q-1 -76 29 -108t106 -33q76 0 104 31t27 110v1004h479v-1012q0 -444 -401 -530q-55 -18 -55 -70t79 -53q41 0 72 14l35 -221q-103 -49 -238 -49z" />
    <glyph glyph-name="uogonek" unicode="&#x173;" horiz-adv-x="1212" 
d="M672 -385q-135 0 -207 53t-72 154t88 170q-418 45 -418 471v799h445v-797q0 -57 22 -84t77 -27q54 0 77 26t23 85v797h442v-799q0 -401 -371 -469q-55 -18 -55 -70t80 -53q41 0 71 14l35 -221q-102 -49 -237 -49z" />
    <glyph glyph-name="Wcircumflex" unicode="&#x174;" horiz-adv-x="2019" 
d="M770 1855h469l193 -245h-379l-45 96h-4l-46 -96h-372zM766 1536h506l127 -864l22 -164h6l17 164l104 864h477l-317 -1536h-571l-107 803l-16 166h-6l-19 -166l-104 -803h-572l-317 1536h498l102 -870l16 -164h6l21 164z" />
    <glyph glyph-name="wcircumflex" unicode="&#x175;" horiz-adv-x="1753" 
d="M688 1630h373l188 -299h-319l-47 111h-13l-47 -111h-319zM651 1262h463l109 -813h6l12 165l70 648h432l-238 -1262h-542l-56 545l-12 168h-6l-72 -713h-543l-264 1262h445l77 -650l17 -163h6l16 163z" />
    <glyph glyph-name="Ycircumflex" unicode="&#x176;" horiz-adv-x="1374" 
d="M457 1855h469l192 -245h-379l-45 96h-4l-45 -96h-373zM938 0h-489v449l-472 1087h533l143 -465l45 -158h7l40 160l134 463h518l-459 -1087v-449z" />
    <glyph glyph-name="ycircumflex" unicode="&#x177;" horiz-adv-x="1280" 
d="M473 1630h373l188 -299h-319l-47 111h-13l-47 -111h-319zM326 -35q123 0 153 80l4 12l-489 1205h502l190 -721h6l25 164l102 557h469l-370 -1209q-121 -397 -510 -397q-131 0 -226 37l33 293q60 -21 111 -21z" />
    <glyph glyph-name="Ydieresis" unicode="&#x178;" horiz-adv-x="1374" 
d="M725 1753q0 156 175 156t175 -155t-176 -155q-90 0 -132 36t-42 118zM496 1909q174 0 174 -155t-174 -155q-90 0 -132 36t-42 118q0 156 174 156zM938 0h-489v449l-472 1087h533l143 -465l45 -158h7l40 160l134 463h518l-459 -1087v-449z" />
    <glyph glyph-name="Zacute" unicode="&#x179;" horiz-adv-x="1167" 
d="M496 1855h548l-288 -245h-350zM35 0v303l434 678l90 133l-2 4h-512l10 418h1065v-334l-415 -651l-91 -131l2 -6h508l-4 -414h-1085z" />
    <glyph glyph-name="zacute" unicode="&#x17a;" horiz-adv-x="1009" 
d="M393 1630h494l-254 -299h-326zM35 0v303l325 467l97 131l-2 4h-410l14 357h895v-297l-331 -478l-97 -129l2 -6h451l-10 -352h-934z" />
    <glyph glyph-name="Zdotaccent" unicode="&#x17b;" horiz-adv-x="1167" 
d="M846 1737q0 -76 -55 -111t-193 -35t-195 33q-55 33 -55 111q0 77 58 113t193 36t191 -36t56 -111zM35 0v303l434 678l90 133l-2 4h-512l10 418h1065v-334l-415 -651l-91 -131l2 -6h508l-4 -414h-1085z" />
    <glyph glyph-name="zdotaccent" unicode="&#x17c;" horiz-adv-x="1009" 
d="M504 1655q234 0 235 -167q0 -167 -233 -167q-121 0 -178 39t-58 127q0 168 234 168zM35 0v303l325 467l97 131l-2 4h-410l14 357h895v-297l-331 -478l-97 -129l2 -6h451l-10 -352h-934z" />
    <glyph glyph-name="Zcaron" unicode="&#x17d;" horiz-adv-x="1167" 
d="M840 1610h-469l-185 245h375l45 -100h4l45 100h375zM35 0v303l434 678l90 133l-2 4h-512l10 418h1065v-334l-415 -651l-91 -131l2 -6h508l-4 -414h-1085z" />
    <glyph glyph-name="zcaron" unicode="&#x17e;" horiz-adv-x="1009" 
d="M692 1331h-375l-182 299h320l45 -123h12l45 123h324zM35 0v303l325 467l97 131l-2 4h-410l14 357h895v-297l-331 -478l-97 -129l2 -6h451l-10 -352h-934z" />
    <glyph glyph-name="longs" unicode="&#x17f;" horiz-adv-x="696" 
d="M571 1237v-1059q-1 -258 -151 -382t-412 -134l-28 305q86 12 120 51t33 148v768h-102l12 305h90q2 203 140 308t483 106l22 -316q-127 -1 -167 -23t-40 -77z" />
    <glyph glyph-name="uni018F" unicode="&#x18f;" horiz-adv-x="1419" 
d="M703 360q87 0 122 50t43 211h-327l4 -82q7 -103 39 -141t119 -38zM45 741q0 111 8 203h813q-14 129 -75 173t-253 44t-364 -43l-41 379q223 63 518 64q417 0 588 -248q129 -190 129 -575q0 -384 -160 -574t-510 -191q-152 0 -266 36q-255 81 -340 359q-47 152 -47 373z
" />
    <glyph glyph-name="florin" unicode="&#x192;" horiz-adv-x="868" 
d="M737 1638q111 0 205 -26l-80 -281q-51 10 -86 10q-82 0 -88 -38l-8 -43h186l-69 -322h-187l-258 -1249h-442l256 1249h-115l68 322h114l11 53q27 137 157 231q131 94 336 94z" />
    <glyph glyph-name="uni01B5" unicode="&#x1b5;" horiz-adv-x="1167" 
d="M35 0v303l223 350h-184l16 269h340l129 192l-2 4h-512l10 418h1065v-334l-180 -280h162l-15 -269h-317l-65 -102l-91 -131l2 -6h508l-4 -414h-1085z" />
    <glyph glyph-name="uni01B6" unicode="&#x1b6;" horiz-adv-x="1009" 
d="M35 0v303l155 223h-110l12 248h270l95 127l-2 4h-410l14 357h895v-297l-133 -191h115l-12 -248h-275l-26 -39l-97 -129l2 -6h451l-10 -352h-934z" />
    <glyph glyph-name="Aringacute" unicode="&#x1fa;" horiz-adv-x="1435" 
d="M598 1626q0 -35 19 -48t87 -13t89 12q20 12 20 47t-20 50q-20 16 -87 16q-68 0 -88 -14t-20 -50zM705 1112l-97 -491h193l-64 325l-26 166h-6zM1036 1648q0 -84 -24 -132l440 -1516h-532l-46 233h-344l-45 -233h-503l424 1491q-37 49 -37 147t49 154t172 76l28 76h549
l-182 -156q51 -56 51 -140z" />
    <glyph glyph-name="aringacute" unicode="&#x1fb;" horiz-adv-x="1132" 
d="M471 1511q0 -25 18 -35q19 -10 75 -10t76 10t22 36q0 24 -18 35t-76 11t-78 -10q-20 -12 -19 -37zM629 401v111q-41 10 -84 10q-92 0 -92 -102t79 -103q41 -1 69 21t28 63zM864 1506q0 -96 -70 -144q-70 -47 -230 -47q-158 0 -230 45t-72 153q0 162 187 193l47 164h493
l-186 -219q61 -49 61 -145zM35 394q0 194 117 308t307 113q82 0 170 -18v18q0 109 -160 109t-324 -60l-34 340q187 78 455 78t386 -125t117 -403v-754h-340l-29 90q-116 -110 -290 -110t-275 110q-100 110 -100 304z" />
    <glyph glyph-name="AEacute" unicode="&#x1fc;" horiz-adv-x="2009" 
d="M1114 1855h549l-289 -245h-350zM948 1178l-194 -560h200l-2 392l2 166zM1845 967v-371h-409l2 -193h536l-8 -403h-1005l-3 238h-337l-84 -238h-555l696 1536h1261l9 -408h-518l2 -161h413z" />
    <glyph glyph-name="aeacute" unicode="&#x1fd;" horiz-adv-x="1705" 
d="M745 1630h494l-254 -299h-326zM1156 930q-58 0 -80 -29t-29 -125h217q-2 86 -26 120t-82 34zM629 401v111q-41 10 -84 10q-92 0 -92 -102t79 -103q41 -1 69 21t28 63zM542 1282q230 0 335 -92q125 92 309 92q229 0 358 -145t129 -439q0 -84 -12 -206h-606q14 -78 69 -112
q56 -34 194 -34t281 51l48 -350q-176 -67 -426 -67t-404 139q-133 -139 -360 -139q-422 0 -422 430q0 178 117 292t307 113q82 0 170 -18v18q0 109 -160 109t-324 -60l-34 340q201 78 431 78z" />
    <glyph glyph-name="Oslashacute" unicode="&#x1fe;" horiz-adv-x="1429" 
d="M547 768v-31l293 357q-33 51 -115 51t-115 -28q-33 -29 -48 -107t-15 -242zM885 768v25l-295 -357q33 -51 131 -51q98 1 131 73t33 310zM43 768q0 416 161 604t511 189q246 0 395 -91l76 97l223 -187l-104 -135q82 -178 81 -477q0 -426 -160 -610t-511 -185
q-242 0 -389 90l-80 -100l-228 178l111 144q-86 184 -86 483zM590 1855h549l-289 -245h-350z" />
    <glyph glyph-name="oslashacute" unicode="&#x1ff;" horiz-adv-x="1216" 
d="M508 1630h493l-253 -299h-326zM607 936q-67 0 -91 -52t-24 -233l204 234q-22 51 -89 51zM604 315q68 -1 94 57q25 58 29 246l-213 -239q22 -64 90 -64zM33 625q0 352 138 507t437 154q197 0 320 -65l63 79l183 -149l-76 -96q84 -150 84 -430q0 -352 -136 -503t-438 -151
q-201 0 -327 64l-64 -80l-184 149l80 101q-80 145 -80 420z" />
    <glyph glyph-name="Scommaaccent" unicode="&#x218;" horiz-adv-x="1112" 
d="M538 -53q228 0 228 -150q0 -104 -250 -215l-135 41l41 86q-113 27 -113 115q1 123 229 123zM1087 477q-1 -233 -155 -368t-421 -135t-464 104l59 393q213 -98 390 -98q74 0 104 18q30 19 29 55q0 67 -145 111t-289 152q-66 49 -109 140t-43 210q0 223 144 362
q145 139 409 139t442 -71l-51 -389q-193 51 -311 51t-145 -16q-27 -15 -27 -55t60 -72t146 -64q86 -33 171 -82q86 -48 146 -148t60 -237z" />
    <glyph glyph-name="scommaaccent" unicode="&#x219;" horiz-adv-x="956" 
d="M254 -176q0 123 228 123t229 -150q0 -104 -250 -215l-135 41l41 86q-113 27 -113 115zM926 416q0 -440 -498 -441q-217 0 -371 68l39 352q141 -68 324 -67q96 0 96 51q0 33 -49 53t-120 43t-141 59t-120 120q-49 84 -49 208q0 184 125 302t368 118q180 0 347 -65
l-31 -347q-147 53 -316 54q-72 0 -71 -43q0 -48 122 -80t224 -105q51 -38 86 -110t35 -170z" />
    <glyph glyph-name="uni021A" unicode="&#x21a;" horiz-adv-x="1165" 
d="M581 -53q228 0 228 -150q0 -104 -250 -215l-135 41l41 86q-113 27 -113 115q1 123 229 123zM825 1118v-1118h-487v1118h-324l9 418h1118l10 -418h-326z" />
    <glyph glyph-name="uni021B" unicode="&#x21b;" horiz-adv-x="792" 
d="M472 -53q228 0 228 -150q0 -104 -249 -215l-136 41l41 86q-113 27 -112 115q0 123 228 123zM776 944h-223v-536q0 -47 22 -68q23 -20 78 -20t84 12l21 -314q-82 -39 -242 -38q-203 0 -305 110t-102 305v549h-95v318h117l72 258l350 30v-288h223v-318z" />
    <glyph glyph-name="uni0237" unicode="&#x237;" horiz-adv-x="632" 
d="M547 47q0 -205 -113 -294t-299 -89q-106 0 -196 29l20 291q33 -6 61 -7q82 0 82 78v1198l445 17v-1223z" />
    <glyph glyph-name="uni0259" unicode="&#x259;" horiz-adv-x="1144" 
d="M549 332q57 0 79 28q21 29 29 125h-215q2 -85 26 -119t81 -34zM467 1282q645 0 645 -651t-561 -651q-518 0 -518 583q0 115 12 207h606q-14 78 -70 112q-55 34 -191 34t-284 -44l-47 342q177 68 408 68z" />
    <glyph glyph-name="uni02BB" unicode="&#x2bb;" horiz-adv-x="536" 
d="M502 1179q0 -83 -56 -145t-175 -61q-118 0 -177 63q-59 64 -59 168q-1 104 67 240t154 233l158 -37l-49 -237q53 -31 95 -86t42 -138z" />
    <glyph glyph-name="afii57929" unicode="&#x2bc;" horiz-adv-x="536" 
d="M35 1378q0 82 56 144t174 63q118 0 176 -63q59 -64 59 -168t-68 -240t-153 -233l-158 37l49 237q-53 29 -94 85t-41 138z" />
    <glyph glyph-name="circumflex" unicode="&#x2c6;" horiz-adv-x="813" 
d="M221 1630h373l188 -299h-319l-47 111h-13l-47 -111h-319z" />
    <glyph glyph-name="caron" unicode="&#x2c7;" horiz-adv-x="813" 
d="M596 1331h-375l-182 299h319l45 -123h13l45 123h323z" />
    <glyph glyph-name="breve" unicode="&#x2d8;" horiz-adv-x="813" 
d="M463 1630h293q0 -317 -353 -317q-188 0 -267 81t-79 236h285q2 -102 62 -102t59 102z" />
    <glyph glyph-name="dotaccent" unicode="&#x2d9;" horiz-adv-x="813" 
d="M174 1487q0 168 234 168t235 -167q0 -167 -233 -167q-121 0 -179 39q-57 39 -57 127z" />
    <glyph glyph-name="ring" unicode="&#x2da;" horiz-adv-x="813" 
d="M319 1511q1 -25 19 -35t74 -10t77 10t21 36q0 24 -18 35t-76 11t-77 -10q-20 -12 -20 -37zM412 1315q-158 1 -230 45t-71 148q0 104 68 155q69 51 231 51q303 0 303 -201q0 -104 -71 -151q-72 -47 -230 -47z" />
    <glyph glyph-name="ogonek" unicode="&#x2db;" horiz-adv-x="813" 
d="M561 -385q-135 0 -207 53t-71 144q0 182 237 243l174 -55q-82 -14 -82 -76q0 -53 80 -53q41 0 72 14l35 -221q-103 -49 -238 -49z" />
    <glyph glyph-name="tilde" unicode="&#x2dc;" horiz-adv-x="813" 
d="M271 1647q95 0 173 -37t111 -37q41 0 55 53l193 -2q0 -135 -67 -218t-159 -83q-91 0 -171 37t-113 37q-45 -1 -53 -56l-195 2q2 133 67 219t159 85z" />
    <glyph glyph-name="hungarumlaut" unicode="&#x2dd;" horiz-adv-x="813" 
d="M592 1630h442l-258 -299h-311zM127 1630h432l-213 -299h-278z" />
    <glyph glyph-name="uni0394" unicode="&#x394;" horiz-adv-x="1372" 
d="M680 909l-45 -161l-113 -379h312l-107 379l-41 161h-6zM842 1542l510 -1542h-1336l512 1542h314z" />
    <glyph glyph-name="uni03A9" unicode="&#x3a9;" horiz-adv-x="1419" 
d="M711 1556q311 0 487 -154t176 -488q0 -332 -231 -533v-6h227v-375h-631v559q68 71 101 143q32 72 32 208t-39 187q-40 50 -123 50t-123 -51t-40 -166q0 -198 63 -288q23 -34 68 -83v-559h-629v375h221l2 6q-227 193 -227 543q0 311 177 472q178 160 489 160z" />
    <glyph glyph-name="uni03BC" unicode="&#x3bc;" horiz-adv-x="1218" 
d="M620 -16q-106 0 -163 84l-4 -2q20 -250 36 -369l-419 -29v1594h444v-801q0 -45 27 -73t71 -28q100 0 101 101v801h442v-1252l-309 -22l-47 63q-73 -67 -179 -67z" />
    <glyph glyph-name="pi" unicode="&#x3c0;" horiz-adv-x="1312" 
d="M723 377v522h-117v-899h-442v895q-49 -6 -88 -23l-86 332q102 57 340 58h932v-363h-95v-522q-1 -41 17 -57t63 -17v-315q-303 0 -413 87t-111 302z" />
    <glyph glyph-name="Wgrave" unicode="&#x1e80;" horiz-adv-x="2019" 
d="M1223 1614h-357l-274 244h514zM766 1536h506l127 -864l22 -164h6l17 164l104 864h477l-317 -1536h-571l-107 803l-16 166h-6l-19 -166l-104 -803h-572l-317 1536h498l102 -870l16 -164h6l21 164z" />
    <glyph glyph-name="wgrave" unicode="&#x1e81;" horiz-adv-x="1753" 
d="M1094 1331h-330l-260 299h493zM651 1262h463l109 -813h6l12 165l70 648h432l-238 -1262h-542l-56 545l-12 168h-6l-72 -713h-543l-264 1262h445l77 -650l17 -163h6l16 163z" />
    <glyph glyph-name="Wacute" unicode="&#x1e82;" horiz-adv-x="2019" 
d="M920 1855h548l-288 -245h-351zM766 1536h506l127 -864l22 -164h6l17 164l104 864h477l-317 -1536h-571l-107 803l-16 166h-6l-19 -166l-104 -803h-572l-317 1536h498l102 -870l16 -164h6l21 164z" />
    <glyph glyph-name="wacute" unicode="&#x1e83;" horiz-adv-x="1753" 
d="M776 1630h494l-254 -299h-326zM651 1262h463l109 -813h6l12 165l70 648h432l-238 -1262h-542l-56 545l-12 168h-6l-72 -713h-543l-264 1262h445l77 -650l17 -163h6l16 163z" />
    <glyph glyph-name="Wdieresis" unicode="&#x1e84;" horiz-adv-x="2019" 
d="M1036 1753q0 156 175 156t175 -155t-176 -155q-90 0 -132 36t-42 118zM807 1909q174 0 174 -155t-174 -155q-90 0 -132 36t-42 118q0 156 174 156zM766 1536h506l127 -864l22 -164h6l17 164l104 864h477l-317 -1536h-571l-107 803l-16 166h-6l-19 -166l-104 -803h-572
l-317 1536h498l102 -870l16 -164h6l21 164z" />
    <glyph glyph-name="wdieresis" unicode="&#x1e85;" horiz-adv-x="1753" 
d="M905 1487q-1 168 177 168t178 -167t-179 -167q-90 0 -133 39t-43 127zM494 1487q0 168 177 168t177 -167t-176 -167q-92 0 -135 39t-43 127zM651 1262h463l109 -813h6l12 165l70 648h432l-238 -1262h-542l-56 545l-12 168h-6l-72 -713h-543l-264 1262h445l77 -650
l17 -163h6l16 163z" />
    <glyph glyph-name="uni1E8A" unicode="&#x1e8a;" horiz-adv-x="1378" 
d="M948 1737q0 -76 -55 -111t-193 -35t-194 33q-55 33 -55 111q0 77 57 113t193 36q135 0 191 -36t56 -111zM1380 1536l-354 -731l356 -805h-534l-152 444h-6l-51 -159l-98 -285h-545l348 795l-346 741h557l86 -236l53 -155h6l54 155l88 236h538z" />
    <glyph glyph-name="uni1E8B" unicode="&#x1e8b;" horiz-adv-x="1241" 
d="M636 1655q234 0 234 -167t-233 -167q-121 0 -178 39t-58 127q1 168 235 168zM739 0l-82 240l-49 159h-6l-121 -399h-483l313 635l-307 627h508l119 -375h6l45 157l70 218h485l-291 -619l295 -643h-502z" />
    <glyph glyph-name="Ygrave" unicode="&#x1ef2;" horiz-adv-x="1374" 
d="M901 1614h-356l-275 244h514zM938 0h-489v449l-472 1087h533l143 -465l45 -158h7l40 160l134 463h518l-459 -1087v-449z" />
    <glyph glyph-name="ygrave" unicode="&#x1ef3;" horiz-adv-x="1280" 
d="M862 1331h-330l-260 299h494zM326 -35q123 0 153 80l4 12l-489 1205h502l190 -721h6l25 164l102 557h469l-370 -1209q-121 -397 -510 -397q-131 0 -226 37l33 293q60 -21 111 -21z" />
    <glyph glyph-name="uni2007" unicode="&#x2007;" horiz-adv-x="1206" 
 />
    <glyph glyph-name="uni2008" unicode="&#x2008;" horiz-adv-x="559" 
 />
    <glyph glyph-name="uni200B" unicode="&#x200b;" horiz-adv-x="0" 
 />
    <glyph glyph-name="endash" unicode="&#x2013;" horiz-adv-x="942" 
d="M57 856h828v-307h-828v307z" />
    <glyph glyph-name="emdash" unicode="&#x2014;" horiz-adv-x="1310" 
d="M57 856h1196v-307h-1196v307z" />
    <glyph glyph-name="quoteleft" unicode="&#x2018;" horiz-adv-x="536" 
d="M502 1179q0 -83 -56 -145t-175 -61q-118 0 -177 63q-59 64 -59 168q-1 104 67 240t154 233l158 -37l-49 -237q53 -31 95 -86t42 -138z" />
    <glyph glyph-name="quoteright" unicode="&#x2019;" horiz-adv-x="536" 
d="M35 1378q0 82 56 144t174 63q118 0 176 -63q59 -64 59 -168t-68 -240t-153 -233l-158 37l49 237q-53 29 -94 85t-41 138z" />
    <glyph glyph-name="quotesinglbase" unicode="&#x201a;" horiz-adv-x="536" 
d="M265 410q118 0 176 -64q59 -64 59 -168t-68 -240t-153 -233l-158 37l49 238q-53 29 -94 85q-41 55 -41 137t56 145t174 63z" />
    <glyph glyph-name="quotedblleft" unicode="&#x201c;" horiz-adv-x="1040" 
d="M1006 1180q0 -82 -56 -144t-175 -63q-118 0 -176 63q-58 64 -58 168q1 104 67 240t152 233l158 -37l-50 -237q54 -31 96 -86t42 -137zM502 1179q0 -83 -56 -145t-175 -61q-118 0 -177 63q-59 64 -59 168q-1 104 67 240t154 233l158 -37l-49 -237q53 -31 95 -86t42 -138z
" />
    <glyph glyph-name="quotedblright" unicode="&#x201d;" horiz-adv-x="1040" 
d="M541 1372q0 82 56 144t174 63q118 0 176 -63q59 -63 59 -168t-68 -241t-154 -233l-157 37l49 238q-53 29 -94 85t-41 138zM35 1372q0 82 56 144t174 63q118 0 176 -63q59 -63 59 -168t-68 -241t-153 -233l-158 37l49 238q-53 29 -94 85t-41 138z" />
    <glyph glyph-name="quotedblbase" unicode="&#x201e;" horiz-adv-x="1040" 
d="M265 410q118 0 176 -64q59 -64 59 -168t-68 -240t-153 -233l-158 37l49 238q-53 29 -94 85q-41 55 -41 137t56 145t174 63zM771 410q118 0 176 -64q59 -64 59 -168t-68 -240t-154 -233l-157 37l49 238q-53 29 -94 85q-41 55 -41 137t56 145t174 63z" />
    <glyph glyph-name="dagger" unicode="&#x2020;" horiz-adv-x="937" 
d="M25 1284l258 -31l-41 332h452l-32 -332l251 31v-397l-251 28l32 -1200h-452l41 1200l-258 -28v397z" />
    <glyph glyph-name="daggerdbl" unicode="&#x2021;" horiz-adv-x="937" 
d="M913 426v-397l-254 32l35 -346h-452l41 346l-258 -32v397l262 -27l-4 516l-258 -28v397l258 -31l-41 332h452l-32 -332l251 31v-397l-251 28v-516z" />
    <glyph glyph-name="bullet" unicode="&#x2022;" horiz-adv-x="831" 
d="M414 288q-370 0 -369 366q0 366 370 366t369 -365q0 -367 -370 -367z" />
    <glyph glyph-name="ellipsis" unicode="&#x2026;" horiz-adv-x="1622" 
d="M518 195q0 -103 -58 -161t-182 -58t-180 50q-56 52 -57 169q1 223 239 223t238 -223zM1053 195q-1 -103 -59 -161t-182 -58t-180 50q-56 52 -57 169q0 223 239 223t239 -223zM1581 195q0 -103 -58 -161q-59 -58 -183 -58t-180 50q-56 52 -56 169q0 223 238 223t239 -223z
" />
    <glyph glyph-name="perthousand" unicode="&#x2030;" horiz-adv-x="2191" 
d="M1878 332q0 84 -43 84t-43 -84q0 -50 9 -68t33 -18t34 16t10 70zM2171 332q0 -172 -88 -263t-252 -92q-332 0 -332 355q0 182 82 270t254 88q336 0 336 -358zM1182 332q0 84 -43 84t-43 -84q0 -50 9 -68t33 -18t34 16t10 70zM1475 332q1 -172 -89 -263t-251 -92
q-332 0 -332 355q0 182 81 270t253 88q338 0 338 -358zM1042 1409l248 -197l-860 -1110l-250 197zM397 1196q0 90 -43 90q-24 0 -32 -18t-9 -72q0 -90 41 -90q25 0 34 18t9 72zM354 1548q336 0 336 -348q0 -178 -88 -269t-250 -91q-332 0 -332 354q0 182 81 268t253 86z" />
    <glyph glyph-name="guilsinglleft" unicode="&#x2039;" horiz-adv-x="749" 
d="M696 801l-252 -166l252 -166v-319l-671 473v24l671 473v-319z" />
    <glyph glyph-name="guilsinglright" unicode="&#x203a;" horiz-adv-x="749" 
d="M51 150v319l252 166l-252 166v319l674 -473v-24z" />
    <glyph glyph-name="fraction" unicode="&#x2044;" horiz-adv-x="643" 
d="M694 1536h307l-964 -1536h-305z" />
    <glyph glyph-name="uni2070" unicode="&#x2070;" 
d="M453 1382q1 111 -15 146t-52 35t-49 -34t-13 -147q0 -114 13 -146t49 -32t52 34t15 144zM750 1378q0 -406 -363 -405q-186 0 -272 100t-86 312q0 213 85 313t273 100t276 -100q87 -101 87 -320z" />
    <glyph glyph-name="uni2074" unicode="&#x2074;" 
d="M430 1331l14 185l-12 2l-106 -181l6 -10zM698 1102v-119h-278v119h-387l-25 170l332 518h358v-459h64l-6 -229h-58z" />
    <glyph glyph-name="uni2075" unicode="&#x2075;" 
d="M733 1266q0 -293 -362 -293q-182 0 -308 51l43 217q122 -41 226 -41t104 40t-95 40t-155 -10l-106 102l41 418h557l10 -244h-330l-4 -43q23 2 74 2q143 0 224 -62t81 -177z" />
    <glyph glyph-name="uni2076" unicode="&#x2076;" 
d="M455 1272q-1 43 -55 43t-66 -15q0 -56 15 -78t54 -22q52 0 52 72zM750 1258q0 -136 -92 -212t-255 -75q-379 0 -378 407q0 195 112 310q113 115 322 114q141 0 233 -33l-18 -231q-86 25 -192 25t-148 -60l4 -4q47 20 111 21q301 0 301 -262z" />
    <glyph glyph-name="uni2077" unicode="&#x2077;" 
d="M739 1788v-240l-293 -565h-342l314 545h-391l14 260h698z" />
    <glyph glyph-name="uni2078" unicode="&#x2078;" 
d="M338 1556q0 -37 92 -57q23 18 23 43q1 45 -57 45t-58 -31zM459 1214q0 26 -33 41t-86 31q-27 -27 -27 -53q0 -51 73 -51t73 32zM25 1237q0 100 90 166q-55 61 -55 169t81 169q82 61 249 61t249 -63t82 -159t-62 -161q90 -61 91 -182q0 -266 -362 -266t-363 266z" />
    <glyph glyph-name="uni2079" unicode="&#x2079;" 
d="M446 1497q0 43 -16 58t-54 15t-50 -9q-12 -10 -12 -42t12 -43q12 -12 61 -12t59 25v8zM748 1409q0 -438 -418 -438q-141 0 -260 41l43 225q94 -35 192 -35q131 0 164 80l-4 4q-53 -31 -133 -31q-154 0 -230 67q-76 68 -76 194t90 206q89 80 263 80q369 0 369 -393z" />
    <glyph glyph-name="uni207A" unicode="&#x207a;" 
d="M707 1264h-191v-195h-258v195h-192v252h192v196h258v-196h191v-252z" />
    <glyph glyph-name="uni207B" unicode="&#x207b;" 
d="M682 1278h-606v244h606v-244z" />
    <glyph glyph-name="uni207C" unicode="&#x207c;" 
d="M674 1139h-570v213h570v-213zM674 1432h-570v213h570v-213z" />
    <glyph glyph-name="uni207D" unicode="&#x207d;" horiz-adv-x="458" 
d="M356 1351q0 -292 125 -477l-196 -20q-201 176 -201 500t201 493l196 -18q-125 -186 -125 -478z" />
    <glyph glyph-name="uni207E" unicode="&#x207e;" horiz-adv-x="458" 
d="M369 1354q0 -326 -195 -500l-199 20q123 182 123 480t-123 475l199 18q195 -167 195 -493z" />
    <glyph glyph-name="uni2080" unicode="&#x2080;" 
d="M453 86q1 112 -15 146t-52 34t-49 -34t-13 -146t13 -146q13 -32 49 -32t52 34t15 144zM750 82q0 -408 -363 -408q-186 0 -272 102t-86 313q0 212 85 312q85 101 273 101q187 0 275 -100t88 -320z" />
    <glyph glyph-name="uni2081" unicode="&#x2081;" horiz-adv-x="583" 
d="M508 492v-807h-303v487l-139 -70l-27 230l280 160h189z" />
    <glyph glyph-name="uni2082" unicode="&#x2082;" horiz-adv-x="763" 
d="M364 504q180 0 265 -72q84 -72 84 -176q1 -104 -61 -173t-191 -151v-6h241l-4 -241h-632v184q49 43 112 98t123 108q96 84 96 138q0 47 -79 47t-205 -65l-70 225q141 84 321 84z" />
    <glyph glyph-name="uni2083" unicode="&#x2083;" horiz-adv-x="763" 
d="M725 -72q0 -254 -379 -254q-170 0 -289 66l60 213q113 -51 214 -51t101 39q0 53 -178 53v192q139 0 166 24q10 9 10 26q0 34 -108 34t-209 -63l-66 213q133 84 305 84t264 -67t92 -175t-100 -164v-4q117 -51 117 -166z" />
    <glyph glyph-name="uni2084" unicode="&#x2084;" 
d="M430 35l14 184l-12 2l-106 -180l6 -10zM698 -195v-120h-278v120h-387l-25 170l332 517h358v-457h64l-6 -230h-58z" />
    <glyph glyph-name="uni2085" unicode="&#x2085;" 
d="M428 209q145 -1 225 -63t80 -188t-87 -205t-270 -79t-313 54l43 217q122 -41 226 -41t104 39t-93 39t-157 -9l-106 101l41 418h557l10 -242h-330l-4 -43q23 2 74 2z" />
    <glyph glyph-name="uni2086" unicode="&#x2086;" 
d="M455 -25q-1 43 -55 43t-66 -14q0 -57 15 -79t54 -21q52 -1 52 71zM449 223q301 1 301 -261q0 -136 -92 -212t-255 -76q-379 0 -378 408q1 194 113 308t321 114q139 0 233 -31l-18 -231q-86 24 -192 24t-148 -59l4 -4q47 20 111 20z" />
    <glyph glyph-name="uni2087" unicode="&#x2087;" 
d="M739 492v-240l-293 -567h-342l314 546h-391l14 261h698z" />
    <glyph glyph-name="uni2088" unicode="&#x2088;" 
d="M338 260q0 -37 92 -57q23 18 23 43q1 45 -57 45t-58 -31zM459 -82q0 25 -29 40t-90 32q-27 -27 -27 -53q0 -51 73 -51t73 32zM25 -59q0 100 90 165q-55 61 -55 168t81 168q82 62 249 62t249 -62t82 -158t-62 -161q90 -66 91 -182q0 -268 -362 -268t-363 268z" />
    <glyph glyph-name="uni2089" unicode="&#x2089;" 
d="M377 274q-39 0 -51 -11t-12 -42t12 -42t61 -11t59 25q2 49 -14 65t-55 16zM748 113q0 -438 -418 -439q-141 0 -260 41l43 226q94 -35 192 -35q131 0 164 80l-4 4q-59 -31 -133 -31q-154 0 -230 67q-76 66 -76 192t90 206q89 80 270 80q362 0 362 -391z" />
    <glyph glyph-name="uni208A" unicode="&#x208a;" 
d="M707 -33h-191v-196h-258v196h-192v252h192v197h258v-197h191v-252z" />
    <glyph glyph-name="uni208B" unicode="&#x208b;" 
d="M682 -18h-606v243h606v-243z" />
    <glyph glyph-name="uni208C" unicode="&#x208c;" 
d="M674 -158h-570v213h570v-213zM674 135h-570v213h570v-213z" />
    <glyph glyph-name="uni208D" unicode="&#x208d;" horiz-adv-x="458" 
d="M356 60q0 -292 125 -476l-196 -20q-201 174 -201 496t201 497l196 -20q-125 -185 -125 -477z" />
    <glyph glyph-name="uni208E" unicode="&#x208e;" horiz-adv-x="458" 
d="M369 61q0 -326 -195 -497l-199 20q123 182 123 478t-123 475l199 20q195 -170 195 -496z" />
    <glyph glyph-name="franc" unicode="&#x20a3;" horiz-adv-x="1206" 
d="M47 453h88v1083h991l9 -418h-521v-170h383l-4 -395h-379v-100h109v-308h-109v-145h-479v145h-88v308z" />
    <glyph glyph-name="lira" unicode="&#x20a4;" horiz-adv-x="1206" 
d="M750 1569q170 0 335 -51l-51 -388q-121 35 -223 35t-149 -43t-48 -106v-2h437v-230h-369q12 -37 16 -55h353v-227h-351q-25 -70 -86 -109l4 -6q116 31 254 31t267 -21l-21 -413q-424 58 -993 4l-27 403q51 2 95 34q43 32 67 77h-119l-12 227h127l-18 55h-115l-17 230h44
q-10 51 -11 96q1 199 149 329t462 130z" />
    <glyph glyph-name="peseta" unicode="&#x20a7;" horiz-adv-x="1206" 
d="M594 786q55 0 81 16t34 62h-181v-78h66zM528 1161v-86h183q-8 49 -35 67t-84 19h-64zM594 430h-64v-430h-444v864h-55v211h55v461h508q285 0 420 -110t155 -351h66l-2 -211h-64q-23 -218 -157 -326t-418 -108z" />
    <glyph glyph-name="Euro" unicode="&#x20ac;" horiz-adv-x="1206" 
d="M940 344q59 0 172 31l31 -334q-129 -61 -330 -61q-518 0 -618 520h-148l2 223h121v55h-121l-2 232h148q55 246 222 389t417 143q184 0 319 -51l-84 -367q-49 18 -125 19q-190 0 -248 -133h355l-50 -232h-344v-55h330l-47 -223h-250q57 -156 250 -156z" />
    <glyph glyph-name="trademark" unicode="&#x2122;" horiz-adv-x="1431" 
d="M545 1313h-131v-381h-271v381h-135v219h537v-219zM1401 932h-234v112l4 166l-6 2l-82 -280h-184l-37 112l-47 160l-4 -2l2 -137v-133h-227v600h327l82 -283h6l37 142l43 141h320v-600z" />
    <glyph glyph-name="Omega" unicode="&#x2126;" horiz-adv-x="1419" 
d="M711 1556q311 0 487 -154t176 -488q0 -332 -231 -533v-6h227v-375h-631v559q68 71 101 143q32 72 32 208t-39 187q-40 50 -123 50t-123 -51t-40 -166q0 -198 63 -288q23 -34 68 -83v-559h-629v375h221l2 6q-227 193 -227 543q0 311 177 472q178 160 489 160z" />
    <glyph glyph-name="uni2150" unicode="&#x2150;" horiz-adv-x="2002" 
d="M1966 805v-238l-293 -567h-342l314 547h-392l15 258h698zM1278 1536h307l-964 -1536h-306zM508 1536v-807h-303v485l-139 -67l-27 229l280 160h189z" />
    <glyph glyph-name="uni2151" unicode="&#x2151;" horiz-adv-x="2002" 
d="M1540 536q0 -32 12 -43t62 -11t59 26q2 47 -14 64q-15 18 -55 18t-52 -11t-12 -43zM1974 426q0 -436 -418 -436q-147 0 -260 39l43 225q90 -33 207 -33t150 78l-4 4q-55 -29 -133 -29q-154 0 -230 67t-76 193t89 205q89 80 264 80q368 0 368 -393zM1278 1536h307
l-964 -1536h-306zM508 1536v-807h-303v485l-139 -67l-27 229l280 160h189z" />
    <glyph glyph-name="uni2152" unicode="&#x2152;" horiz-adv-x="2586" 
d="M2134 399q0 -113 13 -145t49 -31t52 33q15 32 15 144t-15 146t-51 34q-35 0 -49 -34t-14 -147zM2560 397q0 -408 -362 -407q-186 0 -273 101q-86 101 -86 313t85 312q86 100 274 101q188 -1 275 -101t87 -319zM1735 807v-807h-303v485l-140 -67l-26 229l280 160h189z
M1278 1536h307l-964 -1536h-306zM508 1536v-807h-303v485l-139 -67l-27 229l280 160h189z" />
    <glyph glyph-name="onethird" unicode="&#x2153;" horiz-adv-x="1763" 
d="M573 1536v-807h-303v485l-139 -67l-27 229l281 160h188zM1696 244q0 -254 -379 -254q-178 0 -287 65l57 213q121 -53 219 -53t97 41q0 53 -178 53v193q144 0 167 21q9 9 9 26q-1 35 -107 35t-209 -62l-65 213q131 82 305 82q174 -1 265 -67t91 -176t-100 -160v-6
q115 -53 115 -164zM1167 1536h308l-965 -1536h-305z" />
    <glyph glyph-name="twothirds" unicode="&#x2154;" horiz-adv-x="1763" 
d="M1733 244q0 -254 -379 -254q-178 0 -287 65l57 213q120 -53 218 -53t98 41q0 53 -178 53v193q145 0 166 21q9 9 10 26q0 35 -106 35t-210 -62l-65 213q131 82 305 82q174 -1 265 -67t91 -176t-100 -160v-6q115 -53 115 -164zM1221 1536h307l-965 -1536h-305zM711 1282
q1 -86 -61 -154t-193 -153v-6h243l-4 -240h-633v182q49 43 144 126t142 129q46 46 46 91t-81 45t-203 -63l-70 225q141 84 321 84t265 -72q84 -72 84 -194z" />
    <glyph glyph-name="uni2155" unicode="&#x2155;" horiz-adv-x="2002" 
d="M1960 283q0 -293 -363 -293q-182 0 -307 51l43 217q133 -41 213 -41t99 10q18 10 18 33q0 37 -93 37t-157 -8l-106 100l41 418h557l10 -242h-330l-4 -45q23 2 74 2q143 0 224 -62t81 -177zM1278 1536h307l-964 -1536h-306zM508 1536v-807h-303v485l-139 -67l-27 229
l280 160h189z" />
    <glyph glyph-name="uni2156" unicode="&#x2156;" horiz-adv-x="2183" 
d="M2140 283q0 -293 -362 -293q-182 0 -308 51l43 217q133 -41 213 -41t99 10q18 10 18 33q0 37 -93 37t-157 -8l-106 100l41 418h557l10 -242h-330l-4 -45q23 2 74 2q143 0 224 -62t81 -177zM1458 1536h307l-964 -1536h-305zM713 1282q1 -86 -61 -154t-193 -153v-6h243
l-4 -240h-632v182q49 43 112 99t124 108q95 83 95 137q0 47 -81 47t-203 -63l-70 225q141 84 321 84t265 -72q84 -72 84 -194z" />
    <glyph glyph-name="uni2157" unicode="&#x2157;" horiz-adv-x="2183" 
d="M2140 283q0 -293 -362 -293q-182 0 -308 51l43 217q133 -41 213 -41t99 10q18 10 18 33q0 37 -93 37t-157 -8l-106 100l41 418h557l10 -242h-330l-4 -45q23 2 74 2q143 0 224 -62t81 -177zM1458 1536h307l-964 -1536h-305zM725 973q0 -254 -379 -254q-176 0 -289 65
l60 213q117 -53 216 -53t99 41q0 53 -178 53v193q143 0 166 21q10 9 10 26q0 35 -108 35t-209 -62l-66 213q133 84 305 84t264 -66t92 -176t-100 -165v-4q117 -51 117 -164z" />
    <glyph glyph-name="uni2158" unicode="&#x2158;" horiz-adv-x="2195" 
d="M2152 283q0 -293 -362 -293q-182 0 -307 51l43 217q134 -41 214 -41t98 10q17 10 17 33q0 37 -93 37t-156 -8l-107 100l41 418h557l10 -242h-329l-4 -45q23 2 73 2q143 0 224 -62t81 -177zM1470 1536h308l-965 -1536h-305zM430 1079l14 185l-12 2l-106 -181l6 -10z
M698 850v-121h-278v121h-387l-25 170l332 516h358v-457h64l-6 -229h-58z" />
    <glyph glyph-name="uni2159" unicode="&#x2159;" horiz-adv-x="2002" 
d="M1681 291q0 43 -53 43t-67 -15q0 -57 15 -79t54 -21q51 0 51 72zM1976 276q0 -136 -91 -212q-91 -74 -255 -74q-379 0 -379 405q0 195 113 310t322 114q141 0 233 -33l-18 -229q-80 23 -190 23t-150 -58l4 -4q47 20 110 21q301 1 301 -263zM1278 1536h307l-964 -1536
h-306zM508 1536v-807h-303v485l-139 -67l-27 229l280 160h189z" />
    <glyph glyph-name="uni215A" unicode="&#x215a;" horiz-adv-x="2195" 
d="M1874 291q0 43 -53 43t-68 -15q0 -57 15 -79t55 -21q51 0 51 72zM2169 276q0 -136 -91 -212q-91 -74 -255 -74q-379 0 -379 405q0 195 112 310q113 115 322 114q141 0 233 -33l-18 -229q-79 23 -189 23t-151 -58l4 -4q47 20 111 21q301 1 301 -263zM1470 1536h308
l-965 -1536h-305zM733 1012q0 -293 -362 -293q-182 0 -308 51l43 217q133 -41 214 -41t99 10q17 10 17 33q0 37 -93 37t-157 -8l-106 100l41 418h557l10 -242h-330l-4 -45l74 2q143 0 224 -62t81 -177z" />
    <glyph glyph-name="oneeighth" unicode="&#x215b;" horiz-adv-x="1763" 
d="M1266 573q0 -37 92 -57q23 23 22 43q0 45 -57 45t-57 -31zM1386 231q0 25 -27 40q-28 15 -91 34q-27 -27 -27 -53q1 -52 73 -52t72 31zM952 254q0 102 90 168q-55 66 -55 170t82 166q82 61 249 61t249 -62q82 -61 82 -157t-62 -162q90 -66 90 -184q-1 -266 -363 -266
t-362 266zM1153 1536h307l-964 -1536h-306zM573 1536v-807h-303v485l-139 -67l-27 229l281 160h188z" />
    <glyph glyph-name="threeeighths" unicode="&#x215c;" horiz-adv-x="1763" 
d="M1305 573q0 -37 92 -57q23 23 22 43q0 45 -57 45t-57 -31zM1425 231q0 25 -27 40q-28 15 -91 34q-27 -27 -27 -53q0 -52 72 -52t73 31zM991 254q0 102 90 168q-55 66 -55 170t82 166q82 61 249 61t249 -62q82 -61 82 -157t-62 -162q90 -66 90 -184q0 -266 -362 -266
t-363 266zM1206 1536h307l-964 -1536h-305zM743 973q0 -254 -378 -254q-176 0 -289 65l59 213q117 -53 216 -53t100 41q0 53 -179 53v193q143 0 166 21q10 9 11 26q0 35 -108 35t-210 -62l-65 213q133 84 305 84t264 -66t92 -176t-100 -165v-4q116 -51 116 -164z" />
    <glyph glyph-name="fiveeighths" unicode="&#x215d;" horiz-adv-x="1763" 
d="M1298 573q0 -37 93 -57q23 23 22 43q1 45 -57 45t-58 -31zM1419 231q0 25 -27 40q-28 15 -92 34q-27 -27 -26 -53q0 -52 72 -52t73 31zM985 254q0 102 90 168q-55 66 -55 170t82 166q82 61 249 61t249 -62q82 -61 81 -157q0 -96 -61 -162q90 -66 90 -184
q0 -266 -362 -266t-363 266zM1190 1536h307l-965 -1536h-305zM733 1012q0 -293 -362 -293q-182 0 -308 51l43 217q133 -41 214 -41t99 10q17 10 17 33q0 37 -93 37t-157 -8l-106 100l41 418h557l10 -242h-330l-4 -45l74 2q143 0 224 -62t81 -177z" />
    <glyph glyph-name="seveneighths" unicode="&#x215e;" horiz-adv-x="1763" 
d="M1276 573q0 -37 92 -57q23 23 23 43q1 45 -57 45t-58 -31zM1397 231q0 25 -28 40t-91 34q-27 -27 -27 -53q0 -52 73 -52t73 31zM963 254q0 102 90 168q-55 66 -55 170t81 166q82 61 249 61t249 -62q82 -61 82 -157t-62 -162q90 -66 91 -184q0 -266 -362 -266t-363 266z
M1163 1536h307l-964 -1536h-305zM815 1536v-240l-293 -567h-342l314 547h-392l15 260h698z" />
    <glyph glyph-name="uni215F" unicode="&#x215f;" horiz-adv-x="1226" 
d="M1278 1536h307l-964 -1536h-306zM508 1536v-807h-303v485l-139 -67l-27 229l280 160h189z" />
    <glyph glyph-name="uni2189" unicode="&#x2189;" horiz-adv-x="1925" 
d="M1886 244q0 -254 -379 -254q-178 0 -286 65l57 213q119 -53 217 -53t98 41q0 53 -178 53v193q146 0 167 21q9 9 9 26q-1 35 -107 35t-208 -62l-66 213q132 82 306 82q174 -1 265 -67t91 -176t-100 -160v-6q114 -53 114 -164zM1212 1536h308l-965 -1536h-305zM324 1128
q0 -112 13 -144t49 -32t52 32t15 145q1 112 -15 146t-52 34t-49 -34t-13 -147zM750 1126q0 -408 -363 -407q-186 0 -272 101t-86 313q0 213 85 313t273 100t276 -100q87 -101 87 -320z" />
    <glyph glyph-name="partialdiff" unicode="&#x2202;" horiz-adv-x="1245" 
d="M739 657q0 113 -98 113q-147 0 -147 -344q0 -119 102 -119q143 0 143 350zM88 1405q234 145 480 145q124 0 206 -24t163 -79q171 -118 239 -348q37 -128 36 -284q0 -397 -171 -620t-519 -224q-489 0 -489 502q0 301 150 462q151 161 399 161q90 0 174 -43l4 4
q-52 131 -234 131t-338 -78z" />
    <glyph glyph-name="Delta" unicode="&#x2206;" horiz-adv-x="1372" 
d="M680 909l-45 -161l-113 -379h312l-107 379l-41 161h-6zM842 1542l510 -1542h-1336l512 1542h314z" />
    <glyph glyph-name="product" unicode="&#x220f;" horiz-adv-x="1452" 
d="M629 -328h-420v1551l-170 22l-8 291h1390l-6 -289l-168 -22v-1553h-420v1520h-198v-1520z" />
    <glyph glyph-name="summation" unicode="&#x2211;" horiz-adv-x="1282" 
d="M70 -328v232l569 721l-569 651v260h1138l9 -362h-562l-2 -5l111 -118l334 -385v-82l-361 -430l-106 -119l2 -6h608l-8 -357h-1163z" />
    <glyph glyph-name="minus" unicode="&#x2212;" horiz-adv-x="1169" 
d="M1051 481h-932v383h932v-383z" />
    <glyph glyph-name="uni2219" unicode="&#x2219;" horiz-adv-x="1169" 
d="M584 288q-370 0 -369 366q0 366 370 366t369 -365q0 -367 -370 -367z" />
    <glyph glyph-name="radical" unicode="&#x221a;" horiz-adv-x="1253" 
d="M8 668l-2 389h459l129 -539h6l31 162l194 913h471l-419 -1593h-541l-203 668h-125z" />
    <glyph glyph-name="infinity" unicode="&#x221e;" horiz-adv-x="1519" 
d="M1030 754q-36 0 -60 -30t-50 -91q41 -35 102 -35q80 0 80 84q0 72 -72 72zM489 623q37 -1 61 29t48 89q-45 37 -100 37q-82 0 -82 -84q-1 -71 73 -71zM1066 276q-190 0 -298 97q-111 -97 -295 -97t-302 112t-118 300q1 188 105 300t294 112t298 -96q111 96 296 96
t302 -111q116 -111 116 -300t-104 -301t-294 -112z" />
    <glyph glyph-name="integral" unicode="&#x222b;" horiz-adv-x="661" 
d="M106 72v1159q0 209 130 306t413 97l8 -264q-98 0 -98 -139l-4 -1141q0 -234 -127 -334t-414 -100l-10 266q102 0 102 150z" />
    <glyph glyph-name="approxequal" unicode="&#x2248;" horiz-adv-x="1206" 
d="M830 225q-104 0 -240 36q-135 36 -195 36q-127 0 -233 -53v321q117 55 219 55t237 -35q135 -36 195 -36q125 0 229 55v-323q-108 -56 -212 -56zM828 670q-104 0 -238 35q-135 35 -195 34q-127 0 -233 -53v324q113 53 217 53t239 -35t195 -35q123 0 229 54v-324
q-110 -53 -214 -53z" />
    <glyph glyph-name="notequal" unicode="&#x2260;" horiz-adv-x="1206" 
d="M1042 1030v-321h-239l-55 -121h294v-324h-438l-104 -233l-279 125l47 108h-106v324h252l53 121h-305v321h450l103 230l278 -125l-47 -105h96z" />
    <glyph glyph-name="lessequal" unicode="&#x2264;" horiz-adv-x="1206" 
d="M1075 43h-940v342h940v-342zM1071 963l-379 -56l-164 -18v-6l547 -72v-403l-944 280v406l940 280v-411z" />
    <glyph glyph-name="greaterequal" unicode="&#x2265;" horiz-adv-x="1206" 
d="M1069 43h-938v342h938v-342zM131 408v403l547 72v6l-166 18l-379 56v411l942 -280v-406z" />
    <glyph glyph-name="dotmath" unicode="&#x22c5;" horiz-adv-x="1169" 
d="M823 705q0 -103 -58 -161t-182 -58q-125 0 -181 50q-56 52 -56 169q0 223 238 223t239 -223z" />
    <glyph glyph-name="lozenge" unicode="&#x25ca;" horiz-adv-x="1218" 
d="M754 727l-146 182l-145 -182l143 -180zM31 725l577 719l580 -719l-580 -723z" />
    <glyph glyph-name="fi" unicode="&#xfb01;" horiz-adv-x="1392" 
d="M842 1487q0 168 234 168t235 -167q0 -167 -234 -167q-121 0 -178 39t-57 127zM575 0h-444v946h-117v316h115v55q0 135 111 228t315 93q119 0 190 -22l-12 -283q-45 8 -78 8q-80 0 -80 -38v-41h725v-1262h-454v946h-271v-946z" />
    <glyph glyph-name="fl" unicode="&#xfb02;" horiz-adv-x="1327" 
d="M1251 0h-448v1341q-168 23 -205 -7q-23 -17 -23 -54v-18h119v-316h-119v-946h-444v946h-117v316h115v38q0 150 130 244t439 94q102 0 282 -19t271 -24v-1595z" />
    <glyph glyph-name="i.latn_TRK" horiz-adv-x="630" 
d="M80 1487q0 168 234 168t235 -167q0 -167 -234 -167q-121 0 -178 39t-57 127zM543 0h-455v1251l455 19v-1270z" />
    <glyph glyph-name="Ldot.latn_CAT" horiz-adv-x="1056" 
d="M559 414h477l-10 -414h-950v1536h483v-1122zM1040 850q0 -84 -48 -131t-149 -47t-149 42q-47 42 -47 136q1 182 197 182t196 -182z" />
    <glyph glyph-name="ldot.latn_CAT" horiz-adv-x="925" 
d="M524 0h-448v1579l448 20v-1599zM586 836q0 166 177 166t177 -165t-176 -165q-94 0 -136 38t-42 126z" />
    <glyph glyph-name="dollar.subs" horiz-adv-x="681" 
d="M399 250q-77 0 -77 -13t34 -23t82 -24q50 -14 98 -36t82 -74q34 -51 33 -135q0 -84 -52 -150t-153 -90l-10 -115h-221l8 109q-98 12 -174 49l35 234q125 -58 209 -58t84 14t-51 26q-50 14 -112 30t-114 74t-51 154q1 95 59 167t179 94l16 133h219l-12 -137q51 -8 113 -28
l-31 -228q-115 27 -193 27z" />
    <glyph glyph-name="comma.subs" horiz-adv-x="368" 
d="M174 -63q154 0 154 -152q0 -57 -43 -137t-97 -129l-104 20l31 133q-84 45 -84 121q0 144 143 144z" />
    <glyph glyph-name="period.subs" horiz-adv-x="368" 
d="M31 -195q-1 137 153 137t154 -136t-154 -136q-82 0 -118 31t-35 104z" />
    <glyph glyph-name="cent.subs" horiz-adv-x="681" 
d="M348 101q0 -158 158 -158q47 0 131 18l18 -205q-53 -31 -129 -39l-12 -127h-227l12 140q-260 66 -260 364q0 342 309 385l17 139h227l-14 -145q28 -4 67 -16l-14 -224q-193 42 -250 -17q-33 -34 -33 -115z" />
    <glyph glyph-name="dollar.sups" horiz-adv-x="681" 
d="M651 1240q0 -84 -52 -150t-153 -91l-10 -112h-221l8 106q-92 12 -174 51l35 236q123 -59 208 -59t85 13q0 12 -51 26q-50 14 -112 30t-114 76t-51 154t59 166t179 94l16 133h219l-12 -137q51 -8 113 -29l-31 -227q-115 26 -193 26q-77 0 -77 -13t34 -23t82 -24
q50 -13 98 -36t82 -74t33 -136z" />
    <glyph glyph-name="comma.sups" horiz-adv-x="368" 
d="M174 1233q154 0 154 -152q0 -57 -43 -135t-97 -129l-104 19l31 133q-84 45 -84 121q0 143 143 143z" />
    <glyph glyph-name="period.sups" horiz-adv-x="368" 
d="M31 1102q-1 137 153 137t154 -136t-154 -136q-82 1 -118 31t-35 104z" />
    <glyph glyph-name="cent.sups" horiz-adv-x="681" 
d="M486 1546q-72 0 -105 -34t-33 -114q0 -158 158 -159q39 0 131 18l18 -204q-47 -29 -129 -39l-12 -127h-227l12 139q-260 66 -260 367q0 338 309 385l17 137h227l-14 -146q28 -4 67 -16l-14 -223q-73 16 -145 16z" />
    <glyph glyph-name="dollar.numr" horiz-adv-x="681" 
d="M651 988q0 -84 -52 -150t-153 -90l-10 -113h-221l8 106q-92 12 -174 52l35 235q129 -59 211 -59t82 13q0 12 -51 26q-50 14 -112 30t-114 76t-51 154q1 96 59 167t179 93l16 133h219l-12 -137q51 -8 113 -29l-31 -227q-115 26 -193 26q-77 0 -77 -13t34 -23t82 -24
q50 -13 98 -36t82 -74t33 -136z" />
    <glyph glyph-name="parenleft.numr" horiz-adv-x="458" 
d="M356 1098q0 -291 125 -475l-196 -21q-201 174 -201 496t201 497l196 -20q-125 -186 -125 -477z" />
    <glyph glyph-name="parenright.numr" horiz-adv-x="458" 
d="M369 1100q0 -326 -195 -498l-199 21q123 182 123 478t-123 474l199 20q195 -169 195 -495z" />
    <glyph glyph-name="plus.numr" 
d="M707 1012h-191v-197h-258v197h-192v252h192v194h258v-194h191v-252z" />
    <glyph glyph-name="comma.numr" horiz-adv-x="368" 
d="M174 979q154 0 154 -152q0 -57 -43 -135t-97 -129l-104 21l31 131q-84 45 -84 123q0 141 143 141z" />
    <glyph glyph-name="period.numr" horiz-adv-x="368" 
d="M338 850q0 -135 -154 -135q-82 1 -118 31t-35 104q-1 135 153 135t154 -135z" />
    <glyph glyph-name="zero.numr" 
d="M324 1128q0 -112 13 -144t49 -32t52 32t15 145q1 112 -15 146t-52 34t-49 -34t-13 -147zM750 1126q0 -408 -363 -407q-186 0 -272 101t-86 313q0 213 85 313t273 100t276 -100q87 -101 87 -320z" />
    <glyph glyph-name="one.numr" horiz-adv-x="583" 
d="M508 1536v-807h-303v485l-139 -67l-27 229l280 160h189z" />
    <glyph glyph-name="two.numr" horiz-adv-x="763" 
d="M713 1282q1 -86 -61 -154t-193 -153v-6h243l-4 -240h-632v182q49 43 112 99t124 108q95 83 95 137q0 47 -81 47t-203 -63l-70 225q141 84 321 84t265 -72q84 -72 84 -194z" />
    <glyph glyph-name="three.numr" horiz-adv-x="763" 
d="M725 973q0 -254 -379 -254q-176 0 -289 65l60 213q117 -53 216 -53t99 41q0 53 -178 53v193q143 0 166 21q10 9 10 26q0 35 -108 35t-209 -62l-66 213q133 84 305 84t264 -66t92 -176t-100 -165v-4q117 -51 117 -164z" />
    <glyph glyph-name="four.numr" 
d="M430 1079l14 185l-12 2l-106 -181l6 -10zM698 850v-121h-278v121h-387l-25 170l332 516h358v-457h64l-6 -229h-58z" />
    <glyph glyph-name="five.numr" 
d="M733 1012q0 -293 -362 -293q-182 0 -308 51l43 217q133 -41 214 -41t99 10q17 10 17 33q0 37 -93 37t-157 -8l-106 100l41 418h557l10 -242h-330l-4 -45l74 2q143 0 224 -62t81 -177z" />
    <glyph glyph-name="six.numr" 
d="M455 1020q-1 43 -55 43t-66 -14q0 -57 15 -79t54 -22q52 0 52 72zM750 1004q0 -136 -92 -210t-255 -75q-379 0 -378 405q0 195 112 310q113 115 322 114q141 0 233 -32l-18 -230q-80 23 -190 23t-150 -58l4 -4q47 20 111 21q301 0 301 -264z" />
    <glyph glyph-name="seven.numr" 
d="M739 1536v-240l-293 -567h-342l314 547h-391l14 260h698z" />
    <glyph glyph-name="eight.numr" 
d="M338 1303q0 -37 92 -58q23 18 23 45q1 44 -57 44t-58 -31zM459 961q0 25 -28 39t-91 34q-27 -27 -27 -53q0 -51 73 -51t73 31zM25 985q0 96 90 166q-55 67 -55 171t81 165q82 61 249 61t249 -62t82 -158t-62 -161q90 -66 91 -184q0 -266 -362 -266t-363 268z" />
    <glyph glyph-name="nine.numr" 
d="M377 1319q-39 0 -51 -11t-12 -43t12 -43q12 -12 61 -12t59 27q2 47 -14 65t-55 17zM748 1155q0 -436 -418 -436q-137 0 -260 39l43 225q98 -33 192 -33q131 0 164 78l-4 4q-55 -29 -133 -28q-154 0 -230 66t-76 192t90 206q89 80 263 80q369 0 369 -393z" />
    <glyph glyph-name="equal.numr" 
d="M674 885h-570v215h570v-215zM674 1180h-570v213h570v-213z" />
    <glyph glyph-name="cent.numr" horiz-adv-x="681" 
d="M486 1292q-70 0 -104 -34t-34 -114t42 -119q42 -40 104 -40t143 19l18 -205q-49 -29 -127 -37l-12 -129h-227l12 139q-262 66 -262 367q0 340 311 385l15 137h227l-14 -143q36 -7 67 -17l-14 -225q-75 16 -145 16z" />
    <glyph glyph-name="minus.numr" 
d="M682 1026h-606v242h606v-242z" />
    <glyph glyph-name="dollar.dnom" horiz-adv-x="681" 
d="M651 259q0 -85 -52 -151t-153 -90l-10 -112h-221l8 106q-92 12 -174 51l35 234q125 -57 209 -57t84 13t-51 27q-50 14 -112 29q-62 17 -114 75t-51 154t59 167q58 72 179 94l16 133h219l-12 -137q51 -8 113 -29l-31 -227q-115 27 -193 27q-77 0 -77 -14t34 -24t82 -23
q50 -13 98 -36t82 -74t33 -136z" />
    <glyph glyph-name="parenleft.dnom" horiz-adv-x="458" 
d="M356 370q0 -290 125 -479l-196 -18q-201 173 -201 497t201 494l196 -18q-125 -186 -125 -476z" />
    <glyph glyph-name="parenright.dnom" horiz-adv-x="458" 
d="M369 370q0 -326 -195 -497l-199 18q123 185 123 481t-123 474l199 18q195 -168 195 -494z" />
    <glyph glyph-name="plus.dnom" 
d="M707 283h-191v-197h-258v197h-192v252h192v194h258v-194h191v-252z" />
    <glyph glyph-name="comma.dnom" horiz-adv-x="368" 
d="M174 250q154 0 154 -152q0 -57 -43 -135t-97 -129l-104 19l31 133q-84 45 -84 123q0 141 143 141z" />
    <glyph glyph-name="period.dnom" horiz-adv-x="368" 
d="M338 121q0 -135 -154 -135q-82 0 -118 30t-35 105q-1 135 153 135t154 -135z" />
    <glyph glyph-name="zero.dnom" 
d="M324 399q0 -113 13 -145t49 -31t52 33t15 144q1 112 -15 146t-52 34t-49 -34t-13 -147zM750 397q0 -408 -363 -407q-186 0 -272 101t-86 313t85 312t273 101q188 0 276 -100q87 -101 87 -320z" />
    <glyph glyph-name="one.dnom" horiz-adv-x="583" 
d="M508 807v-807h-303v485l-139 -67l-27 229l280 160h189z" />
    <glyph glyph-name="two.dnom" horiz-adv-x="763" 
d="M713 553q1 -86 -61 -154t-193 -153v-6h243l-4 -240h-632v182q49 42 112 98t124 109q95 83 95 137q0 47 -82 47t-202 -65l-70 227q139 82 321 82q182 1 265 -71q84 -72 84 -193z" />
    <glyph glyph-name="three.dnom" horiz-adv-x="763" 
d="M725 244q0 -254 -379 -254q-178 0 -287 65l58 213q121 -53 218 -53t97 41q0 53 -178 53v193q146 0 167 21q9 9 9 26q0 35 -106 35t-209 -62l-66 213q131 82 305 82t266 -66q91 -67 91 -177t-101 -160v-6q115 -53 115 -164z" />
    <glyph glyph-name="four.dnom" 
d="M430 350l14 185l-12 2l-106 -181l6 -10zM698 121v-121h-278v121h-387l-25 170l332 516h358v-457h64l-6 -229h-58z" />
    <glyph glyph-name="five.dnom" 
d="M733 283q0 -293 -362 -293q-182 0 -308 51l43 217q133 -41 214 -41t99 10q17 10 17 33q0 37 -93 37t-157 -8l-106 100l41 418h557l10 -242h-330l-4 -45q23 2 74 2q143 0 224 -62t81 -177z" />
    <glyph glyph-name="six.dnom" 
d="M455 291q1 43 -53 43t-68 -15q0 -57 15 -79t54 -21q52 0 52 72zM750 276q0 -136 -92 -212q-92 -74 -255 -74q-379 0 -378 405q0 195 112 310q113 115 322 114q141 0 233 -33l-18 -229q-80 23 -190 23t-150 -58l4 -4q47 20 111 21q301 1 301 -263z" />
    <glyph glyph-name="seven.dnom" 
d="M739 805v-238l-293 -567h-342l314 547h-391l14 258h698z" />
    <glyph glyph-name="eight.dnom" 
d="M338 573q0 -37 92 -57q23 23 23 43q1 45 -57 45t-58 -31zM459 231q0 25 -28 40t-91 34q-27 -27 -27 -53q0 -52 73 -52t73 31zM25 254q0 102 90 168q-55 66 -55 170t81 166q82 61 249 61t249 -62q82 -61 82 -157t-62 -162q90 -66 91 -184q0 -266 -362 -266t-363 266z" />
    <glyph glyph-name="nine.dnom" 
d="M446 508q2 47 -14 64q-16 18 -55 18t-51 -11t-12 -43t12 -43t61 -11t59 26zM748 426q0 -436 -418 -436q-147 0 -260 39l43 225q91 -33 207 -33t149 78l-4 4q-55 -29 -133 -29q-154 0 -230 67t-76 193t90 205q89 80 263 80q369 0 369 -393z" />
    <glyph glyph-name="equal.dnom" 
d="M674 156h-570v215h570v-215zM674 449h-570v215h570v-215z" />
    <glyph glyph-name="cent.dnom" horiz-adv-x="681" 
d="M486 563q-70 0 -104 -34q-34 -33 -34 -113t42 -120t102 -40t145 18l18 -204q-47 -27 -127 -39l-12 -127h-227l12 137q-127 33 -195 128t-67 241q0 340 311 385l15 137h227l-14 -144q36 -6 67 -16l-14 -225q-75 16 -145 16z" />
    <glyph glyph-name="minus.dnom" 
d="M682 297h-606v242h606v-242z" />
    <glyph glyph-name="space.frac" horiz-adv-x="83" 
 />
    <glyph glyph-name="numbersign.osf" horiz-adv-x="1169" 
d="M537 750l-27 -181h123l24 181h-120zM47 569h127l27 181h-154v294h191l38 285h338l-39 -285h119l41 285h332l-39 -285h94v-294h-133l-26 -181h159v-299h-196l-37 -270h-330l37 270h-123l-39 -270h-336l37 270h-88v299z" />
    <glyph glyph-name="dollar.osf" horiz-adv-x="964" 
d="M932 416q0 -344 -309 -420l-17 -223h-332l15 211q-131 16 -226 59l39 352q141 -68 324 -67q96 0 96 51q0 33 -49 53t-120 43t-141 59t-120 120q-49 84 -49 222t84 246t252 144l18 217h332l-20 -217q92 -18 174 -49l-31 -347q-147 53 -315 54q-72 0 -72 -43q0 -48 122 -80
t224 -105q51 -38 86 -110t35 -170z" />
    <glyph glyph-name="zero.osf" horiz-adv-x="1163" 
d="M582 987q-55 0 -78 -60t-23 -232q1 -172 13 -243t30 -88q18 -18 56 -18t55 20q43 47 43 304q0 258 -43 299q-18 18 -53 18zM1128 676q0 -360 -134 -528t-418 -168t-413 166q-128 166 -128 529t128 525t417 162q288 0 418 -164q130 -162 130 -522z" />
    <glyph glyph-name="one.osf" horiz-adv-x="862" 
d="M752 1341v-1341h-457v850l-201 -102l-45 339l430 254h273z" />
    <glyph glyph-name="two.osf" horiz-adv-x="1079" 
d="M1042 940q0 -154 -94 -281t-299 -290v-7h383l-10 -362h-948v272q39 40 97 98l90 90q207 207 255 283t54 104q7 28 8 52q0 92 -127 92t-304 -104l-102 336q207 137 477 137t394 -115q126 -115 126 -305z" />
    <glyph glyph-name="three.osf" horiz-adv-x="1071" 
d="M1026 393q0 -293 -218 -443t-628 -163l-41 342q453 16 453 252q0 115 -148 117q-55 0 -112 -15l-23 293q162 18 217 45t56 86q0 88 -158 88t-303 -96l-94 342q184 123 436 123t390 -112t138 -292t-121 -278q156 -96 156 -289z" />
    <glyph glyph-name="four.osf" horiz-adv-x="1163" 
d="M637 446l18 336l15 166l-4 2l-238 -504h209zM1036 102v-303l-415 -18v321h-570l-37 285l502 975l520 -31v-885h103l-9 -344h-94z" />
    <glyph glyph-name="five.osf" horiz-adv-x="1067" 
d="M1034 397q0 -295 -222 -451t-632 -157l-45 358q451 2 451 207q0 88 -158 88q-113 0 -221 -30l-137 170l55 764h827l17 -398h-480l-10 -151q49 6 105 6q206 1 328 -105t122 -301z" />
    <glyph glyph-name="six.osf" horiz-adv-x="1150" 
d="M678 549q0 59 -22 87t-81 28t-79 -37q0 -166 22 -217t80 -52q80 1 80 191zM1116 553q0 -293 -138 -432t-396 -139t-404 165q-145 166 -145 506q0 215 73 390q135 319 462 449q146 58 302 58l66 -366q-166 0 -272 -60t-156 -155l4 -4q76 35 166 34q210 -1 324 -117
t114 -329z" />
    <glyph glyph-name="seven.osf" horiz-adv-x="1081" 
d="M1036 1341v-352l-440 -1173h-498l475 1126h-534l27 399h970z" />
    <glyph glyph-name="eight.osf" horiz-adv-x="1189" 
d="M510 961q0 -41 37 -67t110 -46q43 43 43 92q0 92 -108 92q-82 1 -82 -71zM707 383q0 47 -44 75t-139 60q-49 -53 -49 -108q0 -107 133 -107q99 0 99 80zM33 412q0 78 39 154t112 130q-100 106 -100 286t128 280q128 98 387 98t383 -100t124 -266t-107 -273
q156 -102 156 -311q0 -434 -561 -434t-561 436z" />
    <glyph glyph-name="nine.osf" horiz-adv-x="1144" 
d="M566 981q-48 0 -67 -30q-19 -31 -19 -111t16 -107q18 -27 73 -26q80 0 90 57q0 133 -22 175q-23 42 -71 42zM1112 725q0 -575 -352 -803q-204 -131 -500 -131l-49 356q159 1 273 57t155 167l-4 4q-72 -31 -164 -31q-199 0 -319 122t-119 370q0 248 138 388
q138 138 402 138q539 0 539 -637z" />
    <glyph glyph-name="cent.osf" horiz-adv-x="940" 
d="M719 899q-133 0 -179 -59t-46 -211q0 -151 57 -221t147 -70t176 24l29 -329q-68 -37 -174 -49l-14 -211h-334l18 231q-367 111 -366 612q0 571 436 652l18 215h332l-20 -221q53 -9 92 -25l-23 -358q-82 20 -149 20z" />
    <glyph glyph-name="sterling.osf" horiz-adv-x="1157" 
d="M721 1354q166 0 338 -43l-49 -353q-135 31 -240 31q-190 0 -190 -104q0 -37 10 -82h418v-305h-349q-6 -96 -79 -148l4 -6q113 29 260 29t262 -21l-21 -366q-199 24 -478 24t-513 -20l-18 362q68 2 110 43t41 92v11h-145l-16 305h75q-25 74 -24 131q0 180 142 300t462 120
z" />
    <glyph glyph-name="currency.osf" horiz-adv-x="1169" 
d="M457 668q0 -53 37 -91t90 -38t91 38t38 91t-38 91t-91 38t-90 -38t-37 -91zM176 672q0 82 33 153l-146 148l230 227l151 -153q143 53 281 0l154 153l227 -227l-148 -148q35 -75 35 -155t-24 -148l137 -135l-229 -227l-129 127q-78 -33 -166 -33t-162 33l-129 -127
l-228 227l138 137q-25 66 -25 148z" />
    <glyph glyph-name="yen.osf" horiz-adv-x="1169" 
d="M129 651h135l-282 678h481l121 -577h6l31 161l88 416h473l-277 -678h158v-200h-238v-58h238v-200h-238v-193h-477v193h-219v200h219v58h-219v200z" />
    <glyph glyph-name="franc.osf" horiz-adv-x="1169" 
d="M55 393h84v936h957l8 -373h-520v-131h372l-4 -352h-368v-80h102v-272h-102v-121h-445v121h-84v272z" />
    <glyph glyph-name="lira.osf" horiz-adv-x="1169" 
d="M117 934q0 180 142 300t462 120q166 0 338 -43l-51 -353q-131 31 -238 31q-190 0 -190 -104v-13h421v-194h-368l12 -47h356v-195h-354q-20 -55 -67 -86l4 -6q113 29 259 29t263 -21l-21 -366q-199 24 -479 24t-514 -20l-16 362q102 0 139 84h-104l-15 195h109l-17 47h-94
l-18 194h47q-6 29 -6 62z" />
    <glyph glyph-name="peseta.osf" horiz-adv-x="1169" 
d="M296 1030q-5 24 -26 25h-8v-314h8q10 0 16 3q15 10 15 136t-5 150zM1159 260q0 -276 -205 -276q-57 0 -102 20l4 215q33 -12 70 -12q43 0 43 49q0 25 -64 89q-63 66 -63 237q0 92 50 178t146 86q70 0 103 -29l-11 -227q-28 14 -62 14t-34 -33t63 -96q24 -25 43 -81
t19 -134zM838 633h-58v-414q0 -18 23 -18q10 0 18 4l2 -203q-20 -16 -82 -16q-168 0 -168 231v416h-22v205h35l35 174l153 24v-198h64v-205zM268 1329q158 0 214 -85t57 -344q-1 -259 -53 -339t-216 -80h-8v-481h-235v1329h241z" />
    <glyph glyph-name="Euro.osf" horiz-adv-x="1169" 
d="M604 682v-47h330l-60 -199h-219q78 -96 217 -96q98 0 201 33l12 -328q-121 -70 -360 -70t-400 118t-212 343h-78v199h55v47h-55v209h80q104 459 647 459q223 -1 366 -64l-100 -336q-78 18 -143 19q-180 0 -238 -78h361l-62 -209h-342z" />
    <glyph glyph-name="numbersign.lf" horiz-adv-x="1177" 
d="M557 866l-33 -225h97l32 225h-96zM31 641h143l33 225h-176v322h217l49 348h350l-49 -348h96l47 348h344l-49 -348h111v-322h-152l-32 -225h184v-330h-225l-43 -311h-342l43 311h-99l-43 -311h-348l43 311h-102v330z" />
    <glyph glyph-name="dollar.lf" horiz-adv-x="1101" 
d="M436 1094q0 -39 60 -66l24 137q-84 -10 -84 -71zM713 418q0 41 -68 74l-31 -158q99 12 99 84zM39 1075q0 471 551 484l24 129l256 -19l-24 -131q82 -12 145 -39l-24 -375q-72 18 -195 33l-41 -211q152 -60 245 -166t93 -303q0 -252 -125 -375t-399 -129l-25 -131l-233 19
l22 129q-168 25 -262 76l53 389q125 -66 275 -101l39 226q-147 58 -261 170q-114 111 -114 325z" />
    <glyph glyph-name="zero.lf" horiz-adv-x="1175" 
d="M684 761q0 324 -41 371q-18 22 -56 22q-39 0 -57 -25q-40 -51 -40 -301q-2 -250 10 -338t30 -107q18 -21 56 -21t57 23q41 52 41 376zM1143 770q0 -418 -136 -604q-136 -188 -426 -188t-419 186t-129 606t129 600t424 180t426 -181t131 -599z" />
    <glyph glyph-name="one.lf" horiz-adv-x="894" 
d="M801 1532v-1532h-482v1001l-206 -108l-50 360l459 279h279z" />
    <glyph glyph-name="two.lf" horiz-adv-x="1132" 
d="M1083 1085q1 -161 -107 -315t-329 -362l2 -7h420l-10 -401h-989v289q37 43 97 111q298 335 354 434q56 100 65 139q10 39 10 67q0 109 -132 109t-312 -117l-107 369q213 151 493 151t412 -126q133 -126 133 -341z" />
    <glyph glyph-name="three.lf" horiz-adv-x="1132" 
d="M1092 462q0 -228 -151 -356t-454 -126q-250 0 -430 102l80 352q166 -78 330 -78t164 119q1 66 -57 105t-230 38v320q174 0 228 30t55 99q0 96 -148 96q-178 0 -338 -116l-102 356q201 149 469 149t413 -120q144 -121 144 -330t-170 -314v-4q197 -94 197 -322z" />
    <glyph glyph-name="four.lf" horiz-adv-x="1202" 
d="M659 629l13 260l12 166l-4 2l-201 -428h180zM1079 252v-252h-434v252h-592l-39 291l506 993h559v-907h107l-8 -377h-99z" />
    <glyph glyph-name="five.lf" horiz-adv-x="1116" 
d="M1083 535q0 -263 -142 -409q-141 -146 -421 -146t-477 102l76 352q170 -76 334 -76q98 0 130 32q31 32 31 104t-40 100t-144 27q-104 0 -209 -27l-151 172l55 770h864l19 -395h-502l-10 -160q49 6 108 6q227 1 353 -115t126 -337z" />
    <glyph glyph-name="six.lf" horiz-adv-x="1175" 
d="M694 561q0 121 -94 121q-22 0 -54 -13t-38 -32q2 -172 24 -225t80 -54q82 0 82 203zM1153 553q0 -293 -141 -433t-394 -140q-293 0 -439 177t-146 577t173 612t507 210q209 0 346 -55l-33 -383q-123 41 -254 41t-192 -43t-82 -133l4 -4q86 45 194 45q221 0 339 -120
t118 -351z" />
    <glyph glyph-name="seven.lf" horiz-adv-x="1157" 
d="M1118 1536v-373l-452 -1163h-521l525 1118h-639l20 418h1067z" />
    <glyph glyph-name="eight.lf" horiz-adv-x="1181" 
d="M512 1108q0 -94 131 -143q49 59 49 121t-23 88q-24 24 -71 24t-67 -20q-19 -21 -19 -70zM481 458q0 -132 116 -130q54 0 79 22q24 23 24 82t-42 95t-128 73q-49 -70 -49 -142zM33 473q0 88 39 177t114 151q-106 123 -106 327t129 316t387 112t383 -114t125 -304
t-119 -315q162 -115 162 -357t-140 -365q-140 -124 -413 -124q-561 0 -561 496z" />
    <glyph glyph-name="nine.lf" horiz-adv-x="1183" 
d="M579 1178q-53 0 -75 -33t-21 -115t21 -114t72 -32q100 1 108 66q0 136 -26 182t-79 46zM1151 811q0 -430 -162 -631t-495 -200q-229 0 -392 71l64 367q144 -56 272 -56t180 50t68 153q-84 -33 -201 -33q-215 0 -333 128t-119 369q0 241 138 383t411 142q569 0 569 -743z
" />
    <glyph glyph-name="cent.lf" horiz-adv-x="1206" 
d="M817 899q-133 0 -179 -59t-46 -211q0 -151 57 -221t147 -70t177 24l28 -329q-76 -41 -194 -53l-14 -207h-334l18 237q-346 119 -346 606q0 559 416 648l18 219h332l-20 -217q77 -15 112 -29l-22 -358q-82 20 -150 20z" />
    <glyph glyph-name="sterling.lf" horiz-adv-x="1169" 
d="M82 1100q0 203 155 336t488 133q172 0 356 -51l-53 -396q-131 35 -244 35q-205 0 -204 -125q0 -57 18 -110h438v-338h-358q-4 -123 -98 -187l4 -6q131 33 270 33t281 -23l-23 -417q-442 58 -1051 4l-22 409q76 3 127 55t51 117v15h-166l-20 338h88q-37 100 -37 178z" />
    <glyph glyph-name="currency.lf" horiz-adv-x="1220" 
d="M610 879q-55 1 -93 -39t-38 -94t38 -93t93 -39t93 39t38 93t-38 94t-93 39zM195 750q0 81 32 155l-149 152l235 233l158 -155q138 46 281 0l159 157l234 -235l-150 -150q35 -80 35 -161t-24 -148l137 -137l-234 -234l-131 129q-169 -68 -334 2l-133 -133l-235 236
l141 141q-22 67 -22 148z" />
    <glyph glyph-name="yen.lf" horiz-adv-x="1353" 
d="M172 780h152l-314 756h537l104 -537l29 -163h6l27 163l102 537h528l-303 -756h172v-231h-264v-68h264v-231h-264v-250h-530v250h-246v231h246v68h-246v231z" />
    <glyph glyph-name="franc.lf" horiz-adv-x="1163" 
d="M10 453h90v1083h1006l6 -418h-532v-170h383l-5 -395h-378v-100h108v-308h-108v-145h-480v145h-90v308z" />
    <glyph glyph-name="lira.lf" horiz-adv-x="1183" 
d="M90 1100q0 203 155 336t488 133q174 0 354 -51l-51 -396q-135 35 -243 35q-109 0 -157 -41t-48 -104h456v-228h-393q12 -37 17 -55h376v-225h-374q-29 -74 -84 -107l4 -6q121 33 265 33t286 -23l-21 -417q-444 58 -1050 4l-25 409q53 2 98 32t66 75h-119l-12 225h123
l-19 55h-110l-19 228h47q-10 45 -10 88z" />
    <glyph glyph-name="peseta.lf" horiz-adv-x="1703" 
d="M381 846q43 0 57 28t13 149q1 119 -11 149t-59 30h-10v-356h10zM1681 299q0 -324 -282 -324q-94 0 -156 39l8 277q57 -29 117 -29t62 29q0 17 -22 31t-54 34t-63 50q-32 30 -53 90q-22 59 -21 141q0 123 69 218q70 95 188 95t171 -41l-19 -268q-51 23 -117 23
q-33 0 -32 -21q0 -18 21 -35q22 -16 52 -36t59 -52q72 -74 72 -221zM1202 696h-76v-415q0 -25 33 -25q12 0 25 4l4 -256q-31 -23 -109 -22q-115 0 -175 78t-60 216v420h-33v246h47l47 191l221 26v-217h76v-246zM381 1536q221 0 314 -112t93 -390t-92 -392t-315 -114h-8v-528
h-320v1536h328z" />
    <glyph glyph-name="Euro.lf" horiz-adv-x="1101" 
d="M760 -18q-502 0 -602 518h-142l2 223h117v57h-117l-2 234h142q55 246 216 387t400 141q174 0 301 -49l-76 -358q-49 16 -135 16q-177 0 -231 -137h348l-47 -234h-336v-57h324l-45 -223h-248q57 -162 237 -162q82 0 170 29l31 -328q-121 -57 -307 -57z" />
    <glyph glyph-name="numbersign.tosf" horiz-adv-x="1169" 
d="M537 750l-27 -181h123l24 181h-120zM47 569h127l27 181h-154v294h191l38 285h338l-39 -285h119l41 285h332l-39 -285h94v-294h-133l-26 -181h159v-299h-196l-37 -270h-330l37 270h-123l-39 -270h-336l37 270h-88v299z" />
    <glyph glyph-name="dollar.tosf" horiz-adv-x="1169" 
d="M1112 428q0 -369 -393 -438l-21 -228h-366l20 224q-156 16 -270 63l53 369q180 -80 412 -80q92 0 92 45q0 29 -59 45q-60 16 -144 34t-168 53q-84 34 -143 121q-59 88 -59 234t96 256t289 144l24 235h365l-23 -233q131 -18 244 -55l-37 -371q-178 63 -381 63
q-55 0 -73 -8t-19 -31q0 -43 144 -64t272 -91q61 -35 103 -109t42 -178z" />
    <glyph glyph-name="zero.tosf" horiz-adv-x="1169" 
d="M584 987q-55 0 -78 -60t-23 -232q1 -172 13 -243t30 -88q18 -18 56 -18t55 20q43 47 43 304q0 258 -43 299q-18 18 -53 18zM1130 676q0 -360 -133 -528t-417 -168t-413 166q-128 166 -128 529t127 525t417 162q291 0 419 -164q128 -162 128 -522z" />
    <glyph glyph-name="one.tosf" horiz-adv-x="1169" 
d="M231 0v250h181v600l-201 -102l-43 339l430 254h272v-1091h193v-250h-832z" />
    <glyph glyph-name="two.tosf" horiz-adv-x="1169" 
d="M1085 940q0 -152 -95 -280t-300 -291v-7h383l-8 -362h-950v272l97 97q60 59 91 91t121 122t136 162t53 102q7 29 8 53q0 92 -129 92t-302 -104l-104 336q212 137 480 137t394 -115t125 -305z" />
    <glyph glyph-name="three.tosf" horiz-adv-x="1169" 
d="M1081 393q0 -293 -218 -443t-625 -163l-43 342q455 16 454 252q0 114 -134 116q-68 1 -128 -14l-22 293q162 18 217 45t55 86q0 88 -159 88t-302 -96l-92 342q184 123 435 123t390 -112t139 -294t-120 -278q153 -92 153 -287z" />
    <glyph glyph-name="four.tosf" horiz-adv-x="1169" 
d="M639 446l18 336l13 166l-4 2l-236 -504h209zM1038 102v-303l-417 -18v321h-568l-37 285l500 975l522 -31v-885h103l-8 -344h-95z" />
    <glyph glyph-name="five.tosf" horiz-adv-x="1169" 
d="M1079 397q0 -293 -223 -451t-631 -157l-45 358q451 -2 451 207q0 88 -158 88q-113 0 -221 -30l-137 170l55 764h827l17 -398h-479l-11 -151q49 6 105 6q205 1 327 -105t123 -301z" />
    <glyph glyph-name="six.tosf" horiz-adv-x="1169" 
d="M688 549q0 59 -21 87t-81 28t-80 -37q0 -166 22 -217t80 -52q80 1 80 191zM1126 553q0 -293 -138 -432t-395 -139t-404 166q-146 167 -146 505q0 215 74 390q135 320 462 449q146 58 302 58l65 -366q-319 0 -428 -215l4 -4q76 35 166 34q211 0 325 -116
q113 -117 113 -330z" />
    <glyph glyph-name="seven.tosf" horiz-adv-x="1169" 
d="M1079 1341v-352l-440 -1173h-498l475 1126h-534l27 399h970z" />
    <glyph glyph-name="eight.tosf" horiz-adv-x="1169" 
d="M498 961q0 -41 37 -67t110 -46q43 39 43 89t-24 73q-25 23 -82 22q-84 1 -84 -71zM694 383q0 47 -44 75t-138 60q-47 -51 -47 -107t32 -82t101 -26q96 0 96 80zM23 412q1 78 39 154t112 130q-100 111 -100 289q0 179 127 277t385 98q508 0 508 -381q0 -152 -107 -258
q158 -104 158 -311q0 -434 -561 -434t-561 436z" />
    <glyph glyph-name="nine.tosf" horiz-adv-x="1169" 
d="M569 981q-49 0 -68 -30q-19 -29 -19 -109t18 -108t71 -27q83 0 93 57q0 133 -23 175t-72 42zM1114 725q0 -575 -352 -803q-204 -131 -500 -131l-47 356q157 1 271 57t155 167l-4 4q-72 -31 -164 -31q-199 0 -319 122t-119 370q0 248 138 388q138 138 402 138
q539 0 539 -637z" />
    <glyph glyph-name="cent.tosf" horiz-adv-x="1169" 
d="M850 891q-160 0 -217 -54t-58 -212q0 -270 275 -271q88 0 211 29l33 -338q-88 -51 -232 -63l-20 -224h-355l23 244q-207 53 -313 211t-107 412q0 571 504 647l24 235h355l-25 -241q78 -13 131 -31l-22 -373q-119 29 -207 29z" />
    <glyph glyph-name="sterling.tosf" horiz-adv-x="1169" 
d="M727 1354q166 0 338 -43l-51 -353q-131 31 -240 31q-190 0 -190 -104q0 -37 10 -82h418v-305h-348q-6 -96 -80 -148l4 -6q113 29 260 29t264 -21l-22 -366q-198 24 -478 24t-514 -20l-18 362q68 2 110 43t43 92v11h-147l-16 305h77q-25 74 -24 131q0 182 142 301t462 119
z" />
    <glyph glyph-name="currency.tosf" horiz-adv-x="1169" 
d="M457 668q0 -53 37 -91t90 -38t91 38t38 91t-38 91t-91 38t-90 -38t-37 -91zM176 672q0 82 33 153l-146 148l230 227l151 -153q143 53 281 0l154 153l227 -227l-148 -148q35 -75 35 -155t-24 -148l137 -135l-229 -227l-129 127q-78 -33 -166 -33t-162 33l-129 -127
l-228 227l138 137q-25 66 -25 148z" />
    <glyph glyph-name="yen.tosf" horiz-adv-x="1169" 
d="M129 651h135l-282 678h481l121 -577h6l31 161l88 416h473l-277 -678h158v-200h-238v-58h238v-200h-238v-193h-477v193h-219v200h219v58h-219v200z" />
    <glyph glyph-name="uni2007.tosf" horiz-adv-x="1169" 
 />
    <glyph glyph-name="franc.tosf" horiz-adv-x="1169" 
d="M55 393h84v936h957l8 -373h-520v-131h372l-4 -352h-368v-80h102v-272h-102v-121h-445v121h-84v272z" />
    <glyph glyph-name="lira.tosf" horiz-adv-x="1169" 
d="M117 934q0 180 142 300t462 120q166 0 338 -43l-51 -353q-131 31 -238 31q-190 0 -190 -104v-13h421v-194h-368l12 -47h356v-195h-354q-20 -55 -67 -86l4 -6q113 29 259 29t263 -21l-21 -366q-199 24 -479 24t-514 -20l-16 362q102 0 139 84h-104l-15 195h109l-17 47h-94
l-18 194h47q-6 29 -6 62z" />
    <glyph glyph-name="peseta.tosf" horiz-adv-x="1169" 
d="M549 707q80 0 96 36h-153v-36h57zM492 983v-51h157q-14 51 -100 51h-57zM1149 745h-64q-23 -184 -151 -277t-385 -93h-55v-375h-420v743h-43v189h43v397h475q262 0 389 -96t147 -301h64v-187z" />
    <glyph glyph-name="Euro.tosf" horiz-adv-x="1169" 
d="M604 682v-47h330l-60 -199h-219q78 -96 217 -96q98 0 201 33l12 -328q-121 -70 -360 -70t-400 118t-212 343h-78v199h55v47h-55v209h80q104 459 647 459q223 -1 366 -64l-100 -336q-78 18 -143 19q-180 0 -238 -78h361l-62 -209h-342z" />
    <glyph glyph-name="f_i.sc" horiz-adv-x="1656" 
d="M1120 0v1329h461v-1329h-461zM520 946v-145h406l-4 -363h-402v-438h-448v1329h936l6 -383h-494z" />
    <glyph glyph-name="f_l.sc" horiz-adv-x="2027" 
d="M1567 379h440l-8 -379h-883v1329h451v-950zM520 946v-145h406l-4 -363h-402v-438h-448v1329h936l6 -383h-494z" />
    <glyph glyph-name="exclam.sc" horiz-adv-x="548" 
d="M70 158q0 184 214 184t214 -182t-215 -183q-111 0 -162 42t-51 139zM440 422h-325l-66 907h451z" />
    <glyph glyph-name="ampersand.sc" horiz-adv-x="1318" 
d="M522 338q8 0 26 1t36 1q-61 45 -133 117q-10 -27 -11 -49q0 -70 82 -70zM502 999q0 -33 24 -79q66 49 66 80q0 50 -37 53q-53 -1 -53 -54zM8 371q0 205 213 362q-102 154 -102 264q0 158 103 254q103 97 317 97q215 0 343 -83t128 -221q0 -106 -75 -188t-210 -172
q45 -43 121 -100q35 72 61 155h353q-18 -164 -119 -331q80 -37 172 -64l-152 -358q-127 41 -276 129q-197 -141 -426 -141t-340 116q-111 117 -111 281z" />
    <glyph glyph-name="question.sc" horiz-adv-x="884" 
d="M199 158q0 184 214 184t214 -182t-215 -183q-113 0 -163 42t-50 139zM864 985q0 -260 -274 -410l-15 -153h-319l-23 299q205 92 205 194q0 27 -23 46q-24 18 -71 18q-123 0 -199 -68l-141 316q66 51 176 83t230 31q218 0 336 -96t118 -260z" />
    <glyph glyph-name="grave.sc" horiz-adv-x="813" 
d="M643 1380h-324l-260 252h486z" />
    <glyph glyph-name="a.sc" horiz-adv-x="1329" 
d="M653 911l-32 -163l-46 -203h156l-43 203l-29 163h-6zM848 0l-41 193h-309l-43 -193h-473l407 1329h541l420 -1329h-502z" />
    <glyph glyph-name="b.sc" horiz-adv-x="1206" 
d="M649 823q45 -1 59 15t13 60q0 44 -14 59t-56 16h-147v-150h145zM664 348q47 0 61 16t14 64q0 50 -15 66t-67 16h-155v-162h162zM1192 399q0 -187 -133 -293t-402 -106h-585v1329h594q236 0 360 -96t123 -256q0 -190 -166 -270v-5q209 -74 209 -303z" />
    <glyph glyph-name="c.sc" horiz-adv-x="1011" 
d="M700 975q-124 -1 -162 -61t-38 -250t40 -254t167 -64t235 41l41 -346q-145 -63 -334 -64q-623 1 -623 689t654 688q145 0 299 -47l-41 -365q-114 33 -238 33z" />
    <glyph glyph-name="d.sc" horiz-adv-x="1259" 
d="M762 694q0 160 -29 209t-123 49h-90v-577h88q70 0 99 18t42 80q13 61 13 221zM610 1329q330 1 476 -157t145 -505q0 -347 -153 -507t-460 -160h-546v1329h538z" />
    <glyph glyph-name="e.sc" horiz-adv-x="1067" 
d="M520 369h518l-8 -369h-958v1329h936l8 -375h-496v-112h400v-338h-400v-135z" />
    <glyph glyph-name="f.sc" horiz-adv-x="1044" 
d="M520 946v-145h406l-4 -363h-402v-438h-448v1329h936l6 -383h-494z" />
    <glyph glyph-name="g.sc" horiz-adv-x="1153" 
d="M1100 727v-680q-160 -72 -410 -72q-356 1 -510 175t-153 516q0 342 163 515q164 173 515 173q205 0 380 -58l-38 -364q-145 47 -307 47t-200 -59q-40 -59 -40 -254t32 -253t144 -59h26v373h398z" />
    <glyph glyph-name="h.sc" horiz-adv-x="1277" 
d="M1206 0h-448v477h-238v-477h-448v1329h448v-471h238v471h448v-1329z" />
    <glyph glyph-name="i.sc" horiz-adv-x="612" 
d="M76 0v1329h461v-1329h-461z" />
    <glyph glyph-name="j.sc" horiz-adv-x="843" 
d="M782 1329v-823q0 -283 -129 -407t-385 -124q-143 0 -248 37l21 350q49 -20 139 -20t117 33t27 133v821h458z" />
    <glyph glyph-name="k.sc" horiz-adv-x="1298" 
d="M520 502v-502h-448v1329h446v-489h57l216 489h501l-307 -635l320 -694h-527l-209 502h-49z" />
    <glyph glyph-name="l.sc" horiz-adv-x="983" 
d="M522 379h441l-9 -379h-882v1329h450v-950z" />
    <glyph glyph-name="m.sc" horiz-adv-x="1634" 
d="M72 1329h487l199 -536l55 -156h6l53 156l201 536h492v-1329h-412v487l4 166l-6 2l-201 -655h-284l-150 477l-47 160l-4 -2l2 -166v-469h-395v1329z" />
    <glyph glyph-name="n.sc" horiz-adv-x="1288" 
d="M1217 0h-357l-305 481l-86 144l-4 -2l2 -166v-457h-395v1329h364l383 -594l4 2l-4 164l2 428h396v-1329z" />
    <glyph glyph-name="o.sc" horiz-adv-x="1298" 
d="M801 666q0 192 -29 248t-121 56t-122 -58q-29 -58 -29 -248t29 -250q30 -60 121 -60t121 60t30 252zM650 1350q324 0 472 -166t148 -523t-148 -521t-468 -163q-322 0 -475 169q-153 170 -153 520t150 517t474 167z" />
    <glyph glyph-name="p.sc" horiz-adv-x="1193" 
d="M705 834q0 88 -23 114t-98 27h-66v-277h66q74 0 98 24t23 112zM1167 831q0 -471 -583 -471h-64v-360h-448v1329h512q309 0 446 -122t137 -376z" />
    <glyph glyph-name="q.sc" horiz-adv-x="1298" 
d="M801 666q0 192 -29 248t-121 56t-122 -58q-29 -58 -29 -248t29 -250q30 -60 121 -60t121 60t30 252zM1270 664q0 -467 -258 -611l190 -211l-493 -80l-117 218q-289 14 -427 182t-138 511t149 510q150 167 474 167t472 -166t148 -520z" />
    <glyph glyph-name="r.sc" horiz-adv-x="1234" 
d="M598 741q64 -1 84 21t20 97t-20 97t-84 23h-78v-238h78zM1171 879q0 -127 -44 -221t-126 -140l254 -518h-516l-151 424h-68v-424h-448v1329h522q289 1 433 -109t144 -341z" />
    <glyph glyph-name="s.sc" horiz-adv-x="1026" 
d="M1008 418q0 -203 -144 -322t-391 -119q-246 0 -430 93l55 362q190 -90 367 -90q63 0 88 11t25 38t-56 51t-134 51q-79 27 -158 69t-134 131t-55 214q0 195 132 319q133 124 379 124t411 -64l-48 -354q-201 45 -299 45t-122 -11t-23 -40q0 -29 55 -53q55 -25 134 -51
t158 -66q78 -40 134 -128q56 -87 56 -210z" />
    <glyph glyph-name="t.sc" horiz-adv-x="1073" 
d="M766 952v-952h-457v952h-297l8 377h1031l10 -377h-295z" />
    <glyph glyph-name="u.sc" horiz-adv-x="1255" 
d="M1194 1329v-860q0 -240 -140 -367t-424 -127t-426 127t-143 367v860h449v-856q0 -61 27 -88t95 -27t92 25q22 25 21 90v856h449z" />
    <glyph glyph-name="v.sc" horiz-adv-x="1282" 
d="M842 1329h463l-414 -1329h-502l-412 1329h494l180 -856h6l31 162z" />
    <glyph glyph-name="w.sc" horiz-adv-x="1871" 
d="M707 1329h475l141 -885h6l17 164l86 721h444l-295 -1329h-532l-93 651l-18 166h-6l-109 -817h-532l-295 1329h467l84 -733l16 -164h6l21 164z" />
    <glyph glyph-name="x.sc" horiz-adv-x="1280" 
d="M1284 1329l-330 -633l330 -696h-504l-80 207l-53 158h-6l-55 -158l-78 -207h-512l323 686l-321 643h524l66 -164l57 -153h6l58 153l67 164h508z" />
    <glyph glyph-name="y.sc" horiz-adv-x="1282" 
d="M877 0h-459v389l-441 940h502l123 -383l47 -158h6l45 158l117 383h486l-426 -940v-389z" />
    <glyph glyph-name="z.sc" horiz-adv-x="1087" 
d="M39 0v274l371 537l96 131l-2 4h-457l12 383h981v-305l-352 -510l-96 -129l2 -6h455l-5 -379h-1005z" />
    <glyph glyph-name="exclamdown.sc" horiz-adv-x="577" 
d="M51 1174q-1 92 57 145t177 53t174 -47t55 -151q0 -203 -232 -203t-231 203zM113 870h352l53 -1052h-459z" />
    <glyph glyph-name="dieresis.sc" horiz-adv-x="813" 
d="M788 1509q0 -143 -170 -143q-88 0 -129 34t-40 109q-1 143 169 143t170 -143zM371 1509q0 -143 -171 -143t-171 143t171 143t171 -143z" />
    <glyph glyph-name="macron.sc" horiz-adv-x="813" 
d="M760 1624v-227h-705v227h705z" />
    <glyph glyph-name="acute.sc" horiz-adv-x="813" 
d="M360 1632h523l-308 -252h-354z" />
    <glyph glyph-name="cedilla.sc" horiz-adv-x="813" 
d="M168 -375l162 422l286 2l-63 -424h-385z" />
    <glyph glyph-name="questiondown.sc" horiz-adv-x="942" 
d="M281 1174q0 92 57 145t176 53t174 -47t55 -151q0 -203 -231 -203t-231 203zM20 199q0 297 302 477l16 194h340l22 -350q-225 -119 -225 -244q0 -36 29 -60t82 -23q133 0 217 77l149 -344q-74 -57 -192 -93t-248 -36q-238 0 -365 109t-127 293z" />
    <glyph glyph-name="germandbls.sc" horiz-adv-x="2052" 
d="M2034 418q0 -203 -144 -322t-391 -119q-246 0 -430 93l55 362q190 -90 367 -90q63 0 88 11t25 38t-56 51t-134 51q-79 27 -158 69t-134 131t-55 214q0 195 132 319q133 124 379 124t411 -64l-47 -354q-202 45 -300 45t-122 -11t-23 -40q0 -29 55 -53q54 -25 134 -51
t158 -66t134 -128q56 -87 56 -210zM1008 418q0 -203 -144 -322t-391 -119q-246 0 -430 93l55 362q190 -90 367 -90q63 0 88 11t25 38t-56 51t-134 51q-79 27 -158 69t-134 131t-55 214q0 195 132 319q133 124 379 124t411 -64l-48 -354q-201 45 -299 45t-122 -11t-23 -40
q0 -29 55 -53q55 -25 134 -51t158 -66q78 -40 134 -128q56 -87 56 -210z" />
    <glyph glyph-name="agrave.sc" horiz-adv-x="1329" 
d="M872 1380h-323l-260 252h485zM653 911l-32 -163l-46 -203h156l-43 203l-29 163h-6zM848 0l-41 193h-309l-43 -193h-473l407 1329h541l420 -1329h-502z" />
    <glyph glyph-name="aacute.sc" horiz-adv-x="1329" 
d="M604 1632h522l-307 -252h-354zM653 911l-32 -163l-46 -203h156l-43 203l-29 163h-6zM848 0l-41 193h-309l-43 -193h-473l407 1329h541l420 -1329h-502z" />
    <glyph glyph-name="acircumflex.sc" horiz-adv-x="1329" 
d="M465 1634h369l188 -254h-320l-45 95h-12l-47 -95h-317zM653 911l-32 -163l-46 -203h156l-43 203l-29 163h-6zM848 0l-41 193h-309l-43 -193h-473l407 1329h541l420 -1329h-502z" />
    <glyph glyph-name="atilde.sc" horiz-adv-x="1329" 
d="M799 1616q37 0 51 47l192 -2q-2 -119 -68 -192t-157 -73q-92 0 -171 34q-79 33 -109 32q-50 0 -56 -49l-192 2q2 119 65 193q64 74 158 74t172 -34q78 -32 115 -32zM653 911l-32 -163l-46 -203h156l-43 203l-29 163h-6zM848 0l-41 193h-309l-43 -193h-473l407 1329h541
l420 -1329h-502z" />
    <glyph glyph-name="adieresis.sc" horiz-adv-x="1329" 
d="M1032 1509q0 -143 -170 -143q-88 0 -129 34t-41 109q0 143 170 143t170 -143zM614 1509q0 -143 -171 -143t-171 143t171 143t171 -143zM653 911l-32 -163l-46 -203h156l-43 203l-29 163h-6zM848 0l-41 193h-309l-43 -193h-473l407 1329h541l420 -1329h-502z" />
    <glyph glyph-name="aring.sc" horiz-adv-x="1329" 
d="M555 1448q0 -29 22 -41t82 -12q59 0 81 12t22 40t-20 41t-82 13q-61 0 -83 -12t-22 -41zM653 911l-32 -163l-46 -203h156l-43 203l-29 163h-6zM330 1454q0 102 74 160q75 57 251 57q330 0 330 -223q0 -92 -49 -143l414 -1305h-502l-41 193h-309l-43 -193h-473l399 1300
q-51 52 -51 154z" />
    <glyph glyph-name="ae.sc" horiz-adv-x="1861" 
d="M877 967l-58 -156l-106 -268h170l-2 256l2 166zM1714 842v-338h-377l2 -135h492l-8 -369h-934l-2 195h-312l-75 -195h-525l658 1329h1167l8 -375h-477l2 -112h381z" />
    <glyph glyph-name="ccedilla.sc" horiz-adv-x="1011" 
d="M27 668q0 686 653 686q145 0 299 -47l-41 -365q-114 33 -238 33q-124 -1 -162 -61t-38 -250t40 -254t167 -64t235 41l41 -346q-109 -47 -268 -61l-53 -355h-386l146 379q-395 111 -395 664z" />
    <glyph glyph-name="egrave.sc" horiz-adv-x="1067" 
d="M780 1380h-323l-260 252h485zM520 369h518l-8 -369h-958v1329h936l8 -375h-496v-112h400v-338h-400v-135z" />
    <glyph glyph-name="eacute.sc" horiz-adv-x="1067" 
d="M510 1632h522l-307 -252h-354zM520 369h518l-8 -369h-958v1329h936l8 -375h-496v-112h400v-338h-400v-135z" />
    <glyph glyph-name="ecircumflex.sc" horiz-adv-x="1067" 
d="M373 1634h368l189 -254h-320l-45 95h-12l-47 -95h-318zM520 369h518l-8 -369h-958v1329h936l8 -375h-496v-112h400v-338h-400v-135z" />
    <glyph glyph-name="edieresis.sc" horiz-adv-x="1067" 
d="M940 1509q0 -143 -170 -143q-88 0 -129 34t-41 109q0 143 170 143t170 -143zM522 1509q0 -143 -171 -143t-171 143t171 143t171 -143zM520 369h518l-8 -369h-958v1329h936l8 -375h-496v-112h400v-338h-400v-135z" />
    <glyph glyph-name="igrave.sc" horiz-adv-x="612" 
d="M520 1380h-323l-260 252h485zM76 0v1329h461v-1329h-461z" />
    <glyph glyph-name="iacute.sc" horiz-adv-x="612" 
d="M252 1632h522l-307 -252h-354zM76 0v1329h461v-1329h-461z" />
    <glyph glyph-name="icircumflex.sc" horiz-adv-x="612" 
d="M115 1634h368l189 -254h-320l-45 95h-12l-47 -95h-318zM76 0v1329h461v-1329h-461z" />
    <glyph glyph-name="idieresis.sc" horiz-adv-x="612" 
d="M682 1509q0 -143 -170 -143q-88 0 -129 34t-41 109q0 143 170 143t170 -143zM264 1509q0 -143 -171 -143t-171 143t171 143t171 -143zM76 0v1329h461v-1329h-461z" />
    <glyph glyph-name="eth.sc" horiz-adv-x="1282" 
d="M786 694q0 160 -28 209q-29 49 -123 49h-90v-118h114v-293h-114v-166h88q71 0 99 18t41 80q13 61 13 221zM635 1329q330 1 475 -157t145 -505q-1 -347 -153 -507t-459 -160h-547v541h-82v293h82v495h539z" />
    <glyph glyph-name="ntilde.sc" horiz-adv-x="1288" 
d="M780 1616q36 0 51 47l193 -2q-2 -119 -68 -192t-158 -73t-170 34q-78 33 -110 32q-49 0 -55 -49l-193 2q2 119 66 193t158 74t172 -34q78 -32 114 -32zM1217 0h-357l-305 481l-86 144l-4 -2l2 -166v-457h-395v1329h364l383 -594l4 2l-4 164l2 428h396v-1329z" />
    <glyph glyph-name="ograve.sc" horiz-adv-x="1298" 
d="M868 1380h-323l-260 252h485zM801 666q0 192 -29 248t-121 56t-122 -58q-29 -58 -29 -248t29 -250q30 -60 121 -60t121 60t30 252zM650 1350q324 0 472 -166t148 -523t-148 -521t-468 -163q-322 0 -475 169q-153 170 -153 520t150 517t474 167z" />
    <glyph glyph-name="oacute.sc" horiz-adv-x="1298" 
d="M598 1632h522l-307 -252h-354zM801 666q0 192 -29 248t-121 56t-122 -58q-29 -58 -29 -248t29 -250q30 -60 121 -60t121 60t30 252zM650 1350q324 0 472 -166t148 -523t-148 -521t-468 -163q-322 0 -475 169q-153 170 -153 520t150 517t474 167z" />
    <glyph glyph-name="ocircumflex.sc" horiz-adv-x="1298" 
d="M461 1634h368l189 -254h-320l-45 95h-12l-47 -95h-318zM801 666q0 192 -29 248t-121 56t-122 -58q-29 -58 -29 -248t29 -250q30 -60 121 -60t121 60t30 252zM650 1350q324 0 472 -166t148 -523t-148 -521t-468 -163q-322 0 -475 169q-153 170 -153 520t150 517t474 167z
" />
    <glyph glyph-name="otilde.sc" horiz-adv-x="1298" 
d="M795 1616q37 0 51 47l192 -2q-2 -119 -68 -192t-157 -73q-92 0 -171 34q-79 33 -110 32q-49 0 -55 -49l-192 2q2 119 65 193q64 74 158 74t172 -34q78 -32 115 -32zM801 666q0 192 -29 248t-121 56t-122 -58q-29 -58 -29 -248t29 -250q30 -60 121 -60t121 60t30 252z
M650 1350q324 0 472 -166t148 -523t-148 -521t-468 -163q-322 0 -475 169q-153 170 -153 520t150 517t474 167z" />
    <glyph glyph-name="odieresis.sc" horiz-adv-x="1298" 
d="M1028 1509q0 -143 -170 -143q-88 0 -129 34t-41 109q0 143 170 143t170 -143zM610 1509q0 -143 -171 -143t-171 143t171 143t171 -143zM801 666q0 192 -29 248t-121 56t-122 -58q-29 -58 -29 -248t29 -250q30 -60 121 -60t121 60t30 252zM650 1350q324 0 472 -166
t148 -523t-148 -521t-468 -163q-322 0 -475 169q-153 170 -153 520t150 517t474 167z" />
    <glyph glyph-name="oslash.sc" horiz-adv-x="1298" 
d="M799 664v38l-256 -311q29 -37 113 -37t114 60q29 60 29 250zM498 664v-60l266 322q-29 45 -118 45q-88 -1 -118 -59t-30 -248zM27 664q0 352 149 519q150 167 471 167q213 0 350 -74l72 90l197 -162l-84 -108q88 -162 88 -432q0 -360 -148 -524t-475 -163q-201 0 -336 68
l-65 -82l-199 156l76 100q-96 160 -96 445z" />
    <glyph glyph-name="ugrave.sc" horiz-adv-x="1255" 
d="M848 1380h-324l-260 252h486zM1194 1329v-860q0 -240 -140 -367t-424 -127t-426 127t-143 367v860h449v-856q0 -61 27 -88t95 -27t92 25q22 25 21 90v856h449z" />
    <glyph glyph-name="uacute.sc" horiz-adv-x="1255" 
d="M578 1632h522l-307 -252h-355zM1194 1329v-860q0 -240 -140 -367t-424 -127t-426 127t-143 367v860h449v-856q0 -61 27 -88t95 -27t92 25q22 25 21 90v856h449z" />
    <glyph glyph-name="ucircumflex.sc" horiz-adv-x="1255" 
d="M440 1634h369l188 -254h-319l-45 95h-12l-48 -95h-317zM1194 1329v-860q0 -240 -140 -367t-424 -127t-426 127t-143 367v860h449v-856q0 -61 27 -88t95 -27t92 25q22 25 21 90v856h449z" />
    <glyph glyph-name="udieresis.sc" horiz-adv-x="1255" 
d="M1008 1509q0 -143 -170 -143q-88 0 -129 34t-41 109q0 143 170 143t170 -143zM590 1509q0 -143 -171 -143t-171 143t171 143t171 -143zM1194 1329v-860q0 -240 -140 -367t-424 -127t-426 127t-143 367v860h449v-856q0 -61 27 -88t95 -27t92 25q22 25 21 90v856h449z" />
    <glyph glyph-name="yacute.sc" horiz-adv-x="1282" 
d="M600 1632h522l-307 -252h-354zM877 0h-459v389l-441 940h502l123 -383l47 -158h6l45 158l117 383h486l-426 -940v-389z" />
    <glyph glyph-name="thorn.sc" horiz-adv-x="1193" 
d="M584 522q74 0 98 24t23 112q0 89 -23 116t-98 27h-66v-279h66zM1167 657q0 -473 -583 -473h-64v-184h-448v1329h448v-176h64q309 0 446 -121t137 -375z" />
    <glyph glyph-name="ydieresis.sc" horiz-adv-x="1282" 
d="M1028 1509q0 -143 -170 -143q-88 0 -129 34t-41 109q0 143 170 143t170 -143zM610 1509q0 -143 -171 -143t-171 143t171 143t171 -143zM877 0h-459v389l-441 940h502l123 -383l47 -158h6l45 158l117 383h486l-426 -940v-389z" />
    <glyph glyph-name="amacron.sc" horiz-adv-x="1329" 
d="M1004 1624v-227h-705v227h705zM653 911l-32 -163l-46 -203h156l-43 203l-29 163h-6zM848 0l-41 193h-309l-43 -193h-473l407 1329h541l420 -1329h-502z" />
    <glyph glyph-name="abreve.sc" horiz-adv-x="1329" 
d="M713 1634h288q0 -264 -348 -264q-188 0 -267 68t-79 196h285q0 -80 60 -80t61 80zM653 911l-32 -163l-46 -203h156l-43 203l-29 163h-6zM848 0l-41 193h-309l-43 -193h-473l407 1329h541l420 -1329h-502z" />
    <glyph glyph-name="aogonek.sc" horiz-adv-x="1329" 
d="M653 911l-32 -163l-46 -203h156l-43 203l-29 163h-6zM1204 -76q0 -53 80 -53q41 0 72 14l35 -221q-103 -49 -237 -49t-207 51t-73 131q0 137 136 203h-162l-41 193h-309l-43 -193h-473l407 1329h541l420 -1329h-50q-40 -2 -68 -25t-28 -51z" />
    <glyph glyph-name="cacute.sc" horiz-adv-x="1011" 
d="M573 1632h523l-308 -252h-354zM700 975q-124 -1 -162 -61t-38 -250t40 -254t167 -64t235 41l41 -346q-145 -63 -334 -64q-623 1 -623 689t654 688q145 0 299 -47l-41 -365q-114 33 -238 33z" />
    <glyph glyph-name="ccircumflex.sc" horiz-adv-x="1011" 
d="M436 1634h369l188 -254h-319l-45 95h-13l-47 -95h-317zM700 975q-124 -1 -162 -61t-38 -250t40 -254t167 -64t235 41l41 -346q-145 -63 -334 -64q-623 1 -623 689t654 688q145 0 299 -47l-41 -365q-114 33 -238 33z" />
    <glyph glyph-name="cdotaccent.sc" horiz-adv-x="1011" 
d="M840 1507q0 -143 -213 -143q-109 0 -160 34t-51 109q0 143 212 143t212 -143zM700 975q-124 -1 -162 -61t-38 -250t40 -254t167 -64t235 41l41 -346q-145 -63 -334 -64q-623 1 -623 689t654 688q145 0 299 -47l-41 -365q-114 33 -238 33z" />
    <glyph glyph-name="ccaron.sc" horiz-adv-x="1011" 
d="M811 1380h-375l-182 254h319l45 -106h13l45 106h323zM700 975q-124 -1 -162 -61t-38 -250t40 -254t167 -64t235 41l41 -346q-145 -63 -334 -64q-623 1 -623 689t654 688q145 0 299 -47l-41 -365q-114 33 -238 33z" />
    <glyph glyph-name="dcaron.sc" horiz-adv-x="1259" 
d="M741 1380h-374l-183 254h320l45 -106h12l45 106h324zM762 694q0 160 -29 209t-123 49h-90v-577h88q70 0 99 18t42 80q13 61 13 221zM610 1329q330 1 476 -157t145 -505q0 -347 -153 -507t-460 -160h-546v1329h538z" />
    <glyph glyph-name="dcroat.sc" horiz-adv-x="1282" 
d="M786 694q0 160 -28 209q-29 49 -123 49h-90v-118h114v-293h-114v-166h88q71 0 99 18t41 80q13 61 13 221zM635 1329q330 1 475 -157t145 -505q-1 -347 -153 -507t-459 -160h-547v541h-82v293h82v495h539z" />
    <glyph glyph-name="emacron.sc" horiz-adv-x="1067" 
d="M885 1624v-227h-705v227h705zM520 369h518l-8 -369h-958v1329h936l8 -375h-496v-112h400v-338h-400v-135z" />
    <glyph glyph-name="ebreve.sc" horiz-adv-x="1067" 
d="M621 1634h288q0 -264 -348 -264q-188 0 -267 68t-79 196h285q0 -80 60 -80t61 80zM520 369h518l-8 -369h-958v1329h936l8 -375h-496v-112h400v-338h-400v-135z" />
    <glyph glyph-name="edotaccent.sc" horiz-adv-x="1067" 
d="M776 1507q0 -143 -213 -143q-109 0 -160 34t-51 109q0 143 212 143t212 -143zM520 369h518l-8 -369h-958v1329h936l8 -375h-496v-112h400v-338h-400v-135z" />
    <glyph glyph-name="eogonek.sc" horiz-adv-x="1067" 
d="M520 369h518l-8 -369h-61q-43 0 -74 -24t-31 -52q0 -53 80 -53q41 0 72 14l35 -221q-103 -49 -237 -49t-207 51t-72 131q0 137 135 203h-598v1329h936l8 -375h-496v-112h400v-338h-400v-135z" />
    <glyph glyph-name="ecaron.sc" horiz-adv-x="1067" 
d="M743 1380h-374l-183 254h320l45 -106h12l45 106h324zM520 369h518l-8 -369h-958v1329h936l8 -375h-496v-112h400v-338h-400v-135z" />
    <glyph glyph-name="gcircumflex.sc" horiz-adv-x="1153" 
d="M457 1634h368l189 -254h-320l-45 95h-12l-47 -95h-318zM1100 727v-680q-160 -72 -410 -72q-356 1 -510 175t-153 516q0 342 163 515q164 173 515 173q205 0 380 -58l-38 -364q-145 47 -307 47t-200 -59q-40 -59 -40 -254t32 -253t144 -59h26v373h398z" />
    <glyph glyph-name="gbreve.sc" horiz-adv-x="1153" 
d="M705 1634h288q0 -264 -348 -264q-188 0 -267 68t-79 196h285q0 -80 60 -80t61 80zM1100 727v-680q-160 -72 -410 -72q-356 1 -510 175t-153 516q0 342 163 515q164 173 515 173q205 0 380 -58l-38 -364q-145 47 -307 47t-200 -59q-40 -59 -40 -254t32 -253t144 -59h26
v373h398z" />
    <glyph glyph-name="gdotaccent.sc" horiz-adv-x="1153" 
d="M860 1507q0 -143 -213 -143q-109 0 -160 34t-51 109q0 143 212 143t212 -143zM1100 727v-680q-160 -72 -410 -72q-356 1 -510 175t-153 516q0 342 163 515q164 173 515 173q205 0 380 -58l-38 -364q-145 47 -307 47t-200 -59q-40 -59 -40 -254t32 -253t144 -59h26v373
h398z" />
    <glyph glyph-name="gcommaaccent.sc" horiz-adv-x="1153" 
d="M644 -53q228 0 228 -150q0 -104 -249 -215l-136 41l41 86q-113 27 -112 115q0 123 228 123zM1100 727v-680q-160 -72 -410 -72q-356 1 -510 175t-153 516q0 342 163 515q164 173 515 173q205 0 380 -58l-38 -364q-145 47 -307 47t-200 -59q-40 -59 -40 -254t32 -253
t144 -59h26v373h398z" />
    <glyph glyph-name="hcircumflex.sc" horiz-adv-x="1277" 
d="M449 1634h368l189 -254h-320l-45 95h-12l-47 -95h-318zM1206 0h-448v477h-238v-477h-448v1329h448v-471h238v471h448v-1329z" />
    <glyph glyph-name="hbar.sc" horiz-adv-x="1312" 
d="M539 858h237v113h-237v-113zM1225 0h-449v477h-237v-477h-449v971h-55v241h55v117h449v-117h237v117h449v-117h53v-241h-53v-971z" />
    <glyph glyph-name="itilde.sc" horiz-adv-x="612" 
d="M448 1616q36 0 52 47l192 -2q-2 -119 -68 -192t-157 -73q-92 0 -171 34q-79 33 -110 32q-49 0 -55 -49l-192 2q2 119 65 193q64 74 158 74t172 -34q78 -32 114 -32zM76 0v1329h461v-1329h-461z" />
    <glyph glyph-name="imacron.sc" horiz-adv-x="612" 
d="M653 1624v-227h-704v227h704zM76 0v1329h461v-1329h-461z" />
    <glyph glyph-name="ibreve.sc" horiz-adv-x="612" 
d="M362 1634h289q0 -264 -348 -264q-188 0 -267 68t-79 196h285q0 -80 60 -80t60 80zM76 0v1329h461v-1329h-461z" />
    <glyph glyph-name="iogonek.sc" horiz-adv-x="612" 
d="M76 0v1329h461v-1329h-35q-43 0 -74 -24t-31 -52q0 -53 80 -53q41 0 72 14l35 -221q-102 -49 -236 -49t-208 51q-73 51 -72 131q0 137 135 203h-127z" />
    <glyph glyph-name="Idotaccent.sc" horiz-adv-x="612" 
d="M518 1507q0 -143 -213 -143q-109 0 -160 34t-51 109q0 143 212 143t212 -143zM76 0v1329h461v-1329h-461z" />
    <glyph glyph-name="dotlessi.sc" horiz-adv-x="612" 
d="M76 0v1329h461v-1329h-461z" />
    <glyph glyph-name="ij.sc" horiz-adv-x="1476" 
d="M76 0v1329h461v-1329h-461zM1413 1329v-823q0 -283 -129 -407t-385 -124q-143 0 -248 37l21 350q49 -20 139 -20t117 33t26 133v821h459z" />
    <glyph glyph-name="jcircumflex.sc" horiz-adv-x="843" 
d="M373 1634h368l189 -254h-320l-45 95h-12l-47 -95h-318zM782 1329v-823q0 -283 -129 -407t-385 -124q-143 0 -248 37l21 350q49 -20 139 -20t117 33t27 133v821h458z" />
    <glyph glyph-name="kcommaaccent.sc" horiz-adv-x="1298" 
d="M640 -53q228 0 228 -150q0 -104 -250 -215l-135 41l41 86q-113 27 -112 115q0 123 228 123zM520 502v-502h-448v1329h446v-489h57l216 489h501l-307 -635l320 -694h-527l-209 502h-49z" />
    <glyph glyph-name="kgreenlandic.sc" horiz-adv-x="1298" 
d="M520 502v-502h-448v1329h446v-489h57l216 489h501l-307 -635l320 -694h-527l-209 502h-49z" />
    <glyph glyph-name="lacute.sc" horiz-adv-x="983" 
d="M289 1632h522l-307 -252h-354zM522 379h441l-9 -379h-882v1329h450v-950z" />
    <glyph glyph-name="lcommaaccent.sc" horiz-adv-x="983" 
d="M264 -176q0 123 228 123t229 -150q0 -104 -250 -215l-135 41l41 86q-113 27 -113 115zM522 379h441l-9 -379h-882v1329h450v-950z" />
    <glyph glyph-name="lcaron.sc" horiz-adv-x="983" 
d="M616 1212q0 127 172 127t173 -153q0 -109 -189 -223l-102 43l32 88q-86 27 -86 118zM522 379h441l-9 -379h-882v1329h450v-950z" />
    <glyph glyph-name="ldot.sc" horiz-adv-x="983" 
d="M522 379h441l-9 -379h-882v1329h450v-950zM614 836q0 166 178 166t177 -165q0 -165 -176 -165q-94 0 -137 38q-42 38 -42 126z" />
    <glyph glyph-name="lslash.sc" horiz-adv-x="1054" 
d="M594 379h440l-8 -379h-883v465l-125 -45l-18 340l143 53v516h451v-362l285 102l24 -354l-309 -107v-229z" />
    <glyph glyph-name="nacute.sc" horiz-adv-x="1288" 
d="M584 1632h522l-307 -252h-355zM1217 0h-357l-305 481l-86 144l-4 -2l2 -166v-457h-395v1329h364l383 -594l4 2l-4 164l2 428h396v-1329z" />
    <glyph glyph-name="ncommaaccent.sc" horiz-adv-x="1288" 
d="M426 -176q0 123 228 123t229 -150q0 -104 -250 -215l-135 41l41 86q-113 27 -113 115zM1217 0h-357l-305 481l-86 144l-4 -2l2 -166v-457h-395v1329h364l383 -594l4 2l-4 164l2 428h396v-1329z" />
    <glyph glyph-name="ncaron.sc" horiz-adv-x="1288" 
d="M821 1380h-375l-182 254h320l45 -106h12l45 106h324zM1217 0h-357l-305 481l-86 144l-4 -2l2 -166v-457h-395v1329h364l383 -594l4 2l-4 164l2 428h396v-1329z" />
    <glyph glyph-name="napostrophe.sc" horiz-adv-x="1505" 
d="M-55 1534q0 127 172 127t172 -154q0 -109 -189 -223l-102 43l33 88q-86 27 -86 119zM1434 0h-357l-305 481l-86 144l-4 -2l2 -166v-457h-395v1329h364l383 -594l4 2l-4 164l2 428h396v-1329z" />
    <glyph glyph-name="eng.sc" horiz-adv-x="1288" 
d="M1217 170q-1 -238 -97 -343t-286 -106q-106 0 -183 33l17 256q34 -18 74 -18t58 14q17 14 23 53l-268 422l-86 144l-4 -2l2 -166v-457h-395v1329h364l383 -594l4 2l-4 164l2 428h396v-1159z" />
    <glyph glyph-name="omacron.sc" horiz-adv-x="1298" 
d="M999 1624v-227h-704v227h704zM801 666q0 192 -29 248t-121 56t-122 -58q-29 -58 -29 -248t29 -250q30 -60 121 -60t121 60t30 252zM650 1350q324 0 472 -166t148 -523t-148 -521t-468 -163q-322 0 -475 169q-153 170 -153 520t150 517t474 167z" />
    <glyph glyph-name="obreve.sc" horiz-adv-x="1298" 
d="M709 1634h288q0 -264 -348 -264q-188 0 -267 68t-79 196h285q0 -80 60 -80t61 80zM801 666q0 192 -29 248t-121 56t-122 -58q-29 -58 -29 -248t29 -250q30 -60 121 -60t121 60t30 252zM650 1350q324 0 472 -166t148 -523t-148 -521t-468 -163q-322 0 -475 169
q-153 170 -153 520t150 517t474 167z" />
    <glyph glyph-name="ohungarumlaut.sc" horiz-adv-x="1298" 
d="M811 1632h436l-254 -252h-307zM354 1632h424l-211 -252h-272zM801 666q0 192 -29 248t-121 56t-122 -58q-29 -58 -29 -248t29 -250q30 -60 121 -60t121 60t30 252zM650 1350q324 0 472 -166t148 -523t-148 -521t-468 -163q-322 0 -475 169q-153 170 -153 520t150 517
t474 167z" />
    <glyph glyph-name="oe.sc" horiz-adv-x="1730" 
d="M770 664q0 190 -27 245t-111 55t-112 -56q-26 -56 -26 -245t27 -247q28 -58 112 -58q85 0 111 58t26 248zM805 0v61l-4 2q-104 -86 -260 -86q-246 0 -380 170t-134 517q0 686 522 686q143 0 252 -70l4 2v47h868l4 -381h-471v-102h381v-344h-381v-129h494l-6 -373h-889z
" />
    <glyph glyph-name="racute.sc" horiz-adv-x="1234" 
d="M506 1632h522l-307 -252h-354zM598 741q64 -1 84 21t20 97t-20 97t-84 23h-78v-238h78zM1171 879q0 -127 -44 -221t-126 -140l254 -518h-516l-151 424h-68v-424h-448v1329h522q289 1 433 -109t144 -341z" />
    <glyph glyph-name="rcommaaccent.sc" horiz-adv-x="1234" 
d="M638 -53q228 0 228 -150q0 -104 -250 -215l-135 41l41 86q-113 27 -112 115q0 123 228 123zM598 741q64 -1 84 21t20 97t-20 97t-84 23h-78v-238h78zM1171 879q0 -127 -44 -221t-126 -140l254 -518h-516l-151 424h-68v-424h-448v1329h522q289 1 433 -109t144 -341z" />
    <glyph glyph-name="rcaron.sc" horiz-adv-x="1234" 
d="M743 1380h-374l-183 254h320l45 -106h12l45 106h324zM598 741q64 -1 84 21t20 97t-20 97t-84 23h-78v-238h78zM1171 879q0 -127 -44 -221t-126 -140l254 -518h-516l-151 424h-68v-424h-448v1329h522q289 1 433 -109t144 -341z" />
    <glyph glyph-name="sacute.sc" horiz-adv-x="1026" 
d="M489 1632h523l-307 -252h-355zM1008 418q0 -203 -144 -322t-391 -119q-246 0 -430 93l55 362q190 -90 367 -90q63 0 88 11t25 38t-56 51t-134 51q-79 27 -158 69t-134 131t-55 214q0 195 132 319q133 124 379 124t411 -64l-48 -354q-201 45 -299 45t-122 -11t-23 -40
q0 -29 55 -53q55 -25 134 -51t158 -66q78 -40 134 -128q56 -87 56 -210z" />
    <glyph glyph-name="scircumflex.sc" horiz-adv-x="1026" 
d="M352 1634h369l188 -254h-319l-45 95h-13l-47 -95h-317zM1008 418q0 -203 -144 -322t-391 -119q-246 0 -430 93l55 362q190 -90 367 -90q63 0 88 11t25 38t-56 51t-134 51q-79 27 -158 69t-134 131t-55 214q0 195 132 319q133 124 379 124t411 -64l-48 -354
q-201 45 -299 45t-122 -11t-23 -40q0 -29 55 -53q55 -25 134 -51t158 -66q78 -40 134 -128q56 -87 56 -210z" />
    <glyph glyph-name="scedilla.sc" horiz-adv-x="1026" 
d="M465 342q63 0 88 11t25 38t-56 51t-134 51q-79 27 -158 69t-134 131t-55 214q0 195 132 319q133 124 379 124t411 -64l-48 -354q-201 45 -299 45t-122 -11t-23 -40q0 -29 55 -53q55 -25 134 -51t158 -66t134 -128q56 -86 56 -226t-87 -248t-243 -152l-55 -377h-385
l137 359q-197 16 -332 86l55 362q190 -90 367 -90z" />
    <glyph glyph-name="scaron.sc" horiz-adv-x="1026" 
d="M727 1380h-375l-182 254h319l46 -106h12l45 106h323zM1008 418q0 -203 -144 -322t-391 -119q-246 0 -430 93l55 362q190 -90 367 -90q63 0 88 11t25 38t-56 51t-134 51q-79 27 -158 69t-134 131t-55 214q0 195 132 319q133 124 379 124t411 -64l-48 -354q-201 45 -299 45
t-122 -11t-23 -40q0 -29 55 -53q55 -25 134 -51t158 -66q78 -40 134 -128q56 -87 56 -210z" />
    <glyph glyph-name="tcommaaccent.sc" horiz-adv-x="1073" 
d="M309 0v952h-297l8 377h1031l10 -377h-295v-952h-82l-55 -375h-385l143 375h-78z" />
    <glyph glyph-name="tcaron.sc" horiz-adv-x="1073" 
d="M733 1380h-375l-182 254h320l45 -106h12l45 106h324zM766 952v-952h-457v952h-297l8 377h1031l10 -377h-295z" />
    <glyph glyph-name="tbar.sc" horiz-adv-x="1073" 
d="M766 952v-137h123v-293h-123v-522h-457v522h-108v293h108v137h-297l8 377h1031l10 -377h-295z" />
    <glyph glyph-name="utilde.sc" horiz-adv-x="1255" 
d="M774 1616q37 0 51 47l193 -2q-2 -119 -68 -192t-158 -73t-170 34q-78 33 -110 32q-49 0 -55 -49l-193 2q2 119 66 193t158 74t172 -34q78 -32 114 -32zM1194 1329v-860q0 -240 -140 -367t-424 -127t-426 127t-143 367v860h449v-856q0 -61 27 -88t95 -27t92 25
q22 25 21 90v856h449z" />
    <glyph glyph-name="umacron.sc" horiz-adv-x="1255" 
d="M979 1624v-227h-705v227h705zM1194 1329v-860q0 -240 -140 -367t-424 -127t-426 127t-143 367v860h449v-856q0 -61 27 -88t95 -27t92 25q22 25 21 90v856h449z" />
    <glyph glyph-name="ubreve.sc" horiz-adv-x="1255" 
d="M688 1634h289q0 -264 -348 -264q-188 0 -268 68q-79 68 -78 196h284q1 -80 61 -80t60 80zM1194 1329v-860q0 -240 -140 -367t-424 -127t-426 127t-143 367v860h449v-856q0 -61 27 -88t95 -27t92 25q22 25 21 90v856h449z" />
    <glyph glyph-name="uring.sc" horiz-adv-x="1255" 
d="M530 1448q0 -29 22 -41t82 -12t82 12t22 40t-21 41q-19 13 -81 13t-84 -12t-22 -41zM510 473q0 -61 26 -88t96 -27t92 25t21 90v760q-51 -6 -117 -6t-118 6v-760zM305 1462q0 94 75 152q75 57 251 57q330 0 330 -223q0 -78 -33 -113l2 -6h264v-860q0 -240 -140 -367
t-424 -127t-426 127t-143 367v860h273l2 6q-31 33 -31 127z" />
    <glyph glyph-name="uhungarumlaut.sc" horiz-adv-x="1255" 
d="M788 1632h437l-254 -252h-307zM332 1632h424l-211 -252h-273zM1194 1329v-860q0 -240 -140 -367t-424 -127t-426 127t-143 367v860h449v-856q0 -61 27 -88t95 -27t92 25q22 25 21 90v856h449z" />
    <glyph glyph-name="uogonek.sc" horiz-adv-x="1255" 
d="M713 -385q-135 0 -207 53q-72 54 -72 152t80 166q-225 22 -339 146t-114 337v860h449v-856q0 -61 27 -88t95 -27t92 25q22 25 21 90v856h449v-860q0 -403 -377 -475q-53 -20 -53 -72t80 -51q41 0 71 14l35 -221q-102 -49 -237 -49z" />
    <glyph glyph-name="wcircumflex.sc" horiz-adv-x="1871" 
d="M745 1634h369l189 -254h-320l-45 95h-12l-47 -95h-318zM707 1329h475l141 -885h6l17 164l86 721h444l-295 -1329h-532l-93 651l-18 166h-6l-109 -817h-532l-295 1329h467l84 -733l16 -164h6l21 164z" />
    <glyph glyph-name="ycircumflex.sc" horiz-adv-x="1282" 
d="M461 1634h368l189 -254h-320l-45 95h-12l-47 -95h-318zM877 0h-459v389l-441 940h502l123 -383l47 -158h6l45 158l117 383h486l-426 -940v-389z" />
    <glyph glyph-name="zacute.sc" horiz-adv-x="1087" 
d="M508 1632h522l-307 -252h-354zM39 0v274l371 537l96 131l-2 4h-457l12 383h981v-305l-352 -510l-96 -129l2 -6h455l-5 -379h-1005z" />
    <glyph glyph-name="zdotaccent.sc" horiz-adv-x="1087" 
d="M772 1507q0 -143 -213 -143q-109 0 -160 34t-51 109q0 143 212 143t212 -143zM39 0v274l371 537l96 131l-2 4h-457l12 383h981v-305l-352 -510l-96 -129l2 -6h455l-5 -379h-1005z" />
    <glyph glyph-name="zcaron.sc" horiz-adv-x="1087" 
d="M748 1380h-375l-183 254h320l45 -106h12l45 106h324zM39 0v274l371 537l96 131l-2 4h-457l12 383h981v-305l-352 -510l-96 -129l2 -6h455l-5 -379h-1005z" />
    <glyph glyph-name="longs.sc" horiz-adv-x="1026" 
d="M1008 418q0 -203 -144 -322t-391 -119q-246 0 -430 93l55 362q190 -90 367 -90q63 0 88 11t25 38t-56 51t-134 51q-79 27 -158 69t-134 131t-55 214q0 195 132 319q133 124 379 124t411 -64l-48 -354q-201 45 -299 45t-122 -11t-23 -40q0 -29 55 -53q55 -25 134 -51
t158 -66q78 -40 134 -128q56 -87 56 -210z" />
    <glyph glyph-name="uni01B6.sc" horiz-adv-x="1087" 
d="M39 0v274l188 273h-145l12 268h318l94 127l-2 4h-457l12 383h981v-305l-145 -209h121l-12 -268h-293l-119 -162l2 -6h455l-5 -379h-1005z" />
    <glyph glyph-name="aringacute.sc" horiz-adv-x="1329" 
d="M555 1448q0 -29 22 -41t82 -12q59 0 81 12t22 40t-20 41t-82 13q-61 0 -83 -12t-22 -41zM653 911l-32 -163l-46 -203h156l-43 203l-29 163h-6zM985 1454q0 -98 -49 -149l414 -1305h-502l-41 193h-309l-43 -193h-473l399 1300q-51 51 -51 148q0 168 176 209l39 106h549
l-185 -155q76 -56 76 -154z" />
    <glyph glyph-name="aeacute.sc" horiz-adv-x="1861" 
d="M1044 1632h523l-307 -252h-355zM877 967l-58 -156l-106 -268h170l-2 256l2 166zM1714 842v-338h-377l2 -135h492l-8 -369h-934l-2 195h-312l-75 -195h-525l658 1329h1167l8 -375h-477l2 -112h381z" />
    <glyph glyph-name="oslashacute.sc" horiz-adv-x="1298" 
d="M598 1632h522l-307 -252h-354zM786 664v38l-256 -311q29 -37 114 -37t114 60q28 60 28 250zM485 664v-60l267 322q-29 45 -118 45q-89 -1 -119 -59t-30 -248zM635 1350q211 0 350 -74l72 90l196 -162l-84 -108q88 -162 88 -432q0 -360 -148 -524t-474 -163
q-201 0 -336 68l-66 -82l-198 156l76 100q-96 160 -97 445q0 352 150 519t471 167z" />
    <glyph glyph-name="scommaaccent.sc" horiz-adv-x="1026" 
d="M538 -53q228 0 228 -150q0 -104 -250 -215l-135 41l41 86q-113 27 -113 115q1 123 229 123zM1008 418q0 -203 -144 -322t-391 -119q-246 0 -430 93l55 362q190 -90 367 -90q63 0 88 11t25 38t-56 51t-134 51q-79 27 -158 69t-134 131t-55 214q0 195 132 319
q133 124 379 124t411 -64l-48 -354q-201 45 -299 45t-122 -11t-23 -40q0 -29 55 -53q55 -25 134 -51t158 -66q78 -40 134 -128q56 -87 56 -210z" />
    <glyph glyph-name="uni021B.sc" horiz-adv-x="1073" 
d="M540 -53q228 0 228 -150q0 -104 -250 -215l-135 41l41 86q-113 27 -113 115q1 123 229 123zM766 952v-952h-457v952h-297l8 377h1031l10 -377h-295z" />
    <glyph glyph-name="uni0237.sc" horiz-adv-x="843" 
d="M782 1329v-823q0 -283 -129 -407t-385 -124q-143 0 -248 37l21 350q49 -20 139 -20t117 33t27 133v821h458z" />
    <glyph glyph-name="uni0259.sc" horiz-adv-x="1296" 
d="M639 336q76 0 110 39t42 149h-287l2 -47q6 -141 133 -141zM29 639q0 98 8 186h747q-18 92 -75 124t-229 32t-333 -39l-36 344q199 63 477 64q154 0 270 -32t212 -108q194 -155 196 -553q0 -354 -150 -519t-461 -165q-311 -1 -469 149t-157 517z" />
    <glyph glyph-name="circumflex.sc" horiz-adv-x="813" 
d="M221 1634h369l188 -254h-319l-45 95h-13l-47 -95h-317z" />
    <glyph glyph-name="caron.sc" horiz-adv-x="813" 
d="M596 1380h-375l-182 254h319l45 -106h13l45 106h323z" />
    <glyph glyph-name="breve.sc" horiz-adv-x="813" 
d="M463 1634h289q0 -264 -349 -264q-188 0 -267 68t-79 196h285q0 -80 60 -80t61 80z" />
    <glyph glyph-name="dotaccent.sc" horiz-adv-x="813" 
d="M625 1507q0 -143 -213 -143q-109 0 -160 34t-51 109q0 143 212 143t212 -143z" />
    <glyph glyph-name="ring.sc" horiz-adv-x="813" 
d="M311 1448q0 -29 22 -41t82 -12t82 12q21 12 21 40t-20 41t-82 13t-83 -12q-22 -12 -22 -41zM86 1443q0 114 75 171t251 57q330 0 329 -223q1 -115 -77 -168t-250 -53t-250 51t-78 165z" />
    <glyph glyph-name="ogonek.sc" horiz-adv-x="813" 
d="M612 -76q0 -53 80 -53q41 0 72 14l35 -221q-103 -49 -237 -49t-207 51t-73 143t72 149q72 56 195 89l168 -47q-43 0 -74 -24t-31 -52z" />
    <glyph glyph-name="tilde.sc" horiz-adv-x="813" 
d="M555 1616q37 0 51 47l193 -2q-2 -119 -68 -192t-158 -73t-171 34q-79 33 -109 32q-49 0 -55 -49l-193 2q1 119 65 193t158 74t172 -34q78 -32 115 -32z" />
    <glyph glyph-name="hungarumlaut.sc" horiz-adv-x="813" 
d="M598 1632h436l-254 -252h-307zM141 1632h424l-211 -252h-272z" />
    <glyph glyph-name="wgrave.sc" horiz-adv-x="1871" 
d="M1153 1380h-324l-260 252h486zM707 1329h475l141 -885h6l17 164l86 721h444l-295 -1329h-532l-93 651l-18 166h-6l-109 -817h-532l-295 1329h467l84 -733l16 -164h6l21 164z" />
    <glyph glyph-name="wacute.sc" horiz-adv-x="1871" 
d="M885 1632h522l-307 -252h-355zM707 1329h475l141 -885h6l17 164l86 721h444l-295 -1329h-532l-93 651l-18 166h-6l-109 -817h-532l-295 1329h467l84 -733l16 -164h6l21 164z" />
    <glyph glyph-name="wdieresis.sc" horiz-adv-x="1871" 
d="M1313 1509q0 -143 -170 -143q-88 0 -129 34t-41 109q0 143 170 143t170 -143zM895 1509q0 -143 -171 -143t-171 143t171 143t171 -143zM707 1329h475l141 -885h6l17 164l86 721h444l-295 -1329h-532l-93 651l-18 166h-6l-109 -817h-532l-295 1329h467l84 -733l16 -164h6
l21 164z" />
    <glyph glyph-name="uni1E8B.sc" horiz-adv-x="1280" 
d="M860 1507q0 -143 -213 -143q-109 0 -160 34t-51 109q0 143 212 143t212 -143zM1284 1329l-330 -633l330 -696h-504l-80 207l-53 158h-6l-55 -158l-78 -207h-512l323 686l-321 643h524l66 -164l57 -153h6l58 153l67 164h508z" />
    <glyph glyph-name="ygrave.sc" horiz-adv-x="1282" 
d="M868 1380h-323l-260 252h485zM877 0h-459v389l-441 940h502l123 -383l47 -158h6l45 158l117 383h486l-426 -940v-389z" />
    <glyph glyph-name="fi.sc" horiz-adv-x="1656" 
d="M1120 0v1329h461v-1329h-461zM520 946v-145h406l-4 -363h-402v-438h-448v1329h936l6 -383h-494z" />
    <glyph glyph-name="fl.sc" horiz-adv-x="2027" 
d="M1567 379h440l-8 -379h-883v1329h451v-950zM520 946v-145h406l-4 -363h-402v-438h-448v1329h936l6 -383h-494z" />
    <glyph glyph-name="i.latn_TRK.sc" horiz-adv-x="612" 
d="M518 1507q0 -143 -213 -143q-109 0 -160 34t-51 109q0 143 212 143t212 -143zM76 0v1329h461v-1329h-461z" />
    <glyph glyph-name="ldot.latn_CAT.sc" horiz-adv-x="983" 
d="M522 379h441l-9 -379h-882v1329h450v-950zM614 836q0 166 178 166t177 -165q0 -165 -176 -165q-94 0 -137 38q-42 38 -42 126z" />
    <glyph glyph-name="parenleft.case" horiz-adv-x="765" 
d="M545 768q0 -566 215 -922l-328 -26q-158 172 -239 420q-82 248 -82 528q1 280 81 526q80 248 240 420l328 -26q-215 -354 -215 -920z" />
    <glyph glyph-name="parenright.case" horiz-adv-x="765" 
d="M653 766q0 -280 -81 -526q-81 -248 -238 -420l-330 26q217 360 217 923t-217 919l330 26q158 -172 238 -420t81 -528z" />
    <glyph glyph-name="hyphen.case" horiz-adv-x="710" 
d="M55 922h600v-308h-600v308z" />
    <glyph glyph-name="bracketleft.case" horiz-adv-x="743" 
d="M111 -168v1872h626v-297h-221v-1282h221v-293h-626z" />
    <glyph glyph-name="bracketright.case" horiz-adv-x="741" 
d="M631 1704v-1872h-627v293h221v1282h-221v297h627z" />
    <glyph glyph-name="grave.case" horiz-adv-x="813" 
d="M655 1614h-356l-274 244h514z" />
    <glyph glyph-name="braceleft.case" horiz-adv-x="800" 
d="M727 133h68v-313h-45q-307 0 -437 108q-129 109 -129 314l23 297q0 100 -96 151v154q96 51 96 151l-23 297q0 205 129 314t437 108h45v-313h-68q-65 0 -105 -49t-40 -113l14 -244q0 -147 -111 -229q111 -78 111 -227l-14 -244q0 -63 40 -113t105 -49z" />
    <glyph glyph-name="braceright.case" horiz-adv-x="800" 
d="M74 1401h-70v313h47q307 0 436 -108t129 -314l-22 -297q0 -100 94 -151v-154q-94 -51 -94 -151l22 -297q0 -205 -129 -314t-436 -108h-47v313h70q63 0 103 49t40 113l-14 244q0 150 110 227q-111 82 -110 229l14 244q0 63 -40 113t-103 49z" />
    <glyph glyph-name="dieresis.case" horiz-adv-x="813" 
d="M434 1753q0 156 175 156t175 -155t-176 -155q-90 0 -132 36t-42 118zM205 1909q174 0 174 -155t-174 -155q-90 0 -132 36t-42 118q0 156 174 156z" />
    <glyph glyph-name="guillemotleft.case" horiz-adv-x="1333" 
d="M700 934l-251 -166l251 -166v-319l-671 473v24l671 473v-319zM1276 934l-252 -166l252 -166v-319l-672 473v24l672 473v-319z" />
    <glyph glyph-name="uni00AD.case" horiz-adv-x="710" 
d="M55 922h600v-308h-600v308z" />
    <glyph glyph-name="macron.case" horiz-adv-x="813" 
d="M760 1833v-207h-709v207h709z" />
    <glyph glyph-name="acute.case" horiz-adv-x="813" 
d="M283 1855h548l-288 -245h-350z" />
    <glyph glyph-name="guillemotright.case" horiz-adv-x="1333" 
d="M59 283v319l252 166l-252 166v319l674 -473v-24zM633 283v319l252 166l-252 166v319l674 -473v-24z" />
    <glyph glyph-name="circumflex.case" horiz-adv-x="813" 
d="M168 1855h469l192 -245h-378l-45 96h-5l-45 -96h-372z" />
    <glyph glyph-name="caron.case" horiz-adv-x="813" 
d="M637 1610h-469l-184 245h374l45 -100h5l45 100h374z" />
    <glyph glyph-name="breve.case" horiz-adv-x="813" 
d="M459 1855h325q0 -258 -376 -258q-199 0 -285 67t-86 191h323q0 -47 50 -47t49 47z" />
    <glyph glyph-name="dotaccent.case" horiz-adv-x="813" 
d="M655 1737q0 -76 -55 -111t-193 -35t-194 33q-55 33 -55 111q0 77 57 113t193 36t192 -36q55 -36 55 -111z" />
    <glyph glyph-name="ring.case" horiz-adv-x="813" 
d="M405 1710q-67 0 -87 -14t-21 -49q0 -35 19 -49t87 -13q68 0 89 12q20 11 20 47t-20 51t-87 15zM68 1651q0 125 72 184q73 59 257 59q338 0 338 -235q0 -127 -76 -182t-259 -55q-184 0 -258 52t-74 177z" />
    <glyph glyph-name="ogonek.case" horiz-adv-x="813" 
d="M612 -76q0 -53 80 -53q41 0 72 14l35 -221q-101 -49 -237 -49t-208 53t-71 144q-1 182 237 243l197 -55q-43 0 -74 -24t-31 -52z" />
    <glyph glyph-name="tilde.case" horiz-adv-x="813" 
d="M244 1882q98 0 197 -22t127 -23q28 0 30 25h195q-2 -123 -70 -195t-166 -72t-188 23t-107 22q-43 1 -47 -26h-205q2 120 69 194t165 74z" />
    <glyph glyph-name="hungarumlaut.case" horiz-adv-x="813" 
d="M487 1855h441l-230 -245h-307zM29 1855h428l-166 -245h-275z" />
    <glyph glyph-name="endash.case" horiz-adv-x="942" 
d="M57 922h828v-308h-828v308z" />
    <glyph glyph-name="emdash.case" horiz-adv-x="1310" 
d="M57 922h1196v-308h-1196v308z" />
    <glyph glyph-name="guilsinglleft.case" horiz-adv-x="749" 
d="M696 934l-252 -166l252 -166v-319l-671 473v24l671 473v-319z" />
    <glyph glyph-name="guilsinglright.case" horiz-adv-x="749" 
d="M51 283v319l252 166l-252 166v319l674 -473v-24z" />
    <glyph glyph-name="zero.zero" horiz-adv-x="1206" 
d="M602 922q64 0 94 -31q-4 166 -24 214t-68 48t-70 -48t-26 -210q30 27 94 27zM600 618q-68 0 -94 23q4 -229 46 -264q17 -15 51 -15t50 16q39 41 43 269q-28 -29 -96 -29zM1159 770q0 -416 -136 -604t-426 -188t-419 186t-129 606t129 600t424 180t426 -182t131 -598z" />
    <glyph glyph-name="zero.osf.zero" horiz-adv-x="1163" 
d="M579 971q-56 0 -84 -40t-34 -165l4 -2q25 59 114 59t117 -55l4 2q-10 125 -37 163q-28 38 -84 38zM580 365q57 -1 85 39t37 169l-4 2q-26 -55 -118 -55t-115 55l-4 -2q6 -131 34 -169t85 -39zM1128 676q0 -360 -134 -528t-418 -168t-413 166q-128 166 -128 529t128 525
t417 162q288 0 418 -164q130 -162 130 -522z" />
    <glyph glyph-name="zero.lf.zero" horiz-adv-x="1175" 
d="M586 922q66 0 96 -29q-6 166 -26 213t-69 47q-48 0 -70 -49t-25 -211q28 29 94 29zM585 618q-69 0 -96 25q4 -230 47 -266q17 -15 59 -15t62 52t25 231q-28 -27 -97 -27zM1143 770q0 -418 -136 -604q-136 -188 -426 -188t-419 186t-129 606t129 600t424 180t426 -181
t131 -599z" />
    <glyph glyph-name="zero.tosf.zero" horiz-adv-x="1169" 
d="M580 823q64 0 96 -26q-6 117 -29 153t-65 37q-42 0 -66 -38q-23 -38 -31 -156q31 30 95 30zM578 520q-68 0 -93 27q6 -129 28 -165t69 -36t67 38t27 161q-30 -25 -98 -25zM1130 676q0 -360 -133 -528t-417 -168t-413 166q-128 166 -128 529t127 525t417 162
q291 0 419 -164q128 -162 128 -522z" />
    <glyph glyph-name="Lcaron.ss01" horiz-adv-x="1056" 
d="M586 1610h-469l-185 245h375l45 -100h4l45 100h375zM559 414h477l-10 -414h-950v1536h483v-1122z" />
    <glyph glyph-name="lcaron.sc.ss01" horiz-adv-x="983" 
d="M520 1380h-375l-182 254h320l45 -106h12l45 106h324zM522 379h441l-9 -379h-882v1329h450v-950z" />
    <glyph glyph-name="orn001" horiz-adv-x="1323" 
d="M326 770q0 160 80 219q94 -129 233 -217l-68 -121q-137 16 -243 74q-2 16 -2 45zM1010 766l-2 -41q-103 -58 -246 -74l-68 121q145 88 236 217q80 -59 80 -223zM864 356q-189 39 -391 0q-90 102 -102 267q298 -99 583 0q-6 -175 -90 -267zM1055 849q0 151 -76 206
q-77 55 -317 55t-316 -54t-76 -206t40 -300q40 -146 93 -202q8 -6 64 -66q126 -137 197 -137t197 137q56 60 63 66q53 54 92 202t39 299zM665 -29q-38 0 -93 25t-117 83t-120 123t-63 72q-88 96 -147 300t-59 409q0 270 140 429t454 159t456 -159q141 -159 141 -429
q0 -205 -59 -409t-147 -300q-4 -4 -52 -58q-156 -180 -250 -224q-46 -22 -84 -21z" />
    </font>
</defs>
</svg>
